<?xml version="1.0" standalone="no"?>
<!DOCTYPE svg PUBLIC "-//W3C//DTD SVG 1.1//EN" "http://www.w3.org/Graphics/SVG/1.1/DTD/svg11.dtd" >
<svg>
<metadata>
Created by FontForge 20090914 at Tue Mar 10 19:25:22 2015
 By www-data
Copyright (c) 2009-2011 by Accademia di Belle Arti di Urbino and students of MA course of Visual design. Some rights reserved.
</metadata>
<defs>
<font id="TitilliumWeb-Regular" horiz-adv-x="560" >
  <font-face 
    font-family="Titillium Web"
    font-weight="400"
    font-stretch="normal"
    units-per-em="1000"
    panose-1="0 0 5 0 0 0 0 0 0 0"
    ascent="800"
    descent="-200"
    x-height="500"
    cap-height="692"
    bbox="-224 -285 1067 1082"
    underline-thickness="30"
    underline-position="-80"
    unicode-range="U+0020-U+F6C3"
  />
<missing-glyph horiz-adv-x="235" 
 />
    <glyph glyph-name=".notdef" horiz-adv-x="235" 
 />
    <glyph glyph-name="space" unicode=" " horiz-adv-x="220" 
 />
    <glyph glyph-name="exclam" unicode="!" horiz-adv-x="247" 
d="M83 0v112h82v-112h-82zM89 228l-5 464h79l-5 -464h-69z" />
    <glyph glyph-name="quotedbl" unicode="&#x22;" horiz-adv-x="373" 
d="M303 470h-67l-4 222h75zM137 470h-67l-4 222h75z" />
    <glyph glyph-name="numbersign" unicode="#" 
d="M536 174h-111v-174h-68v174h-154v-174h-68v174h-111v64h111v186h-111v64h111v178h68v-178h154v178h68v-178h111v-64h-111v-186h111v-64zM357 238v186h-154v-186h154z" />
    <glyph glyph-name="dollar" unicode="$" 
d="M494 194c0 -135.333 -70.334 -202.999 -211.001 -202.999h-15l-14 -115c-34 2 -51 4.33301 -51 7l14 111l-143 18l8 61c51.333 -7.33301 99 -12.333 143 -15l33 250c-68 16 -116.5 36.5 -145.5 61.5s-43.5 66.167 -43.5 123.5c0 118 70.667 177 212 177
c10 0 17.667 -0.333008 23 -1l17 129h51l-17 -132l125 -15l-6 -62c-46 5.33301 -88.333 9.66602 -127 12.999l-30 -233c64.667 -15.333 110.334 -35 137.001 -59s40 -62.667 40 -116zM142.999 497.001c0 -36 9 -61.668 27 -77.001s50.333 -28.666 97 -39.999l29 225h-10
c-95.333 0 -143 -36 -143 -108zM419.999 189c0 32 -8.33301 55.667 -25 71s-45.667 28 -87 38l-31 -242h2c94 0 141 44.333 141 133z" />
    <glyph glyph-name="percent" unicode="%" 
d="M155 -4l205 685l48 -16l-205 -683zM138 670c73.333 0 110 -46 110 -138c0 -47.333 -9.66699 -82.666 -29 -105.999s-46.333 -35 -81 -35s-61.667 11.667 -81 35s-29 58.666 -29 105.999c0 92 36.667 138 110 138zM89 532c0 -60 16.502 -90 49.502 -90s49.5 30 49.5 90
c0 30 -3.83301 52 -11.5 66s-20.334 21 -38.001 21s-30.334 -7 -38.001 -21s-11.5 -36 -11.5 -66zM313.002 132c0 91.333 36.5 137.001 109.5 137.001s109.5 -46 109.5 -138c0 -46.667 -9.66699 -81.834 -29 -105.501s-46.333 -35.5 -81 -35.5s-61.5 11.833 -80.5 35.5
s-28.5 59.167 -28.5 106.5zM373.002 132.001c0 -60.667 16.333 -91.002 49 -91.002c18.667 0 31.667 7.33301 39 22s11 37.334 11 68.001s-3.66699 52.834 -11 66.501s-20 20.5 -38 20.5s-30.833 -6.83301 -38.5 -20.5s-11.5 -35.5 -11.5 -65.5z" />
    <glyph glyph-name="ampersand" unicode="&#x26;" horiz-adv-x="688" 
d="M186 661c30.667 26.667 73.998 39.9961 129.998 39.9961s98.5 -13.333 127.5 -40s43.5 -63.5 43.5 -110.5s-11.667 -84 -35 -111s-63 -53.5 -119 -79.5l152 -150c14.667 42.667 24 96.667 28 162l73 -1c-8.66699 -83.333 -24 -152.666 -46 -207.999l129 -122l-45 -50
l-121 113c-46 -76 -115.667 -114 -209 -114s-158.666 18 -195.999 54s-56 85.833 -56 149.5s12.167 110.334 36.5 140.001s63.833 53.5 118.5 71.5c-23.333 26.667 -38.666 50.334 -45.999 71.001s-11 46.667 -11 78c0 44.667 15.333 80.334 46 107.001zM281.998 57.9961
c82 0 138.333 30 169 90l-211 210c-44 -14 -75.333 -32 -94 -54s-28 -56 -28 -102c0 -96 54.667 -144 164 -144zM214.998 541.996c0 -40.667 15 -77 45 -109l29 -28c46 20 78 39.667 96 59s27 46 27 80c0 61.333 -32.833 92 -98.5 92s-98.5 -31.333 -98.5 -94z" />
    <glyph glyph-name="quotesingle" unicode="'" horiz-adv-x="208" 
d="M70 470l-3 222h75l-5 -222h-67z" />
    <glyph glyph-name="parenleft" unicode="(" horiz-adv-x="264" 
d="M155 -125c-69.333 156 -103.999 297.999 -103.999 425.999c0 64 8.66699 133.5 26 208.5s34.666 133.833 51.999 176.5l26 64h72c-23.333 -61.333 -45 -137.166 -65 -227.499s-30 -164 -30 -221s8 -121 24 -192s32 -127.833 48 -170.5l23 -64h-72z" />
    <glyph glyph-name="parenright" unicode=")" horiz-adv-x="264" 
d="M202 431c7.33301 -46.667 10.999 -96.001 10.999 -148.001s-8.66699 -113.5 -26 -184.5s-34.666 -125.833 -51.999 -164.5l-26 -59h-72c22.667 53.333 44.167 123.5 64.5 210.5s30.5 159 30.5 216s-7.83301 122.833 -23.5 197.5s-31.5 135 -47.5 181l-24 70h72
c44 -99.333 75 -205.666 93 -318.999z" />
    <glyph glyph-name="asterisk" unicode="*" horiz-adv-x="420" 
d="M373 511h-132l41 -125l-49 -15l-41 126l-107 -79l-31 40l108 79l-106 77l31 42l106 -78l41 126l49 -16l-40 -127h130v-50z" />
    <glyph glyph-name="plus" unicode="+" 
d="M55 217v68h189v195h70v-195h191v-68h-191v-197h-70v197h-189z" />
    <glyph glyph-name="comma" unicode="," horiz-adv-x="223" 
d="M34 -123l46 230h83l-67 -230h-62z" />
    <glyph glyph-name="hyphen" unicode="-" horiz-adv-x="438" 
d="M68 240v70h303v-70h-303z" />
    <glyph glyph-name="period" unicode="." horiz-adv-x="216" 
d="M67 0v114h82v-114h-82z" />
    <glyph glyph-name="slash" unicode="/" horiz-adv-x="412" 
d="M32 10l282 698l67 -25l-282 -697z" />
    <glyph glyph-name="zero" unicode="0" 
d="M279 671c54.667 0 98.999 -10.3311 132.999 -30.998c72 -42.667 108 -149.334 108 -320.001c0 -120.667 -20 -205.834 -60 -255.501s-100 -74.5 -180 -74.5s-140.167 24.5 -180.5 73.5s-60.5 136.333 -60.5 262s19.833 214.667 59.5 267s99.834 78.5 180.501 78.5z
M279.999 602.002c-38 0 -68 -7.99902 -90 -23.999c-47.333 -32.667 -71 -119 -71 -259c0 -98.667 13 -166.834 39 -204.501s66.667 -56.5 122 -56.5s96 19 122 57s39 108.5 39 211.5s-12.5 174.667 -37.5 215s-66.167 60.5 -123.5 60.5z" />
    <glyph glyph-name="one" unicode="1" 
d="M389 660v-660h-77v574l-170 -112l-35 58l210 140h72z" />
    <glyph glyph-name="two" unicode="2" 
d="M491 0h-421.997v65l193 203c33.333 34.667 57.666 61 72.999 79s29.166 39.333 41.499 64s18.5 49.334 18.5 74.001c0 42.667 -11.667 72.667 -35 90s-59.666 26 -108.999 26c-43.333 0 -91.666 -5.66699 -144.999 -17l-26 -5l-6 64c63.333 18 128.666 27 195.999 27
s118.166 -14.167 152.499 -42.5s51.5 -73.166 51.5 -134.499c0 -46.667 -10.333 -87.334 -31 -122.001s-56.334 -76.334 -107.001 -125.001l-176 -179h331v-67z" />
    <glyph glyph-name="three" unicode="3" 
d="M72 643c62.667 18.667 129.834 28.001 201.501 28.001s123.5 -13.667 155.5 -41s48 -71 48 -131c0 -30.667 -4.16699 -52.834 -12.5 -66.501s-15 -24.167 -20 -31.5s-11.5 -14.333 -19.5 -21c-14.667 -11.333 -26.334 -19.333 -35.001 -24l-11 -7
c38.667 -14 67.334 -31.833 86.001 -53.5s28 -57.167 28 -106.5c0 -67.333 -17.167 -117.333 -51.5 -150s-88.5 -49 -162.5 -49c-58.667 0 -120.667 6.66699 -186 20l-31 7l7 63c72 -14.667 139.333 -22 202 -22c95.333 0.666992 143 43.334 143 128.001
c0 79.333 -45.333 120.666 -136 123.999h-133v66h133c28 0 55 11.167 81 33.5s39 51.833 39 88.5s-10.333 63.167 -31 79.5s-55.334 24.5 -104.001 24.5c-53.333 0 -106 -5 -158 -15l-26 -5z" />
    <glyph glyph-name="four" unicode="4" 
d="M360 0v129h-320v60l188 471h84l-191 -463h239v206h77v-206h84v-68h-84v-129h-77z" />
    <glyph glyph-name="five" unicode="5" 
d="M477 660v-69.999h-321l-18 -215c51.333 27.333 103 41 155 41c140 0 210 -65 210 -195c0 -74.667 -19.333 -131.667 -58 -171s-93 -59 -163 -59c-56 0 -118 7.33301 -186 22l-33 7l9 61c76.667 -14.667 141.167 -22 193.5 -22s91.833 13.5 118.5 40.5s40 64.833 40 113.5
s-12.167 83.167 -36.5 103.5s-58.833 30.5 -103.5 30.5c-24 0 -49.167 -3.33301 -75.5 -10s-46.5 -13.334 -60.5 -20.001l-21 -10l-53 10l18 343h385z" />
    <glyph glyph-name="six" unicode="6" 
d="M482 590c-60 8 -118.334 11.999 -175.001 11.999s-100.334 -19.667 -131.001 -59s-46 -95.666 -46 -168.999l25 10c16.667 6 38.834 12.333 66.501 19s52.167 10 73.5 10c148 0 222 -68.333 222 -205c0 -70 -20.167 -123.833 -60.5 -161.5s-97.166 -56.5 -170.499 -56.5
c-157.333 0 -236 114.333 -236 343c0 115.333 22.5 200.333 67.5 255s108.5 82 190.5 82c54 0 105.333 -4 154 -12l27 -5zM289.999 343.999c-22.667 0 -47.499 -3.16699 -74.499 -9.5s-48.167 -12.5 -63.5 -18.5l-23 -10c0.666992 -76 13.5 -136.333 38.5 -181
s63.167 -67 114.5 -67s90 12.833 116 38.5s39 62 39 109s-12.833 81.833 -38.5 104.5s-61.834 34 -108.501 34z" />
    <glyph glyph-name="seven" unicode="7" 
d="M77 590v70h410v-101l-254 -569l-73 23l249 551v26h-332z" />
    <glyph glyph-name="eight" unicode="8" 
d="M278 671c73.333 0 131.501 -14.5 174.501 -43.5s64.5 -71.833 64.5 -128.5c0 -41.333 -8.33301 -72.833 -25 -94.5s-45 -41.5 -85 -59.5c40 -18 70 -39.167 90 -63.5s30 -58.5 30 -102.5c0 -126 -82.5 -189 -247.5 -189s-247.5 59.333 -247.5 178
c0 47.333 9.16699 83.333 27.5 108s47.166 47.667 86.499 69c-36 18 -62.167 38.5 -78.5 61.5s-24.5 54.167 -24.5 93.5c0 56 20.833 98.5 62.5 127.5s99.167 43.5 172.5 43.5zM114.001 181c0 -80.667 55.168 -121 165.501 -121s165.5 42.333 165.5 127
c0 35.333 -9.83301 61.5 -29.5 78.5s-48.834 31.167 -87.501 42.5h-105c-36.667 -10 -64 -24.833 -82 -44.5s-27 -47.167 -27 -82.5zM435.002 490c0 74 -51.667 111 -155 111s-155 -36.667 -155 -110c0 -29.333 8 -53 24 -71s40.667 -33 74 -45h105
c36 11.333 62.833 26 80.5 44s26.5 41.667 26.5 71z" />
    <glyph glyph-name="nine" unicode="9" 
d="M247 58c120.667 0 181.333 76.6689 182 230.002c-66.667 -25.333 -124 -38 -172 -38c-144 0 -216 67 -216 201c0 67.333 20.667 120.666 62 159.999s97 59 167 59c80.667 0 140.667 -29.833 180 -89.5s59 -147.334 59 -263.001s-22.167 -199.167 -66.5 -250.5
s-109.5 -77 -195.5 -77c-50 0 -101.667 4.66699 -155 14l-26 4l7 62c60 -8 118 -12 174 -12zM262.999 318.002c40.667 0 87.667 9 141 27l26 9c-2 165.333 -55.333 248 -160 248c-46.667 0 -83.167 -13.5 -109.5 -40.5s-39.5 -63.833 -39.5 -110.5
c0 -88.667 47.333 -133 142 -133z" />
    <glyph glyph-name="colon" unicode=":" horiz-adv-x="217" 
d="M67 322v114h82v-114h-82zM67 0v114h82v-114h-82z" />
    <glyph glyph-name="semicolon" unicode=";" horiz-adv-x="248" 
d="M93 107h84l-67 -230h-62zM88 322v114h81v-114h-81z" />
    <glyph glyph-name="less" unicode="&#x3c;" 
d="M477 409l-339 -157l339 -160v-79l-416 205v66l416 203v-78z" />
    <glyph glyph-name="equal" unicode="=" 
d="M64 309v69h432v-69h-432zM64 124v69h432v-69h-432z" />
    <glyph glyph-name="greater" unicode="&#x3e;" 
d="M421 252l-339 157v78l416 -203v-66l-416 -205v79z" />
    <glyph glyph-name="question" unicode="?" horiz-adv-x="447" 
d="M406 542c0 -43.333 -5.83203 -76.166 -17.499 -98.499s-35.334 -48.333 -71.001 -78s-60.167 -53.334 -73.5 -71.001s-20 -37.167 -20 -58.5v-35h-63c-8.66699 18 -13 38.333 -13 61s7.66699 43.834 23 63.501s40 44.167 74 73.5s56.667 52.666 68 69.999
s17 41.5 17 72.5s-10.667 54.167 -32 69.5s-55 23 -101 23c-29.333 0 -72.333 -6 -129 -18l-26 -5l-5 61c67.333 20 123 30 167 30c68.667 0 119.5 -12.5 152.5 -37.5s49.5 -65.833 49.5 -122.5zM150.001 1v112h82v-112h-82z" />
    <glyph glyph-name="at" unicode="@" horiz-adv-x="977" 
d="M933 305l0.000976562 -13.001c0 -141.333 -22.333 -230.333 -67 -267c-16 -12.667 -32.167 -21 -48.5 -25s-35 -6 -56 -6s-39 2 -54 6s-26.5 9 -34.5 15c-16 12 -27 25 -33 39c-65.333 -39.333 -123.333 -59 -174 -59c-24.667 0 -46.167 3 -64.5 9
s-36.833 17.333 -55.5 34c-37.333 33.333 -56 98.333 -56 195s15.167 166.167 45.5 208.5s82.833 63.5 157.5 63.5c28.667 0 61 -6.33301 97 -19l18 -7v16h75v-191c0 -116.667 3.66699 -186 11 -208c3.33301 -8.66699 8.16602 -16.667 14.499 -24
s13.166 -11.666 20.499 -12.999s20 -2 38 -2s33.167 4.33301 45.5 13s22.833 30.667 31.5 66s13 87.333 13 156v14c0 123.333 -27.333 212.666 -82 267.999s-145.5 83 -272.5 83s-221.333 -31.5 -283 -94.5s-92.5 -165.333 -92.5 -307s29.333 -242.5 88 -302.5
s155 -90 289 -90l143 10l3 -67c-62.667 -6 -111.334 -9 -146.001 -9c-77.333 0 -142.833 7.33301 -196.5 22s-100.167 39.667 -139.5 75c-78 68 -117 190.333 -117 367c0 160.667 38.333 277.834 115 351.501s189.334 110.5 338.001 110.5s257.334 -34.167 326.001 -102.5
s103 -173.5 103 -315.5zM471.001 60.999c28.667 0 77.333 15.334 146 46.001c-6 36 -9 93.667 -9 173v139c-40 13.333 -74.333 20 -103 20c-54 0 -90.667 -15.333 -110 -46s-29 -80.334 -29 -149.001c0 -122 35 -183 105 -183z" />
    <glyph glyph-name="A" unicode="A" horiz-adv-x="596" 
d="M24 0l190 692h168l190 -692h-76l-50 178h-296l-50 -178h-76zM272 626l-105 -379h262l-105 379h-52z" />
    <glyph glyph-name="B" unicode="B" horiz-adv-x="616" 
d="M85 692l251 -0.00195312c68.667 0 120.167 -14.167 154.5 -42.5s51.5 -72.833 51.5 -133.5c0 -43.333 -7.5 -77.166 -22.5 -101.499s-37.167 -43.5 -66.5 -57.5c73.333 -25.333 110 -79.666 110 -162.999c0 -69.333 -18.333 -119 -55 -149s-89.667 -45 -159 -45h-264v692
zM341 317.998l-179.001 0.00195312v-250h184c45.333 0 79.833 9.5 103.5 28.5s35.5 52.5 35.5 100.5c0 25.333 -4.83301 46.666 -14.5 63.999s-22.5 29.666 -38.5 36.999c-29.333 13.333 -59.666 20 -90.999 20zM332.999 624h-171.001v-239h178
c42.667 0 73.834 10.167 93.501 30.5s29.5 51 29.5 92s-10.5 70.667 -31.5 89s-53.833 27.5 -98.5 27.5z" />
    <glyph glyph-name="C" unicode="C" horiz-adv-x="544" 
d="M503 11c-68.667 -14 -130.33 -21 -184.997 -21s-98.834 7.5 -132.501 22.5s-59.667 38.333 -78 70s-31 68 -38 109s-10.5 92.167 -10.5 153.5s3.5 112.833 10.5 154.5s19.667 78.5 38 110.5s44.166 55.333 77.499 70s76.666 22 129.999 22s116 -7.33301 188 -22l-3 -65
c-67.333 12 -127.333 18 -180 18c-73.333 0 -121.833 -21.833 -145.5 -65.5s-35.5 -118.167 -35.5 -223.5c0 -52.667 2.16699 -95 6.5 -127s12.833 -60.833 25.5 -86.5s31.167 -44 55.5 -55s60 -16.5 107 -16.5s102.5 6 166.5 18z" />
    <glyph glyph-name="D" unicode="D" horiz-adv-x="645" 
d="M332 0l-247.001 -0.000976562v692h247c112.667 0 187.334 -44.667 224.001 -134c21.333 -51.333 32 -118.666 32 -201.999c0 -174 -43.333 -283.667 -130 -329c-34.667 -18 -76.667 -27 -126 -27zM508.999 355.999c0 132.667 -29.667 215.333 -89 248
c-24 13.333 -53.333 20 -88 20h-170v-556h170c118 0 177 96 177 288z" />
    <glyph glyph-name="E" unicode="E" horiz-adv-x="553" 
d="M85 0v692h421v-68h-344v-239h284v-67h-284v-250h344v-68h-421z" />
    <glyph glyph-name="F" unicode="F" horiz-adv-x="526" 
d="M85 0v692h414v-68h-337v-270h285v-68h-285v-286h-77z" />
    <glyph glyph-name="G" unicode="G" horiz-adv-x="616" 
d="M359 285l0.000976562 69h191v-340c-84 -16 -159 -24 -225 -24c-100.667 0 -170.5 29 -209.5 87s-58.5 147.5 -58.5 268.5s19.5 210.667 58.5 269s108.167 87.5 207.5 87.5c62 0 126.333 -6.66699 193 -20l34 -6l-3 -64c-82.667 14 -154.334 21 -215.001 21
c-76.667 0 -128.334 -22.167 -155.001 -66.5s-40 -118 -40 -221s13.333 -176.667 40 -221s78 -66.5 154 -66.5c46.667 0 94.334 4.66699 143.001 14v213h-115z" />
    <glyph glyph-name="H" unicode="H" horiz-adv-x="675" 
d="M514 0v313h-352v-313h-77v692h77v-310h352v310h76v-692h-76z" />
    <glyph glyph-name="I" unicode="I" horiz-adv-x="246" 
d="M85 0v692h77v-692h-77z" />
    <glyph glyph-name="J" unicode="J" horiz-adv-x="289" 
d="M18 -72l-0.000976562 69c48 0 78.833 5.83301 92.5 17.5s20.5 42.167 20.5 91.5v586h76l1 -597c0 -56 -9.33301 -97 -28 -123c-15.333 -22 -45.666 -35.667 -90.999 -41c-18 -2 -41.667 -3 -71 -3z" />
    <glyph glyph-name="K" unicode="K" horiz-adv-x="569" 
d="M162 0h-77v692h77v-322l114 4l177 318h88l-198 -348l209 -344h-91l-184 306l-115 -4v-302z" />
    <glyph glyph-name="L" unicode="L" horiz-adv-x="479" 
d="M466 0h-381v692h77v-623h304v-69z" />
    <glyph glyph-name="M" unicode="M" horiz-adv-x="840" 
d="M85 0v692h139l196 -585l196 585h139v-692h-77v610h-14l-201 -585h-86l-201 585h-14v-610h-77z" />
    <glyph glyph-name="N" unicode="N" horiz-adv-x="676" 
d="M85 0v692h144l265 -624h21v624h76v-692h-141l-269 624h-19v-624h-77z" />
    <glyph glyph-name="O" unicode="O" horiz-adv-x="660" 
d="M176 124.5c26.667 -44.333 78.168 -66.502 154.501 -66.502s127.666 21.667 153.999 65s39.5 116 39.5 218s-13.667 176.333 -41 223s-78.5 70 -153.5 70s-126 -23.167 -153 -69.5s-40.5 -120.166 -40.5 -221.499s13.333 -174.166 40 -218.499zM545.001 72.998
c-39.333 -55.333 -110.833 -83.002 -214.5 -83.002s-175.167 28.333 -214.5 85s-59 145.834 -59 267.501s20 212 60 271s111 88.5 213 88.5s173.167 -29.333 213.5 -88s60.5 -149.667 60.5 -273s-19.667 -212.666 -59 -267.999z" />
    <glyph glyph-name="P" unicode="P" horiz-adv-x="593" 
d="M338 233h-176v-233h-77v692h253c75.333 0 131 -18.333 167 -55s54 -92.667 54 -168c0 -157.333 -73.667 -236 -221 -236zM162 301h175c95.333 0 143 56 143 168c0 53.333 -11.333 92.5 -34 117.5s-59 37.5 -109 37.5h-175v-323z" />
    <glyph glyph-name="Q" unicode="Q" horiz-adv-x="660" 
d="M330 -10c-103.333 0 -174.667 28.332 -214 84.999s-59 145.834 -59 267.501s20 212 60 271s111 88.5 213 88.5s173.167 -29.333 213.5 -88s60.5 -149 60.5 -271c0 -84.667 -8.66699 -152.5 -26 -203.5s-47 -88.833 -89 -113.5l85 -137l-72 -34l-88 144
c-22 -6 -50 -9 -84 -9zM175.999 124.499c26.667 -44.333 78.168 -66.502 154.501 -66.502s127.666 21.5 153.999 64.5s39.5 115.667 39.5 218s-13.667 176.833 -41 223.5s-78.5 70 -153.5 70s-126 -23.167 -153 -69.5s-40.5 -120.166 -40.5 -221.499
s13.333 -174.166 40 -218.499z" />
    <glyph glyph-name="R" unicode="R" horiz-adv-x="616" 
d="M162 265v-265h-77v692h256c73.333 0 128.5 -17 165.5 -51s55.5 -87 55.5 -159c0 -106.667 -42.333 -173.667 -127 -201l133 -281h-85l-125 265h-196zM342 333c94 0 141 48.5 141 145.5s-47.333 145.5 -142 145.5h-179v-291h180z" />
    <glyph glyph-name="S" unicode="S" horiz-adv-x="542" 
d="M276 635c-100 0 -149.998 -37.6641 -149.998 -112.997c0 -42 11.5 -70.833 34.5 -86.5s69.667 -31.334 140 -47.001s120.166 -36 149.499 -61s44 -66.167 44 -123.5c0 -142 -73.667 -213 -221 -213c-48.667 0 -109.667 5.66699 -183 17l-36 5l8 64
c90.667 -12 159.667 -18 207 -18c98.667 0 148 46.333 148 139c0 37.333 -10.833 64.166 -32.5 80.499s-62.167 30.166 -121.5 41.499c-78 16.667 -133.333 38.167 -166 64.5s-49 70.5 -49 132.5c0 124 74.333 186 223 186c48.667 0 107 -5 175 -15l34 -5l-7 -65
c-92.667 11.333 -158.334 17 -197.001 17z" />
    <glyph glyph-name="T" unicode="T" horiz-adv-x="526" 
d="M13 623v69h500v-69h-211v-623h-76v623h-213z" />
    <glyph glyph-name="U" unicode="U" horiz-adv-x="644" 
d="M157 208c0 -100 54 -150.001 162 -150.001c56 0 98.167 11.833 126.5 35.5s42.5 61.834 42.5 114.501v484h76v-482c0 -77.333 -20.5 -133.333 -61.5 -168s-101.5 -52 -181.5 -52s-140.167 17.333 -180.5 52s-60.5 90.667 -60.5 168v482h77v-484z" />
    <glyph glyph-name="V" unicode="V" horiz-adv-x="582" 
d="M478 692h80l-181 -692h-172l-181 692h80l159 -624h56z" />
    <glyph glyph-name="W" unicode="W" horiz-adv-x="886" 
d="M30 692h80l118 -624h29l141 618h90l141 -618h29l118 624h79l-140 -692h-141l-131 591l-131 -591h-141z" />
    <glyph glyph-name="X" unicode="X" horiz-adv-x="558" 
d="M106 692l175 -296l176 296h83l-213 -351l213 -341h-87l-174 287l-177 -287h-83l214 339l-214 353h87z" />
    <glyph glyph-name="Y" unicode="Y" horiz-adv-x="538" 
d="M308 0h-77v291l-221 401h87l172 -324l172 324h87l-220 -401v-291z" />
    <glyph glyph-name="Z" unicode="Z" horiz-adv-x="536" 
d="M43 624v68h450v-90l-362 -514v-20h362v-69h-450v89l361 514v22h-361z" />
    <glyph glyph-name="bracketleft" unicode="[" horiz-adv-x="329" 
d="M289 749v-67h-134v-738h134v-67h-210v872h210z" />
    <glyph glyph-name="backslash" unicode="\" horiz-adv-x="436" 
d="M405 14l-67 -28l-308 692l67 29z" />
    <glyph glyph-name="bracketright" unicode="]" horiz-adv-x="329" 
d="M40 682v67h210v-872h-210v67h134v738h-134z" />
    <glyph glyph-name="asciicircum" unicode="^" 
d="M421 319l-143 267l-140 -267h-80l185 341h67l191 -341h-80z" />
    <glyph glyph-name="underscore" unicode="_" horiz-adv-x="632" 
d="M102 -92h428v-66h-428v66z" />
    <glyph glyph-name="grave" unicode="`" horiz-adv-x="236" 
d="M25 740l216 -98l-21 -51l-221 85z" />
    <glyph glyph-name="a" unicode="a" horiz-adv-x="501" 
d="M425 349l-0.00195312 -255.999c2 -24.667 21.333 -39.334 58 -44.001l-3 -59c-52.667 0 -92.334 13.333 -119.001 40c-60 -26.667 -120 -40 -180 -40c-46 0 -81 13 -105 39s-36 63.333 -36 112s12.333 84.5 37 107.5s63.334 37.167 116.001 42.5l157 15v43
c0 34 -7.33301 58.333 -22 73s-34.667 22 -60 22c-53.333 0 -108.666 -3.33301 -165.999 -10l-31 -3l-3 57c73.333 14.667 138.333 22 195 22s97.834 -13 123.501 -39s38.5 -66.667 38.5 -122zM116.998 145.001c0 -61.333 25.333 -91.999 76 -91.999
c45.333 0 90 7.66699 134 23l23 8v165l-148 -14c-30 -2.66699 -51.667 -11.334 -65 -26.001s-20 -36 -20 -64z" />
    <glyph glyph-name="b" unicode="b" horiz-adv-x="526" 
d="M293 510c67.333 0 114.5 -19.167 141.5 -57.5s40.5 -105.5 40.5 -201.5s-16.833 -163.5 -50.5 -202.5s-95.5 -58.5 -185.5 -58.5c-28 0 -74.333 2.66699 -139 8l-28 3v717h74v-243c50.667 23.333 99.667 35 147 35zM238 57c65.333 0 108.502 14.832 129.502 44.499
s31.5 79.834 31.5 150.501s-8.33301 120.167 -25 148.5s-46.334 42.5 -89.001 42.5c-38.667 0 -78.334 -7.33301 -119.001 -22l-20 -7v-352c43.333 -3.33301 74 -5 92 -5z" />
    <glyph glyph-name="c" unicode="c" horiz-adv-x="436" 
d="M259 510c22 0 59.332 -4 111.999 -12l24 -3l-3 -61c-53.333 6 -92.666 9 -117.999 9c-56.667 0 -95.167 -13.5 -115.5 -40.5s-30.5 -77 -30.5 -150s9.5 -123.833 28.5 -152.5s58.5 -43 118.5 -43l118 9l3 -62c-62 -9.33301 -108.333 -14 -139 -14
c-78 0 -131.833 20 -161.5 60s-44.5 107.5 -44.5 202.5s16 161.667 48 200s85.333 57.5 160 57.5z" />
    <glyph glyph-name="d" unicode="d" horiz-adv-x="529" 
d="M456 718v-718h-74v34c-51.333 -29.333 -102 -44 -152 -44c-26.667 0 -50 3.33301 -70 10s-38.667 18.667 -56 36c-36 36 -54 102.5 -54 199.5s16.167 167 48.5 210s85.833 64.5 160.5 64.5c38.667 0 79.667 -4.33301 123 -13v221h74zM196 64
c12 -4.66699 27.501 -6.99902 46.501 -6.99902s40.333 3.16699 64 9.5s42.167 12.5 55.5 18.5l20 9v339c-42.667 8 -82.334 12 -119.001 12c-50.667 0 -86 -16.167 -106 -48.5s-30 -82.5 -30 -150.5c0 -77.333 11.667 -129.333 35 -156
c10.667 -12.667 22 -21.334 34 -26.001z" />
    <glyph glyph-name="e" unicode="e" horiz-adv-x="505" 
d="M412 62l29.001 3.00098l2 -59c-76 -10.667 -141 -16 -195 -16c-72 0 -123 20.833 -153 62.5s-45 106.5 -45 194.5c0 175.333 69.667 263 209 263c67.333 0 117.666 -18.833 150.999 -56.5s50 -96.834 50 -177.501l-4 -57h-330c0 -55.333 10 -96.333 30 -123
s54.833 -40 104.5 -40s100.167 2 151.5 6zM385.001 279.001c0 61.333 -9.83398 104.668 -29.501 130.001s-51.667 38 -96 38s-77.666 -13.333 -99.999 -40s-33.833 -69.334 -34.5 -128.001h260z" />
    <glyph glyph-name="f" unicode="f" horiz-adv-x="331" 
d="M168 435l-0.00195312 -435.001h-75v435h-63v65h63v45c0 70.667 10 118.834 30 144.501s55 38.5 105 38.5l101 -7l-1 -62c-37.333 1.33301 -68.166 2 -92.499 2s-41.666 -8 -51.999 -24s-15.5 -47 -15.5 -93v-44h145v-65h-145z" />
    <glyph glyph-name="g" unicode="g" horiz-adv-x="514" 
d="M265 -235c-80 0 -135.833 10.833 -167.5 32.5s-47.5 61.167 -47.5 118.5c0 27.333 6 49.5 18 66.5s32.333 36.167 61 57.5c-18.667 12.667 -28 35.667 -28 69c0 11.333 8.33301 32.333 25 63l9 16c-52.667 24 -79 74.333 -79 151c0 114 62.333 171 187 171
c32 0 61.667 -3.33301 89 -10l15 -3l148 4v-64l-95 2c22 -22 33 -55.333 33 -100c0 -62.667 -15.5 -106.5 -46.5 -131.5s-79.833 -37.5 -146.5 -37.5c-18 0 -34.333 1.33301 -49 4c-12 -29.333 -18 -48.333 -18 -57c0 -20.667 6.33301 -33.5 19 -38.5s51 -7.5 115 -7.5
s110 -10 138 -30s42 -59 42 -117c0 -106 -74 -159 -222 -159zM124 -78c0 -35.333 9.83398 -59.833 29.501 -73.5s56 -20.5 109 -20.5s91 7.33301 114 22s34.5 39.167 34.5 73.5s-8.33301 56.5 -25 66.5s-49.334 15 -98.001 15l-108 5c-22 -16 -36.833 -30 -44.5 -42
s-11.5 -27.333 -11.5 -46zM157.501 255c17.667 -16.667 46.834 -25.002 87.501 -25.002s69.667 8.33301 87 25s26 44.834 26 84.501s-8.66699 67.834 -26 84.501s-46.333 25 -87 25s-69.834 -8.5 -87.501 -25.5s-26.5 -45.167 -26.5 -84.5s8.83301 -67.333 26.5 -84z" />
    <glyph glyph-name="h" unicode="h" horiz-adv-x="537" 
d="M147 0h-74.999v718h75v-246c53.333 25.333 104.666 38 153.999 38c66.667 0 111.5 -18 134.5 -54s34.5 -100 34.5 -192v-264h-75v262c0 69.333 -6.83301 116.833 -20.5 142.5s-42.5 38.5 -86.5 38.5c-42 0 -82.667 -7.66699 -122 -23l-19 -7v-413z" />
    <glyph glyph-name="i" unicode="i" horiz-adv-x="219" 
d="M72 0v500h75v-500h-75zM72 613v87h75v-87h-75z" />
    <glyph glyph-name="j" unicode="j" horiz-adv-x="219" 
d="M73 13v487h74v-488c0 -61.333 -11 -107.333 -33 -138s-66.333 -63 -133 -97l-30 58c52 30 85.333 55.5 100 76.5s22 54.833 22 101.5zM73 613v87h74v-87h-74z" />
    <glyph glyph-name="k" unicode="k" horiz-adv-x="479" 
d="M147 0h-75v718h75v-424l78 4l143 202h85l-163 -230l170 -270h-85l-149 232l-79 -3v-229z" />
    <glyph glyph-name="l" unicode="l" horiz-adv-x="231" 
d="M78 0v718h75v-718h-75z" />
    <glyph glyph-name="m" unicode="m" horiz-adv-x="836" 
d="M147 0l-75.002 0.00195312v500h74v-35c50 30 98.667 45 146 45c62 0 105.333 -17 130 -51c22 13.333 50.5 25.166 85.5 35.499s65.833 15.5 92.5 15.5c66.667 0 111.5 -17.833 134.5 -53.5s34.5 -99.834 34.5 -192.501v-264h-75v262c0 69.333 -6.66699 116.833 -20 142.5
s-41.666 38.5 -84.999 38.5c-22 0 -44.667 -3.16699 -68 -9.5s-41.333 -12.5 -54 -18.5l-19 -9c8.66699 -22 13 -70.667 13 -146v-260h-75v258c0 72 -6.5 120.833 -19.5 146.5s-41.5 38.5 -85.5 38.5c-21.333 0 -43.166 -3.16699 -65.499 -9.5s-39.5 -12.5 -51.5 -18.5
l-17 -9v-406z" />
    <glyph glyph-name="n" unicode="n" horiz-adv-x="537" 
d="M147 0h-74.998v500h74v-35c54 30 105.667 45 155 45c66.667 0 111.5 -18 134.5 -54s34.5 -100 34.5 -192v-264h-74v262c0 69.333 -6.83301 116.833 -20.5 142.5s-42.834 38.5 -87.501 38.5c-21.333 0 -43.833 -3.16699 -67.5 -9.5s-41.834 -12.5 -54.501 -18.5l-19 -9
v-406z" />
    <glyph glyph-name="o" unicode="o" horiz-adv-x="528" 
d="M99 449c32.667 40.667 87.833 61 165.5 61s132.667 -20.333 165 -61s48.5 -106.667 48.5 -198s-15.333 -157.666 -46 -198.999s-86.667 -62 -168 -62s-137.333 20.667 -168 62s-46 107.666 -46 198.999s16.333 157.333 49 198zM153.499 99
c17.667 -29.333 54.667 -44 111 -44s93.166 14.5 110.499 43.5s26 80.167 26 153.5s-9.66699 123.833 -29 151.5s-55.166 41.5 -107.499 41.5s-88.333 -13.833 -108 -41.5s-29.5 -78 -29.5 -151s8.83301 -124.167 26.5 -153.5z" />
    <glyph glyph-name="p" unicode="p" horiz-adv-x="527" 
d="M72 -222v722h74v-36c50.667 30.667 100.667 46 150 46c63.333 0 109.333 -20.167 138 -60.5s43 -106.833 43 -199.5s-16.833 -159.167 -50.5 -199.5s-89.5 -60.5 -167.5 -60.5c-40.667 0 -78 3.66699 -112 11v-223h-75zM285 443c-20 0 -41.5 -3.33105 -64.5 -9.99805
s-41.167 -13.334 -54.5 -20.001l-19 -10v-337c47.333 -7.33301 83.333 -11 108 -11c54 0 91.833 15.333 113.5 46s32.5 80.667 32.5 150s-9.83301 118.666 -29.5 147.999s-48.5 44 -86.5 44z" />
    <glyph glyph-name="q" unicode="q" horiz-adv-x="526" 
d="M238 -10c-67.333 0 -115.5 19.667 -144.5 59s-43.5 106 -43.5 200s17.333 161 52 201s96 60 184 60l167 -10v-722h-74v245c-46.667 -22 -93.667 -33 -141 -33zM287 445c-62.667 0 -105.166 -15.668 -127.499 -47.001s-33.5 -81.166 -33.5 -149.499
s9.16699 -117.333 27.5 -147s49.166 -44.5 92.499 -44.5c38.667 0 77 7.33301 115 22l18 7v353c-41.333 4 -72 6 -92 6z" />
    <glyph glyph-name="r" unicode="r" horiz-adv-x="346" 
d="M72 0v499.999h74v-68c58 40 119 66.333 183 79v-76c-28 -5.33301 -57.167 -13.666 -87.5 -24.999s-53.5 -21.333 -69.5 -30l-25 -13v-367h-75z" />
    <glyph glyph-name="s" unicode="s" horiz-adv-x="465" 
d="M229 443c-72.667 0 -108.998 -25.332 -108.998 -75.999c0 -23.333 8.33301 -39.833 25 -49.5s54.667 -19.667 114 -30s101.333 -24.833 126 -43.5s37 -53.667 37 -105s-16.5 -89 -49.5 -113s-81.167 -36 -144.5 -36c-41.333 0 -90 4.66699 -146 14l-30 5l4 65
c76 -11.333 133.333 -17 172 -17s68.167 6.16699 88.5 18.5s30.5 33 30.5 62s-8.66699 48.667 -26 59s-55.333 20.166 -114 29.499s-100.334 23 -125.001 41s-37 51.333 -37 100s17.167 84.667 51.5 108s77.166 35 128.499 35c40.667 0 91.667 -4.66699 153 -14l28 -5
l-2 -64c-74 10.667 -132.333 16 -175 16z" />
    <glyph glyph-name="t" unicode="t" horiz-adv-x="351" 
d="M331 435l-158.999 0.000976562v-239c0 -57.333 4.16699 -95 12.5 -113s28.166 -27 59.499 -27l89 6l5 -62c-44.667 -7.33301 -78.667 -11 -102 -11c-52 0 -88 12.667 -108 38s-30 73.666 -30 144.999v263h-71v65h71v153h74v-153h159v-65z" />
    <glyph glyph-name="u" unicode="u" horiz-adv-x="531" 
d="M384 500l74.999 0.00195312v-500h-75v35c-50 -30 -99.333 -45 -148 -45c-68 0 -113.167 17.667 -135.5 53s-33.5 100.666 -33.5 195.999v261h75v-260c0 -72.667 6.33301 -121.334 19 -146.001s41.334 -37 86.001 -37c22 0 44.333 3.16699 67 9.5s40 12.5 52 18.5l18 9
v406z" />
    <glyph glyph-name="v" unicode="v" horiz-adv-x="481" 
d="M25 500h80l117 -435h37l121 435h77l-141 -500h-150z" />
    <glyph glyph-name="w" unicode="w" horiz-adv-x="762" 
d="M31 500h75l101 -435h16l119 425h78l119 -425h17l100 435h75l-119 -500h-125l-106 391l-106 -391h-125z" />
    <glyph glyph-name="x" unicode="x" horiz-adv-x="452" 
d="M22 500h82l122 -196l122 196h82l-159 -248l158 -252h-82l-121 195l-122 -195h-82l157 250z" />
    <glyph glyph-name="y" unicode="y" horiz-adv-x="483" 
d="M25 500h75l125 -435h33l126 435h75l-208 -722h-75l65 222h-74z" />
    <glyph glyph-name="z" unicode="z" horiz-adv-x="455" 
d="M42 433v67h371v-67l-280 -366h280v-67h-371v67l280 366h-280z" />
    <glyph glyph-name="braceleft" unicode="{" horiz-adv-x="352" 
d="M197 575l6.99707 -123.006c0 -42.667 -7.16699 -73.667 -21.5 -93s-42.166 -35 -83.499 -47c40.667 -12 68.334 -28.167 83.001 -48.5s22 -51.5 22 -93.5l-7 -116c0 -37.333 8.16699 -65.5 24.5 -84.5s46.5 -29.833 90.5 -32.5l-2 -65
c-67.333 2.66699 -115.166 17.5 -143.499 44.5s-42.5 70.5 -42.5 130.5l7 122c0 28.667 -8.33301 51.834 -25 69.501s-44 31.834 -82 42.501v61c38 8.66699 65.333 21.834 82 39.501s25 40.834 25 69.501l-7 128c0 61.333 14.167 105.333 42.5 132s76.5 41.334 144.5 44.001
l1 -65c-44 -2.66699 -74.167 -13.167 -90.5 -31.5s-24.5 -46.166 -24.5 -83.499z" />
    <glyph glyph-name="bar" unicode="|" horiz-adv-x="230" 
d="M78 -222v940h74v-940h-74z" />
    <glyph glyph-name="braceright" unicode="}" horiz-adv-x="352" 
d="M155 54l-7.00293 116.006c0 42 7.33301 73.167 22 93.5s42.334 36.5 83.001 48.5c-41.333 12 -69.166 27.667 -83.499 47s-21.5 50.333 -21.5 93l7 123c0 37.333 -8.16699 65.166 -24.5 83.499s-46.5 28.833 -90.5 31.5l1 65c68 -2.66699 116.167 -17.334 144.5 -44.001
s42.5 -70.667 42.5 -132l-7 -128c0 -28.667 8.33301 -51.834 25 -69.501s44 -30.834 82 -39.501v-61c-38 -10.667 -65.333 -24.834 -82 -42.501s-25 -40.834 -25 -69.501l7 -122c0 -60 -14.167 -103.5 -42.5 -130.5s-76.166 -41.833 -143.499 -44.5l-2 65
c44 2.66699 74.167 13.5 90.5 32.5s24.5 47.167 24.5 84.5z" />
    <glyph glyph-name="asciitilde" unicode="~" 
d="M379 195c-18 0 -52.1699 10.333 -102.503 31s-81.666 31 -93.999 31s-27.166 -3.83301 -44.499 -11.5s-31.666 -15.5 -42.999 -23.5l-17 -12l-11 62c41.333 35.333 80 53 116 53c19.333 0 53.833 -10.167 103.5 -30.5s80.834 -30.5 93.501 -30.5
c23.333 0 52.666 11.333 87.999 34l17 12l10 -61c-42 -36 -80.667 -54 -116 -54z" />
    <glyph glyph-name="uni00A0" unicode="&#xa0;" horiz-adv-x="220" 
 />
    <glyph glyph-name="exclamdown" unicode="&#xa1;" horiz-adv-x="228" 
d="M154 500v-112h-82v112h82zM148 272l5 -464h-79l5 464h69z" />
    <glyph glyph-name="cent" unicode="&#xa2;" 
d="M278 -81v117.002c-62 3.33301 -107 20.666 -135 51.999s-42 84 -42 158s14.5 128.167 43.5 162.5s73.5 53.166 133.5 56.499v118h65v-121c26 0 54.333 -3 85 -9l16 -3l-3 -60c-52.667 4.66699 -95.667 7 -129 7c-49.333 0 -83.833 -11.167 -103.5 -33.5
s-29.5 -60.833 -29.5 -115.5s9.83301 -92.5 29.5 -113.5s56.167 -31.5 109.5 -31.5l124 7l3 -61c-40 -6 -74 -9.66699 -102 -11v-119h-65z" />
    <glyph glyph-name="sterling" unicode="&#xa3;" 
d="M445 592c-53.333 7.33301 -95.5 11 -126.5 11s-52.167 -9.33301 -63.5 -28s-17 -54.667 -17 -108v-50h171v-65h-171v-286h154l77 16l13 -64l-82 -18h-320v66h85v286h-67v65h67v55c0 78 11.167 130.5 33.5 157.5s60.5 40.5 114.5 40.5c34.667 0 71.667 -4 111 -12l22 -5z
" />
    <glyph glyph-name="currency" unicode="&#xa4;" 
d="M379 101c-30.667 -20 -64 -29.999 -100 -29.999s-68.667 10 -98 30l-70 -71l-53 53l70 70c-19.333 30 -29 62.667 -29 98s9.66699 68.666 29 99.999l-70 70l53 53l70 -71c29.333 20 62 30 98 30s69.333 -10 100 -30l70 71l53 -53l-71 -70c20 -30.667 30 -64 30 -100
s-10 -68.667 -30 -98l71 -70l-53 -53zM280 137.001c31.333 0 58.333 11.333 81 34s34 49.667 34 81s-11.333 58.333 -34 81s-49.667 34 -81 34s-58.333 -11.333 -81 -34s-34 -49.667 -34 -81s11.333 -58.333 34 -81s49.667 -34 81 -34z" />
    <glyph glyph-name="yen" unicode="&#xa5;" 
d="M57 315v65h140l-174 280h86l172 -270l170 270h86l-171 -280h136v-65h-174l-8 -19v-68h183v-65h-183v-163h-77v163h-185v65h185v68l-8 19h-178z" />
    <glyph glyph-name="brokenbar" unicode="&#xa6;" horiz-adv-x="234" 
d="M80 718h74v-374h-74v374zM80 156h74v-378h-74v378z" />
    <glyph glyph-name="section" unicode="&#xa7;" horiz-adv-x="499" 
d="M418 571c-72.667 10 -127.669 14.998 -165.002 14.998s-65.666 -7.33301 -84.999 -22s-29 -38 -29 -70s10.167 -54.167 30.5 -66.5s58.833 -23.833 115.5 -34.5s97.167 -25.667 121.5 -45s36.5 -51.833 36.5 -97.5s-14.667 -89.834 -44 -132.501
c24.667 -21.333 37 -54.666 37 -99.999c0 -112 -63.667 -168 -191 -168c-42.667 0 -91 4 -145 12l-30 5l7 63c72.667 -10 127.334 -15 164.001 -15c82 0 123 33 123 99c0 30 -9.66699 50.167 -29 60.5s-58.333 21 -117 32s-101 26.833 -127 47.5s-39 54.334 -39 101.001
c0 26 7 51.333 21 76s26.333 41.334 37 50.001c-29.333 21.333 -44 58.333 -44 111c0 106 64 159 192 159c34 0 80 -4.33301 138 -13l26 -4zM159.998 353.998c-22 -36.667 -33 -67.833 -33 -93.5s8.33301 -44.834 25 -57.501s47.5 -23.167 92.5 -31.5
s77.5 -16.833 97.5 -25.5c3.33301 4.66699 8.33301 16.834 15 36.501s10 41.5 10 65.5s-8.5 42 -25.5 54s-47 21.833 -90 29.5s-73.5 15.167 -91.5 22.5z" />
    <glyph glyph-name="dieresis" unicode="&#xa8;" horiz-adv-x="236" 
d="M-12 621v90h72v-90h-72zM188 621v90h73v-90h-73z" />
    <glyph glyph-name="copyright" unicode="&#xa9;" horiz-adv-x="645" 
d="M134.5 240c-50.333 52.667 -75.5 117.5 -75.5 194.5s25 141.667 75 194s113 78.5 189 78.5s138.833 -26.5 188.5 -79.5s74.5 -117.833 74.5 -194.5s-24.667 -141.167 -74 -193.5s-112 -78.5 -188 -78.5s-139.167 26.333 -189.5 79zM103 434
c0 -64 20.832 -118.167 62.499 -162.5s93.834 -66.5 156.501 -66.5s115 22.167 157 66.5s63 98.5 63 162.5s-21 118.333 -63 163s-94.167 67 -156.5 67s-114.5 -22.333 -156.5 -67s-63 -99 -63 -163zM325.999 276c-43.333 0 -73.666 12.5 -90.999 37.5s-26 65 -26 120
s8.83301 95 26.5 120s48.167 37.5 91.5 37.5c24.667 0 47 -2.33301 67 -7l10 -3l-4 -53c-25.333 4 -49.5 6 -72.5 6s-38.333 -7.5 -46 -22.5s-11.5 -40.333 -11.5 -76s4.16699 -61.667 12.5 -78s24.166 -24.5 47.499 -24.5l70 7l4 -52c-24.667 -8 -50.667 -12 -78 -12z" />
    <glyph glyph-name="ordfeminine" unicode="&#xaa;" horiz-adv-x="386" 
d="M302 560l0.00195312 -136.999c6 -7.33301 16 -13 30 -17l-2 -49c-25.333 0 -43.333 2 -54 6s-20.334 10.667 -29.001 20c-36.667 -17.333 -70.334 -26 -101.001 -26s-53.667 8.33301 -69 25s-23 39 -23 67c0 53.333 32 82 96 86l88 6v22c0 14.667 -4 25 -12 31
s-20.333 9 -37 9l-115 -7l-2 48c46 10 87 15 123 15s62.833 -7.33301 80.5 -22s26.5 -40.334 26.5 -77.001zM120.002 450.001c0 -26 12.001 -39 36.001 -39c19.333 0 42.666 4.33301 69.999 13l12 4v67l-77 -5c-14.667 -1.33301 -25.167 -5 -31.5 -11s-9.5 -15.667 -9.5 -29
z" />
    <glyph glyph-name="guillemotleft" unicode="&#xab;" horiz-adv-x="539" 
d="M234 344l-124 -94l124 -105v-78l-189 151v60l189 143v-77zM472 344l-125 -94l125 -105v-78l-190 151v60l190 143v-77z" />
    <glyph glyph-name="logicalnot" unicode="&#xac;" 
d="M65 342h428v-225h-70v157h-358v68z" />
    <glyph glyph-name="registered" unicode="&#xae;" horiz-adv-x="645" 
d="M134.5 240c-50.333 52.667 -75.5 117.5 -75.5 194.5s25 141.667 75 194s113 78.5 189 78.5s138.833 -26.333 188.5 -79s74.5 -117.5 74.5 -194.5s-24.667 -141.667 -74 -194s-112 -78.5 -188 -78.5s-139.167 26.333 -189.5 79zM166 597
c-42 -44.667 -63 -98.832 -63 -162.499s21 -117.834 63 -162.501s94.167 -67 156.5 -67s114.5 22.167 156.5 66.5s63 98.5 63 162.5s-21 118.333 -63 163s-94.167 67 -156.5 67s-114.5 -22.333 -156.5 -67zM271 389.002l0.000976562 -107.001h-58v303h110
c38 0 66.5 -7.33301 85.5 -22s28.5 -36.667 28.5 -66s-3.83301 -51.166 -11.5 -65.499s-20.834 -25.833 -39.501 -34.5l55 -115h-61l-50 107h-59zM270.001 538.001v-102h59c18 0 31 4 39 12s12 21 12 39c0 34 -20.667 51 -62 51h-48z" />
    <glyph glyph-name="macron" unicode="&#xaf;" horiz-adv-x="236" 
d="M-14 624v59h275v-59h-275z" />
    <glyph glyph-name="degree" unicode="&#xb0;" 
d="M138 561c0 42 13.167 76 39.5 102s60.5 39 102.5 39s76.167 -13 102.5 -39s39.5 -60 39.5 -102s-13.167 -76 -39.5 -102s-60.5 -39 -102.5 -39s-76.167 13 -102.5 39s-39.5 60 -39.5 102zM214 628c-16.667 -17.333 -25 -39.833 -25 -67.5s8.33301 -50 25 -67
s38.667 -25.5 66 -25.5s49.666 8.5 66.999 25.5s26 39.333 26 67s-8.66699 50.167 -26 67.5s-39.666 26 -66.999 26s-49.333 -8.66699 -66 -26z" />
    <glyph glyph-name="plusminus" unicode="&#xb1;" 
d="M55 293v68h189v126h70v-126h191v-68h-191v-127h-70v127h-189zM55 106h450v-68h-450v68z" />
    <glyph glyph-name="twosuperior" unicode="&#xb2;" horiz-adv-x="280" 
d="M239 478l-209 -0.000976562v55l88 87c34 32.667 51 60.334 51 83.001c0 24.667 -16.333 37 -49 37l-85 -9l-2 57c39.333 8 75 12 107 12c63.333 0 95 -30.333 95 -91c0 -22 -4.66699 -41.167 -14 -57.5s-25 -34.5 -47 -54.5l-63 -61h128v-58z" />
    <glyph glyph-name="threesuperior" unicode="&#xb3;" horiz-adv-x="280" 
d="M136 800c70 0 105.001 -28 105.001 -84c0 -34 -13 -58.333 -39 -73c16 -5.33301 27.833 -13.5 35.5 -24.5s11.5 -28.833 11.5 -53.5c0 -64.667 -35.333 -97 -106 -97c-28.667 0 -60.334 2.66699 -95.001 8l-18 2l4 56c38 -5.33301 72.5 -8 103.5 -8
s46.5 14.167 46.5 42.5s-15.667 42.5 -47 42.5h-65v53h65c9.33301 0 18 4.33301 26 13s12 19 12 31c0 22.667 -15 34 -45 34l-92 -7l-4 55c39.333 6.66699 73.333 10 102 10z" />
    <glyph glyph-name="acute" unicode="&#xb4;" horiz-adv-x="268" 
d="M26 642l216 98l26 -64l-221 -85z" />
    <glyph glyph-name="mu" unicode="&#xb5;" 
d="M401 500l74.999 0.000976562v-500h-75v35c-50 -30 -96.833 -45 -140.5 -45s-77.5 5.66699 -101.5 17v-229h-75v722h75v-260c0 -72.667 6.33301 -121.334 19 -146.001s41.334 -37 86.001 -37c22 0 44.333 3.16699 67 9.5s40 12.5 52 18.5l18 9v406z" />
    <glyph glyph-name="paragraph" unicode="&#xb6;" horiz-adv-x="593" 
d="M411 0v627h-116v-627h-67v324h-7c-54 0 -98.5 17 -133.5 51s-52.5 78 -52.5 132s17.667 98.333 53 133s80 52 134 52h329v-65h-72v-627h-68z" />
    <glyph glyph-name="periodcentered" unicode="&#xb7;" horiz-adv-x="217" 
d="M68 229v114h82v-114h-82z" />
    <glyph glyph-name="cedilla" unicode="&#xb8;" horiz-adv-x="263" 
d="M221 -127c0 -60 -30.998 -89.999 -92.998 -89.999c-30.667 0 -55.334 1.66699 -74.001 5l-12 2l3 48c26 -2 48 -3 66 -3c29.333 0 44 12.667 44 38c0 22.667 -14.667 34 -44 34h-42v94h41v-50c39.333 0 67.666 -5.33301 84.999 -16s26 -31.334 26 -62.001z" />
    <glyph glyph-name="onesuperior" unicode="&#xb9;" horiz-adv-x="280" 
d="M193 790v-312h-64v242l-68 -47l-29 47l101 70h60z" />
    <glyph glyph-name="ordmasculine" unicode="&#xba;" horiz-adv-x="380" 
d="M87.5 623c23 24 57.333 36 103 36s79.667 -12 102 -36s33.5 -61.667 33.5 -113c0 -102 -45 -153 -135 -153c-92 0 -138 51 -138 153c0 51.333 11.5 89 34.5 113zM137.5 439.5c10.333 -14.333 28 -21.502 53 -21.502s42.333 7.16699 52 21.5s14.5 37.833 14.5 70.5
s-4.83301 55.5 -14.5 68.5s-27 19.5 -52 19.5s-42.667 -6.66699 -53 -20s-15.5 -36.166 -15.5 -68.499s5.16699 -55.666 15.5 -69.999z" />
    <glyph glyph-name="guillemotright" unicode="&#xbb;" horiz-adv-x="539" 
d="M429 250l-125 94v77l190 -143v-60l-190 -151v78zM192 250l-125 94v77l189 -143v-60l-189 -151v78z" />
    <glyph glyph-name="onequarter" unicode="&#xbc;" horiz-adv-x="534" 
d="M198 790v-312h-64v242l-68 -47l-29 47l101 70h60zM35 28l392 632l40 -26l-393 -631zM412 -100v48h-141v54l69 210h70l-73 -206h75l5 89h58v-89h27v-58h-27v-48h-63z" />
    <glyph glyph-name="onehalf" unicode="&#xbd;" horiz-adv-x="529" 
d="M202 790v-312h-64v242l-68 -47l-29 47l101 70h60zM33 28l392 632l40 -26l-393 -631zM486 -100l-208.999 -0.000976562v55l88 87c34 32.667 51 60.334 51 83.001c0 24.667 -16.333 37 -49 37l-85 -9l-2 57c39.333 8 74.666 12 105.999 12c64 0 96 -30.333 96 -91
c0 -22 -4.66699 -41.167 -14 -57.5s-25 -34.5 -47 -54.5l-63 -61h128v-58z" />
    <glyph glyph-name="threequarters" unicode="&#xbe;" horiz-adv-x="550" 
d="M155 800c70 0 105 -28 105 -84c0 -34 -13 -58.333 -39 -73c16 -5.33301 27.833 -13.5 35.5 -24.5s11.5 -28.833 11.5 -53.5c0 -64.667 -35.333 -97 -106 -97c-28.667 0 -60.667 2.66699 -96 8l-17 2l4 56c38 -5.33301 72.5 -8 103.5 -8s46.5 14.167 46.5 42.5
s-15.667 42.5 -47 42.5h-65v53h65c9.33301 0 18 4.33301 26 13s12 19 12 31c0 22.667 -15 34 -45 34l-92 -7l-4 55c39.333 6.66699 73.333 10 102 10zM52 28l392 632l40 -26l-393 -631zM429 -100v48h-141v54l69 210h70l-73 -206h75l5 89h58v-89h27v-58h-27v-48h-63z" />
    <glyph glyph-name="questiondown" unicode="&#xbf;" horiz-adv-x="441" 
d="M38 -41c0 43.333 5.83203 76.166 17.499 98.499s35.334 48.333 71.001 78s60.167 53.334 73.5 71.001s20 37.167 20 58.5v35h63c8.66699 -18 13 -38.333 13 -61s-7.66699 -43.834 -23 -63.501s-40 -44.167 -74 -73.5s-56.667 -52.666 -68 -69.999s-17 -41.5 -17 -72.5
s10.667 -54.167 32 -69.5s55 -23 101 -23c35.333 0 78.333 5.66699 129 17l26 6l5 -61c-67.333 -20 -123 -30 -167 -30c-68.667 0 -119.5 12.5 -152.5 37.5s-49.5 65.833 -49.5 122.5zM293.999 500v-112h-82v112h82z" />
    <glyph glyph-name="Agrave" unicode="&#xc0;" horiz-adv-x="596" 
d="M24 0l190 692h168l190 -692h-76l-50 178h-296l-50 -178h-76zM272 626l-105 -379h262l-105 379h-52zM189 931l216 -100l-23 -53l-219 87z" />
    <glyph glyph-name="Aacute" unicode="&#xc1;" horiz-adv-x="596" 
d="M24 0l190 692h168l190 -692h-76l-50 178h-296l-50 -178h-76zM272 626l-105 -379h262l-105 379h-52zM186 831l216 100l26 -66l-219 -87z" />
    <glyph glyph-name="Acircumflex" unicode="&#xc2;" horiz-adv-x="596" 
d="M24 0l190 692h168l190 -692h-76l-50 178h-296l-50 -178h-76zM272 626l-105 -379h262l-105 379h-52zM130 791l134 135h65l134 -135h-84l-82 80l-83 -80h-84z" />
    <glyph glyph-name="Atilde" unicode="&#xc3;" horiz-adv-x="596" 
d="M24 0l190 692h168l190 -692h-76l-50 178h-296l-50 -178h-76zM272 626l-105 -379h262l-105 379h-52zM374 803c-14 0 -41.667 9 -83 27s-66.333 27 -75 27c-14.667 0 -35 -12 -61 -36l-13 -12l-17 56c12.667 14.667 27.667 28 45 40s33.666 18 48.999 18s43.333 -9 84 -27
s64.334 -27 71.001 -27c13.333 0 32.666 11.667 57.999 35l12 11l18 -56c-31.333 -37.333 -60.666 -56 -87.999 -56z" />
    <glyph glyph-name="Adieresis" unicode="&#xc4;" horiz-adv-x="596" 
d="M24 0l190 692h168l190 -692h-76l-50 178h-296l-50 -178h-76zM272 626l-105 -379h262l-105 379h-52zM159 808v90h73v-90h-73zM363 808v90h72v-90h-72z" />
    <glyph glyph-name="Aring" unicode="&#xc5;" horiz-adv-x="596" 
d="M382 821c22 -18.667 33 -43.333 33 -74s-9.33301 -56 -28 -76l185 -671h-76l-50 178h-296l-50 -178h-76l184 669c-20 18.667 -30 44 -30 76s11.167 57.333 33.5 76s50.833 28 85.5 28s63 -9.33301 85 -28zM272 626.001l-105 -379h262l-105 379h-52zM235 744.001
c0 -29.333 14.333 -46.666 43 -51.999h37c29.333 5.33301 44 22.666 44 51.999c0 16.667 -5.5 29.667 -16.5 39s-26.167 14 -45.5 14c-41.333 0 -62 -17.667 -62 -53z" />
    <glyph glyph-name="AE" unicode="&#xc6;" horiz-adv-x="876" 
d="M408 0v175h-251l-58 -175h-79l224 696h585v-73h-345v-230h285v-73h-285v-247h345v-73h-421zM300 623l-122 -374h230l1 374h-109z" />
    <glyph glyph-name="Ccedilla" unicode="&#xc7;" horiz-adv-x="544" 
d="M433 -127c0 -60 -30.9971 -89.999 -92.9971 -89.999c-30.667 0 -55.334 1.66699 -74.001 5l-12 2l3 48c26 -2 48 -3 66 -3c29.333 0 44 12.667 44 38c0 22.667 -14.667 34 -44 34h-42v84c-86 6 -144.5 37.167 -175.5 93.5s-46.5 142.833 -46.5 259.5
c0 62 3.5 113.833 10.5 155.5s19.667 78.5 38 110.5s44.166 55.333 77.499 70s76.666 22 129.999 22s116 -7.33301 188 -22l-3 -65c-67.333 12 -127.333 18 -180 18c-73.333 0 -121.833 -21.833 -145.5 -65.5s-35.5 -118.167 -35.5 -223.5c0 -52.667 2.16699 -95 6.5 -127
s12.833 -60.833 25.5 -86.5s31.167 -44 55.5 -55s60 -16.5 107 -16.5s102.5 6 166.5 18l3 -66c-61.333 -13.333 -121.666 -20.333 -180.999 -21v-39c39.333 0 67.666 -5.33301 84.999 -16s26 -31.334 26 -62.001z" />
    <glyph glyph-name="Egrave" unicode="&#xc8;" horiz-adv-x="553" 
d="M85 0v692h421v-68h-344v-239h284v-67h-284v-250h344v-68h-421zM195 931l216 -100l-23 -53l-219 87z" />
    <glyph glyph-name="Eacute" unicode="&#xc9;" horiz-adv-x="553" 
d="M85 0v692h421v-68h-344v-239h284v-67h-284v-250h344v-68h-421zM176 831l216 100l26 -66l-219 -87z" />
    <glyph glyph-name="Ecircumflex" unicode="&#xca;" horiz-adv-x="553" 
d="M85 0v692h421v-68h-344v-239h284v-67h-284v-250h344v-68h-421zM127 791l134 135h65l134 -135h-84l-82 80l-83 -80h-84z" />
    <glyph glyph-name="Edieresis" unicode="&#xcb;" horiz-adv-x="553" 
d="M85 0v692h421v-68h-344v-239h284v-67h-284v-250h344v-68h-421zM157 808v90h73v-90h-73zM361 808v90h72v-90h-72z" />
    <glyph glyph-name="Igrave" unicode="&#xcc;" horiz-adv-x="246" 
d="M85 0v692h77v-692h-77zM6 931l216 -100l-23 -53l-219 87z" />
    <glyph glyph-name="Iacute" unicode="&#xcd;" horiz-adv-x="246" 
d="M85 0v692h77v-692h-77zM13 831l216 100l26 -66l-219 -87z" />
    <glyph glyph-name="Icircumflex" unicode="&#xce;" horiz-adv-x="246" 
d="M85 0v692h77v-692h-77zM-47 791l134 135h65l134 -135h-84l-82 80l-83 -80h-84z" />
    <glyph glyph-name="Idieresis" unicode="&#xcf;" horiz-adv-x="246" 
d="M85 0v692h77v-692h-77zM-15 808v90h73v-90h-73zM189 808v90h72v-90h-72z" />
    <glyph glyph-name="Eth" unicode="&#xd0;" horiz-adv-x="647" 
d="M20 311v73h68v312h247c94 0 160.167 -29.333 198.5 -88s57.5 -141.667 57.5 -249c0 -174.667 -43.667 -285 -131 -331c-34 -18.667 -75.667 -28 -125 -28h-247v311h-68zM511 359c0 129.333 -29.667 210.667 -89 244c-23.333 13.333 -52.333 20 -87 20h-171v-239h158v-73
h-158v-238h171c117.333 0 176 95.333 176 286z" />
    <glyph glyph-name="Ntilde" unicode="&#xd1;" horiz-adv-x="676" 
d="M85 0v692h144l265 -624h21v624h76v-692h-141l-269 624h-19v-624h-77zM416 803c-14 0 -41.667 9 -83 27s-66.333 27 -75 27c-14.667 0 -35 -12 -61 -36l-13 -12l-17 56c12.667 14.667 27.667 28 45 40s33.666 18 48.999 18s43.333 -9 84 -27s64.334 -27 71.001 -27
c13.333 0 32.666 11.667 57.999 35l12 11l18 -56c-31.333 -37.333 -60.666 -56 -87.999 -56z" />
    <glyph glyph-name="Ograve" unicode="&#xd2;" horiz-adv-x="660" 
d="M176 124.5c26.667 -44.333 78.168 -66.502 154.501 -66.502s127.666 21.667 153.999 65s39.5 116 39.5 218s-13.667 176.333 -41 223s-78.5 70 -153.5 70s-126 -23.167 -153 -69.5s-40.5 -120.166 -40.5 -221.499s13.333 -174.166 40 -218.499zM545.001 72.998
c-39.333 -55.333 -110.833 -83.002 -214.5 -83.002s-175.167 28.333 -214.5 85s-59 145.834 -59 267.501s20 212 60 271s111 88.5 213 88.5s173.167 -29.333 213.5 -88s60.5 -149.667 60.5 -273s-19.667 -212.666 -59 -267.999zM227.001 930.996l216 -100l-23 -53l-219 87z
" />
    <glyph glyph-name="Oacute" unicode="&#xd3;" horiz-adv-x="660" 
d="M176 124.5c26.667 -44.333 78.168 -66.502 154.501 -66.502s127.666 21.667 153.999 65s39.5 116 39.5 218s-13.667 176.333 -41 223s-78.5 70 -153.5 70s-126 -23.167 -153 -69.5s-40.5 -120.166 -40.5 -221.499s13.333 -174.166 40 -218.499zM545.001 72.998
c-39.333 -55.333 -110.833 -83.002 -214.5 -83.002s-175.167 28.333 -214.5 85s-59 145.834 -59 267.501s20 212 60 271s111 88.5 213 88.5s173.167 -29.333 213.5 -88s60.5 -149.667 60.5 -273s-19.667 -212.666 -59 -267.999zM198.001 830.996l216 100l26 -66l-219 -87z
" />
    <glyph glyph-name="Ocircumflex" unicode="&#xd4;" horiz-adv-x="660" 
d="M176 124.5c26.667 -44.333 78.168 -66.502 154.501 -66.502s127.666 21.667 153.999 65s39.5 116 39.5 218s-13.667 176.333 -41 223s-78.5 70 -153.5 70s-126 -23.167 -153 -69.5s-40.5 -120.166 -40.5 -221.499s13.333 -174.166 40 -218.499zM545.001 72.998
c-39.333 -55.333 -110.833 -83.002 -214.5 -83.002s-175.167 28.333 -214.5 85s-59 145.834 -59 267.501s20 212 60 271s111 88.5 213 88.5s173.167 -29.333 213.5 -88s60.5 -149.667 60.5 -273s-19.667 -212.666 -59 -267.999zM164.001 790.996l134 135h65l134 -135h-84
l-82 80l-83 -80h-84z" />
    <glyph glyph-name="Otilde" unicode="&#xd5;" horiz-adv-x="660" 
d="M176 124.5c26.667 -44.333 78.168 -66.502 154.501 -66.502s127.666 21.667 153.999 65s39.5 116 39.5 218s-13.667 176.333 -41 223s-78.5 70 -153.5 70s-126 -23.167 -153 -69.5s-40.5 -120.166 -40.5 -221.499s13.333 -174.166 40 -218.499zM545.001 72.998
c-39.333 -55.333 -110.833 -83.002 -214.5 -83.002s-175.167 28.333 -214.5 85s-59 145.834 -59 267.501s20 212 60 271s111 88.5 213 88.5s173.167 -29.333 213.5 -88s60.5 -149.667 60.5 -273s-19.667 -212.666 -59 -267.999zM408.001 802.996c-14 0 -41.667 9 -83 27
s-66.333 27 -75 27c-14.667 0 -35 -12 -61 -36l-13 -12l-17 56c12.667 14.667 27.667 28 45 40s33.666 18 48.999 18s43.333 -9 84 -27s64.334 -27 71.001 -27c13.333 0 32.666 11.667 57.999 35l12 11l18 -56c-31.333 -37.333 -60.666 -56 -87.999 -56z" />
    <glyph glyph-name="Odieresis" unicode="&#xd6;" horiz-adv-x="660" 
d="M176 124.5c26.667 -44.333 78.168 -66.502 154.501 -66.502s127.666 21.667 153.999 65s39.5 116 39.5 218s-13.667 176.333 -41 223s-78.5 70 -153.5 70s-126 -23.167 -153 -69.5s-40.5 -120.166 -40.5 -221.499s13.333 -174.166 40 -218.499zM545.001 72.998
c-39.333 -55.333 -110.833 -83.002 -214.5 -83.002s-175.167 28.333 -214.5 85s-59 145.834 -59 267.501s20 212 60 271s111 88.5 213 88.5s173.167 -29.333 213.5 -88s60.5 -149.667 60.5 -273s-19.667 -212.666 -59 -267.999zM192.001 807.996v90h73v-90h-73z
M396.001 807.996v90h72v-90h-72z" />
    <glyph glyph-name="multiply" unicode="&#xd7;" 
d="M120 459l160 -162l161 163l48 -48l-163 -161l163 -161l-48 -48l-161 162l-161 -162l-48 48l162 161l-162 160z" />
    <glyph glyph-name="Oslash" unicode="&#xd8;" horiz-adv-x="660" 
d="M330 -10c-46 0 -86 5.66699 -120 17l-57 -123l-57 26l59 126c-35.333 26.667 -60.5 65 -75.5 115s-22.5 114 -22.5 192c0 121.333 20 211.5 60 270.5s111 88.5 213 88.5c50 0 92 -7 126 -21l56 118l58 -24l-59 -127c62 -52 93 -153.667 93 -305
c0 -124.667 -19.667 -214.667 -59 -270s-111 -83 -215 -83zM176.5 564.5c-27 -46.333 -40.5 -124.332 -40.5 -233.999s17.333 -183.834 52 -222.501l238 507c-25.333 12.667 -57.333 19 -96 19c-75.333 0 -126.5 -23.167 -153.5 -69.5zM330 58.001
c76.667 0 128.166 21.668 154.499 65.001s39.5 118.666 39.5 225.999s-16 182.333 -48 225l-235 -502c22.667 -9.33301 52.334 -14 89.001 -14z" />
    <glyph glyph-name="Ugrave" unicode="&#xd9;" horiz-adv-x="644" 
d="M157 208c0 -100 54 -150.001 162 -150.001c56 0 98.167 11.833 126.5 35.5s42.5 61.834 42.5 114.501v484h76v-482c0 -77.333 -20.5 -133.333 -61.5 -168s-101.5 -52 -181.5 -52s-140.167 17.333 -180.5 52s-60.5 90.667 -60.5 168v482h77v-484zM222 930.999l216 -100
l-23 -53l-219 87z" />
    <glyph glyph-name="Uacute" unicode="&#xda;" horiz-adv-x="644" 
d="M157 208c0 -100 54 -150.001 162 -150.001c56 0 98.167 11.833 126.5 35.5s42.5 61.834 42.5 114.501v484h76v-482c0 -77.333 -20.5 -133.333 -61.5 -168s-101.5 -52 -181.5 -52s-140.167 17.333 -180.5 52s-60.5 90.667 -60.5 168v482h77v-484zM199 830.999l216 100
l26 -66l-219 -87z" />
    <glyph glyph-name="Ucircumflex" unicode="&#xdb;" horiz-adv-x="644" 
d="M157 208c0 -100 54 -150.001 162 -150.001c56 0 98.167 11.833 126.5 35.5s42.5 61.834 42.5 114.501v484h76v-482c0 -77.333 -20.5 -133.333 -61.5 -168s-101.5 -52 -181.5 -52s-140.167 17.333 -180.5 52s-60.5 90.667 -60.5 168v482h77v-484zM155 790.999l134 135h65
l134 -135h-84l-82 80l-83 -80h-84z" />
    <glyph glyph-name="Udieresis" unicode="&#xdc;" horiz-adv-x="644" 
d="M157 208c0 -100 54 -150.001 162 -150.001c56 0 98.167 11.833 126.5 35.5s42.5 61.834 42.5 114.501v484h76v-482c0 -77.333 -20.5 -133.333 -61.5 -168s-101.5 -52 -181.5 -52s-140.167 17.333 -180.5 52s-60.5 90.667 -60.5 168v482h77v-484zM184 807.999v90h73v-90
h-73zM388 807.999v90h72v-90h-72z" />
    <glyph glyph-name="Yacute" unicode="&#xdd;" horiz-adv-x="538" 
d="M308 0h-77v291l-221 401h87l172 -324l172 324h87l-220 -401v-291zM167 831l216 100l26 -66l-219 -87z" />
    <glyph glyph-name="Thorn" unicode="&#xde;" horiz-adv-x="599" 
d="M337 195c96 0 144 55.333 144 166c0 52 -11.5 89.833 -34.5 113.5s-59.5 35.5 -109.5 35.5h-175v-315h175zM338 121l-175.999 -0.000976562v-121h-77v696h77v-112h176c75.333 0 131.166 -18.333 167.499 -55s54.5 -93.167 54.5 -169.5s-18.5 -135.166 -55.5 -176.499
s-92.5 -62 -166.5 -62z" />
    <glyph glyph-name="germandbls" unicode="&#xdf;" horiz-adv-x="574" 
d="M147 0h-74.998v545c0 67.333 15.167 114.666 45.5 141.999s80.166 41 149.499 41s119.166 -11.333 149.499 -34s45.5 -59.334 45.5 -110.001c0 -35.333 -6.33301 -62.5 -19 -81.5s-32.334 -34.333 -59.001 -46s-43.834 -20.5 -51.501 -26.5s-11.5 -14.167 -11.5 -24.5
s5.5 -19.833 16.5 -28.5s38.167 -23.667 81.5 -45s74.166 -42.666 92.499 -63.999s27.5 -51.666 27.5 -90.999c0 -68 -15.167 -116.167 -45.5 -144.5s-82.166 -42.5 -155.499 -42.5c-33.333 0 -70 3.66699 -110 11l-21 4l3 63c56.667 -7.33301 97.334 -11 122.001 -11
c48 0 81.5 8.83301 100.5 26.5s28.5 42.667 28.5 75s-7 55.833 -21 70.5s-42.667 32.334 -86 53.001s-72.666 39 -87.999 55s-23 36.5 -23 61.5s6.16699 44.333 18.5 58s31.5 26.167 57.5 37.5s43.333 23.166 52 35.499s13 31.333 13 57s-8.5 44.5 -25.5 56.5
s-47.667 18 -92 18s-75.333 -8.66699 -93 -26s-26.5 -50.333 -26.5 -99v-536z" />
    <glyph glyph-name="agrave" unicode="&#xe0;" horiz-adv-x="501" 
d="M425 349l-0.00195312 -255.999c2 -24.667 21.333 -39.334 58 -44.001l-3 -59c-52.667 0 -92.334 13.333 -119.001 40c-60 -26.667 -120 -40 -180 -40c-46 0 -81 13 -105 39s-36 63.333 -36 112s12.333 84.5 37 107.5s63.334 37.167 116.001 42.5l157 15v43
c0 34 -7.33301 58.333 -22 73s-34.667 22 -60 22c-53.333 0 -108.666 -3.33301 -165.999 -10l-31 -3l-3 57c73.333 14.667 138.333 22 195 22s97.834 -13 123.501 -39s38.5 -66.667 38.5 -122zM116.998 145.001c0 -61.333 25.333 -91.999 76 -91.999
c45.333 0 90 7.66699 134 23l23 8v165l-148 -14c-30 -2.66699 -51.667 -11.334 -65 -26.001s-20 -36 -20 -64zM146.998 740.002l216 -98l-21 -51l-221 85z" />
    <glyph glyph-name="aacute" unicode="&#xe1;" horiz-adv-x="501" 
d="M425 349l-0.00195312 -255.999c2 -24.667 21.333 -39.334 58 -44.001l-3 -59c-52.667 0 -92.334 13.333 -119.001 40c-60 -26.667 -120 -40 -180 -40c-46 0 -81 13 -105 39s-36 63.333 -36 112s12.333 84.5 37 107.5s63.334 37.167 116.001 42.5l157 15v43
c0 34 -7.33301 58.333 -22 73s-34.667 22 -60 22c-53.333 0 -108.666 -3.33301 -165.999 -10l-31 -3l-3 57c73.333 14.667 138.333 22 195 22s97.834 -13 123.501 -39s38.5 -66.667 38.5 -122zM116.998 145.001c0 -61.333 25.333 -91.999 76 -91.999
c45.333 0 90 7.66699 134 23l23 8v165l-148 -14c-30 -2.66699 -51.667 -11.334 -65 -26.001s-20 -36 -20 -64zM117.998 642.002l216 98l26 -64l-221 -85z" />
    <glyph glyph-name="acircumflex" unicode="&#xe2;" horiz-adv-x="501" 
d="M425 349l-0.00195312 -255.999c2 -24.667 21.333 -39.334 58 -44.001l-3 -59c-52.667 0 -92.334 13.333 -119.001 40c-60 -26.667 -120 -40 -180 -40c-46 0 -81 13 -105 39s-36 63.333 -36 112s12.333 84.5 37 107.5s63.334 37.167 116.001 42.5l157 15v43
c0 34 -7.33301 58.333 -22 73s-34.667 22 -60 22c-53.333 0 -108.666 -3.33301 -165.999 -10l-31 -3l-3 57c73.333 14.667 138.333 22 195 22s97.834 -13 123.501 -39s38.5 -66.667 38.5 -122zM116.998 145.001c0 -61.333 25.333 -91.999 76 -91.999
c45.333 0 90 7.66699 134 23l23 8v165l-148 -14c-30 -2.66699 -51.667 -11.334 -65 -26.001s-20 -36 -20 -64zM94.998 592.002l123 140h51l124 -140h-75l-73 87l-75 -87h-75z" />
    <glyph glyph-name="atilde" unicode="&#xe3;" horiz-adv-x="501" 
d="M425 349l-0.00195312 -255.999c2 -24.667 21.333 -39.334 58 -44.001l-3 -59c-52.667 0 -92.334 13.333 -119.001 40c-60 -26.667 -120 -40 -180 -40c-46 0 -81 13 -105 39s-36 63.333 -36 112s12.333 84.5 37 107.5s63.334 37.167 116.001 42.5l157 15v43
c0 34 -7.33301 58.333 -22 73s-34.667 22 -60 22c-53.333 0 -108.666 -3.33301 -165.999 -10l-31 -3l-3 57c73.333 14.667 138.333 22 195 22s97.834 -13 123.501 -39s38.5 -66.667 38.5 -122zM116.998 145.001c0 -61.333 25.333 -91.999 76 -91.999
c45.333 0 90 7.66699 134 23l23 8v165l-148 -14c-30 -2.66699 -51.667 -11.334 -65 -26.001s-20 -36 -20 -64zM306.998 612.002c-14 0 -38.165 7.83301 -72.498 23.5s-55.833 23.5 -64.5 23.5c-15.333 0 -36 -10 -62 -30l-13 -10l-18 48c33.333 34.667 63.666 52 90.999 52
c14 0 38.333 -7.66699 73 -23s55.667 -23 63 -23c14.667 0 34.667 9.66699 60 29l12 9l17 -48c-30.667 -34 -59.334 -51 -86.001 -51z" />
    <glyph glyph-name="adieresis" unicode="&#xe4;" horiz-adv-x="501" 
d="M425 349l-0.00195312 -255.999c2 -24.667 21.333 -39.334 58 -44.001l-3 -59c-52.667 0 -92.334 13.333 -119.001 40c-60 -26.667 -120 -40 -180 -40c-46 0 -81 13 -105 39s-36 63.333 -36 112s12.333 84.5 37 107.5s63.334 37.167 116.001 42.5l157 15v43
c0 34 -7.33301 58.333 -22 73s-34.667 22 -60 22c-53.333 0 -108.666 -3.33301 -165.999 -10l-31 -3l-3 57c73.333 14.667 138.333 22 195 22s97.834 -13 123.501 -39s38.5 -66.667 38.5 -122zM116.998 145.001c0 -61.333 25.333 -91.999 76 -91.999
c45.333 0 90 7.66699 134 23l23 8v165l-148 -14c-30 -2.66699 -51.667 -11.334 -65 -26.001s-20 -36 -20 -64zM104.998 621.002v90h72v-90h-72zM304.998 621.002v90h73v-90h-73z" />
    <glyph glyph-name="aring" unicode="&#xe5;" horiz-adv-x="501" 
d="M425 349l-0.00195312 -255.999c2 -24.667 21.333 -39.334 58 -44.001l-3 -59c-52.667 0 -92.334 13.333 -119.001 40c-60 -26.667 -120 -40 -180 -40c-46 0 -81 13 -105 39s-36 63.333 -36 112s12.333 84.5 37 107.5s63.334 37.167 116.001 42.5l157 15v43
c0 34 -7.33301 58.333 -22 73s-34.667 22 -60 22c-53.333 0 -108.666 -3.33301 -165.999 -10l-31 -3l-3 57c73.333 14.667 138.333 22 195 22s97.834 -13 123.501 -39s38.5 -66.667 38.5 -122zM116.998 145.001c0 -61.333 25.333 -91.999 76 -91.999
c45.333 0 90 7.66699 134 23l23 8v165l-148 -14c-30 -2.66699 -51.667 -11.334 -65 -26.001s-20 -36 -20 -64zM150.998 645.002c0 29.333 10 54 30 74s44.5 30 73.5 30s53.5 -10 73.5 -30s30 -44.667 30 -74s-9.83301 -54 -29.5 -74s-44.167 -30 -73.5 -30s-54 10 -74 30
s-30 44.667 -30 74zM215.998 684.502c-10.667 -11 -16 -24.333 -16 -40s5.33301 -29 16 -40s23.667 -16.5 39 -16.5s28.333 5.5 39 16.5s16 24.333 16 40s-5.33301 29 -16 40s-23.667 16.5 -39 16.5s-28.333 -5.5 -39 -16.5z" />
    <glyph glyph-name="ae" unicode="&#xe6;" horiz-adv-x="804" 
d="M710 65l29 2.00293l2 -61c-75.333 -10.667 -143 -16 -203 -16s-106 18 -138 54l-32 -14c-58 -26.667 -122 -40 -192 -40c-44.667 0 -78.5 13.167 -101.5 39.5s-34.5 65.166 -34.5 116.499s13.667 87.166 41 107.499s74 33.833 140 40.5l129 12v41c0 60.667 -29 91 -87 91
c-44 0 -97 -2.66699 -159 -8l-31 -2l-3 67c79.333 10 145 15 197 15c68 0 113 -24.333 135 -73c32 48.667 82.833 73 152.5 73s121.167 -18.833 154.5 -56.5s50 -96.834 50 -177.501l-4 -58h-330c0 -54.667 10 -95 30 -121s50.5 -39 91.5 -39s95.5 2.33301 163.5 7z
M188 55.0029c30.667 0 65.667 4.83301 105 14.5s64 17.167 74 22.5c-12.667 34 -19 85 -19 153l-146 -12c-29.333 -2.66699 -50.833 -11 -64.5 -25s-20.5 -35 -20.5 -63c0 -60 23.667 -90 71 -90zM425 279.003h258.999c0 59.333 -9.83301 101.5 -29.5 126.5
s-51.667 37.5 -96 37.5s-77.666 -13 -99.999 -39s-33.5 -67.667 -33.5 -125z" />
    <glyph glyph-name="ccedilla" unicode="&#xe7;" horiz-adv-x="436" 
d="M360 -127c0 -60 -31 -90 -93 -90c-30.667 0 -55.667 1.66699 -75 5l-11 2l3 48c26 -2 48 -3 66 -3c29.333 0 44 12.667 44 38c0 22.667 -14.667 34 -44 34h-42v86c-58.667 6.66699 -99.5 30.334 -122.5 71.001s-34.5 106 -34.5 196s16 154.167 48 192.5
s85.333 57.5 160 57.5c22 0 59.333 -4 112 -12l24 -3l-3 -61c-53.333 6 -92.666 9 -117.999 9c-56.667 0 -95.167 -13.5 -115.5 -40.5s-30.5 -77 -30.5 -150s9.5 -123.833 28.5 -152.5s58.5 -43 118.5 -43l118 9l3 -62c-62 -9.33301 -108.333 -14 -139 -14h-8v-39
c39.333 0 67.666 -5.33301 84.999 -16s26 -31.334 26 -62.001z" />
    <glyph glyph-name="egrave" unicode="&#xe8;" horiz-adv-x="505" 
d="M412 62l29.001 3.00098l2 -59c-76 -10.667 -141 -16 -195 -16c-72 0 -123 20.833 -153 62.5s-45 106.5 -45 194.5c0 175.333 69.667 263 209 263c67.333 0 117.666 -18.833 150.999 -56.5s50 -96.834 50 -177.501l-4 -57h-330c0 -55.333 10 -96.333 30 -123
s54.833 -40 104.5 -40s100.167 2 151.5 6zM385.001 279.001c0 61.333 -9.83398 104.668 -29.501 130.001s-51.667 38 -96 38s-77.666 -13.333 -99.999 -40s-33.833 -69.334 -34.5 -128.001h260zM147 741.003l216 -98l-21 -51l-221 85z" />
    <glyph glyph-name="eacute" unicode="&#xe9;" horiz-adv-x="505" 
d="M412 62l29.001 3.00098l2 -59c-76 -10.667 -141 -16 -195 -16c-72 0 -123 20.833 -153 62.5s-45 106.5 -45 194.5c0 175.333 69.667 263 209 263c67.333 0 117.666 -18.833 150.999 -56.5s50 -96.834 50 -177.501l-4 -57h-330c0 -55.333 10 -96.333 30 -123
s54.833 -40 104.5 -40s100.167 2 151.5 6zM385.001 279.001c0 61.333 -9.83398 104.668 -29.501 130.001s-51.667 38 -96 38s-77.666 -13.333 -99.999 -40s-33.833 -69.334 -34.5 -128.001h260zM145 642.003l216 98l26 -64l-221 -85z" />
    <glyph glyph-name="ecircumflex" unicode="&#xea;" horiz-adv-x="505" 
d="M412 62l29.001 3.00098l2 -59c-76 -10.667 -141 -16 -195 -16c-72 0 -123 20.833 -153 62.5s-45 106.5 -45 194.5c0 175.333 69.667 263 209 263c67.333 0 117.666 -18.833 150.999 -56.5s50 -96.834 50 -177.501l-4 -57h-330c0 -55.333 10 -96.333 30 -123
s54.833 -40 104.5 -40s100.167 2 151.5 6zM385.001 279.001c0 61.333 -9.83398 104.668 -29.501 130.001s-51.667 38 -96 38s-77.666 -13.333 -99.999 -40s-33.833 -69.334 -34.5 -128.001h260zM112 592.003l123 140h51l124 -140h-75l-73 87l-75 -87h-75z" />
    <glyph glyph-name="edieresis" unicode="&#xeb;" horiz-adv-x="505" 
d="M412 62l29.001 3.00098l2 -59c-76 -10.667 -141 -16 -195 -16c-72 0 -123 20.833 -153 62.5s-45 106.5 -45 194.5c0 175.333 69.667 263 209 263c67.333 0 117.666 -18.833 150.999 -56.5s50 -96.834 50 -177.501l-4 -57h-330c0 -55.333 10 -96.333 30 -123
s54.833 -40 104.5 -40s100.167 2 151.5 6zM385.001 279.001c0 61.333 -9.83398 104.668 -29.501 130.001s-51.667 38 -96 38s-77.666 -13.333 -99.999 -40s-33.833 -69.334 -34.5 -128.001h260zM120 621.003v90h72v-90h-72zM320 621.003v90h73v-90h-73z" />
    <glyph glyph-name="igrave" unicode="&#xec;" horiz-adv-x="219" 
d="M72 0v500h75v-500h-75zM-34 740l216 -98l-21 -51l-221 85z" />
    <glyph glyph-name="iacute" unicode="&#xed;" horiz-adv-x="219" 
d="M38 642l216 98l26 -64l-221 -85zM72 500h75v-500h-75v500z" />
    <glyph glyph-name="icircumflex" unicode="&#xee;" horiz-adv-x="219" 
d="M72 500h75v-500h-75v500zM-42 592l123 140h51l124 -140h-75l-73 87l-75 -87h-75z" />
    <glyph glyph-name="idieresis" unicode="&#xef;" horiz-adv-x="219" 
d="M72 500h75v-500h-75v500zM-31 621v90h72v-90h-72zM169 621v90h73v-90h-73z" />
    <glyph glyph-name="eth" unicode="&#xf0;" horiz-adv-x="548" 
d="M342 643c102.667 -65.333 153.999 -162.5 153.999 -291.5s-18 -221.333 -54 -277s-95 -83.5 -177 -83.5c-71.333 0 -126.333 19.167 -165 57.5s-58 92 -58 161s18.333 123 55 162s88.334 58.5 155.001 58.5c43.333 0 90 -9 140 -27l25 -9
c-4.66699 86.667 -50.334 155.667 -137.001 207l-122 -81l-33 47l95 64c-36 15.333 -77.333 29 -124 41l15 56c66.667 -13.333 124.334 -31.333 173.001 -54l101 68l34 -47zM417.999 327c-60 24 -112.667 36.001 -158 36.001s-79.833 -13.833 -103.5 -41.5
s-35.5 -64.834 -35.5 -111.501s12.167 -83.5 36.5 -110.5s62 -40.5 113 -40.5s88.167 19.667 111.5 59s35.333 109 36 209z" />
    <glyph glyph-name="ntilde" unicode="&#xf1;" horiz-adv-x="537" 
d="M72 0v500h74v-35l22 11c15.333 8 35.833 15.667 61.5 23s49.5 11 71.5 11c66.667 0 111.5 -18 134.5 -54s34.5 -100 34.5 -192v-264h-74v262c0 69.333 -6.83301 116.833 -20.5 142.5s-43.667 38.5 -90 38.5s-92.5 -12.333 -138.5 -37v-406h-75zM349 612
c-14 0 -38.165 7.83301 -72.498 23.5s-55.833 23.5 -64.5 23.5c-15.333 0 -36 -10 -62 -30l-13 -10l-18 48c33.333 34.667 63.666 52 90.999 52c14 0 38.333 -7.66699 73 -23s55.667 -23 63 -23c14.667 0 34.667 9.66699 60 29l12 9l17 -48
c-30.667 -34 -59.334 -51 -86.001 -51z" />
    <glyph glyph-name="ograve" unicode="&#xf2;" horiz-adv-x="528" 
d="M99 449c32.667 40.667 87.833 61 165.5 61s132.667 -20.333 165 -61s48.5 -106.667 48.5 -198s-15.333 -157.666 -46 -198.999s-86.667 -62 -168 -62s-137.333 20.667 -168 62s-46 107.666 -46 198.999s16.333 157.333 49 198zM153.499 99
c17.667 -29.333 54.667 -44 111 -44s93.166 14.5 110.499 43.5s26 80.167 26 153.5s-9.66699 123.833 -29 151.5s-55.166 41.5 -107.499 41.5s-88.333 -13.833 -108 -41.5s-29.5 -78 -29.5 -151s8.83301 -124.167 26.5 -153.5zM166.999 740l216 -98l-21 -51l-221 85z" />
    <glyph glyph-name="oacute" unicode="&#xf3;" horiz-adv-x="528" 
d="M429.5 449c32.333 -40.667 48.499 -106.667 48.499 -198s-15.333 -157.666 -46 -198.999s-86.667 -62 -168 -62s-137.333 20.667 -168 62s-46 107.666 -46 198.999s16.333 157.333 49 198s87.834 61 165.501 61s132.667 -20.333 165 -61zM374.999 98.5
c17.333 29 26 80.167 26 153.5s-9.66699 123.833 -29 151.5s-55.166 41.5 -107.499 41.5s-88.333 -13.833 -108 -41.5s-29.5 -78 -29.5 -151s8.83301 -124.167 26.5 -153.5s54.667 -44 111 -44s93.166 14.5 110.499 43.5zM153.999 642l216 98l26 -64l-221 -85z" />
    <glyph glyph-name="ocircumflex" unicode="&#xf4;" horiz-adv-x="528" 
d="M429.5 449c32.333 -40.667 48.499 -106.667 48.499 -198s-15.333 -157.666 -46 -198.999s-86.667 -62 -168 -62s-137.333 20.667 -168 62s-46 107.666 -46 198.999s16.333 157.333 49 198s87.834 61 165.501 61s132.667 -20.333 165 -61zM374.999 98.5
c17.333 29 26 80.167 26 153.5s-9.66699 123.833 -29 151.5s-55.166 41.5 -107.499 41.5s-88.333 -13.833 -108 -41.5s-29.5 -78 -29.5 -151s8.83301 -124.167 26.5 -153.5s54.667 -44 111 -44s93.166 14.5 110.499 43.5zM112.999 592l123 140h51l124 -140h-75l-73 87
l-75 -87h-75z" />
    <glyph glyph-name="otilde" unicode="&#xf5;" horiz-adv-x="528" 
d="M429.5 449c32.333 -40.667 48.499 -106.667 48.499 -198s-15.333 -157.666 -46 -198.999s-86.667 -62 -168 -62s-137.333 20.667 -168 62s-46 107.666 -46 198.999s16.333 157.333 49 198s87.834 61 165.501 61s132.667 -20.333 165 -61zM374.999 98.5
c17.333 29 26 80.167 26 153.5s-9.66699 123.833 -29 151.5s-55.166 41.5 -107.499 41.5s-88.333 -13.833 -108 -41.5s-29.5 -78 -29.5 -151s8.83301 -124.167 26.5 -153.5s54.667 -44 111 -44s93.166 14.5 110.499 43.5zM334.999 612c-14 0 -38.165 7.83301 -72.498 23.5
s-55.833 23.5 -64.5 23.5c-15.333 0 -36 -10 -62 -30l-13 -10l-18 48c33.333 34.667 63.666 52 90.999 52c14 0 38.333 -7.66699 73 -23s55.667 -23 63 -23c14.667 0 34.667 9.66699 60 29l12 9l17 -48c-30.667 -34 -59.334 -51 -86.001 -51z" />
    <glyph glyph-name="odieresis" unicode="&#xf6;" horiz-adv-x="528" 
d="M429.5 449c32.333 -40.667 48.499 -106.667 48.499 -198s-15.333 -157.666 -46 -198.999s-86.667 -62 -168 -62s-137.333 20.667 -168 62s-46 107.666 -46 198.999s16.333 157.333 49 198s87.834 61 165.501 61s132.667 -20.333 165 -61zM374.999 98.5
c17.333 29 26 80.167 26 153.5s-9.66699 123.833 -29 151.5s-55.166 41.5 -107.499 41.5s-88.333 -13.833 -108 -41.5s-29.5 -78 -29.5 -151s8.83301 -124.167 26.5 -153.5s54.667 -44 111 -44s93.166 14.5 110.499 43.5zM124.999 621v90h72v-90h-72zM324.999 621v90h73v-90
h-73z" />
    <glyph glyph-name="divide" unicode="&#xf7;" 
d="M120 281v73h57v48h206v-48h56v-73h-319zM242 30v101h75v-101h-75z" />
    <glyph glyph-name="oslash" unicode="&#xf8;" horiz-adv-x="528" 
d="M264 510c26 0 50.666 -2.66699 73.999 -8l43 104l50 -19l-43 -104c60 -33.333 90 -109 90 -227c0 -94.667 -15.333 -162.667 -46 -204s-86.667 -62 -168 -62c-27.333 0 -52.666 2.66699 -75.999 8l-43 -110l-50 18l44 109c-32.667 18 -55.667 46.333 -69 85
s-20 90.667 -20 156c0 88 16.333 152.333 49 193s87.667 61 165 61zM263.999 445c-52 0 -87.834 -13.832 -107.501 -41.499s-29.5 -71.334 -29.5 -131.001s2.83301 -103.167 8.5 -130.5s16.834 -48 33.501 -62l145 359c-14 4 -30.667 6 -50 6zM263.998 55.001
c56.667 0 93.667 14.5 111 43.5s26 83 26 162s-14 131.167 -42 156.5l-146 -357c12 -3.33301 29 -5 51 -5z" />
    <glyph glyph-name="ugrave" unicode="&#xf9;" horiz-adv-x="531" 
d="M384 500l74.999 0.00195312v-500h-75v35c-50 -30 -99.333 -45 -148 -45c-68 0 -113.167 17.667 -135.5 53s-33.5 100.666 -33.5 195.999v261h75v-260c0 -72.667 6.33301 -121.334 19 -146.001s41.334 -37 86.001 -37c22 0 44.333 3.16699 67 9.5s40 12.5 52 18.5l18 9
v406zM139.999 740.002l216 -98l-21 -51l-221 85z" />
    <glyph glyph-name="uacute" unicode="&#xfa;" horiz-adv-x="531" 
d="M459 500v-499.998h-75v35l-21 -11c-14 -8 -33.333 -15.667 -58 -23s-47.667 -11 -69 -11c-68 0 -113.167 17.667 -135.5 53s-33.5 100.666 -33.5 195.999v261h75v-260c0 -72.667 6.33301 -121.334 19 -146.001s42.5 -37 89.5 -37s91.5 12.333 133.5 37v406h75z
M155 642.002l216 98l26 -64l-221 -85z" />
    <glyph glyph-name="ucircumflex" unicode="&#xfb;" horiz-adv-x="531" 
d="M459 500v-499.998h-75v35l-21 -11c-14 -8 -33.333 -15.667 -58 -23s-47.667 -11 -69 -11c-68 0 -113.167 17.667 -135.5 53s-33.5 100.666 -33.5 195.999v261h75v-260c0 -72.667 6.33301 -121.334 19 -146.001s42.5 -37 89.5 -37s91.5 12.333 133.5 37v406h75z
M105 592.002l123 140h51l124 -140h-75l-73 87l-75 -87h-75z" />
    <glyph glyph-name="udieresis" unicode="&#xfc;" horiz-adv-x="531" 
d="M459 500v-499.998h-75v35l-21 -11c-14 -8 -33.333 -15.667 -58 -23s-47.667 -11 -69 -11c-68 0 -113.167 17.667 -135.5 53s-33.5 100.666 -33.5 195.999v261h75v-260c0 -72.667 6.33301 -121.334 19 -146.001s42.5 -37 89.5 -37s91.5 12.333 133.5 37v406h75z
M132 621.002v90h72v-90h-72zM332 621.002v90h73v-90h-73z" />
    <glyph glyph-name="yacute" unicode="&#xfd;" horiz-adv-x="483" 
d="M25 500h75l125 -435h33l126 435h75l-208 -722h-75l65 222h-74zM154 642l216 98l26 -64l-221 -85z" />
    <glyph glyph-name="thorn" unicode="&#xfe;" horiz-adv-x="527" 
d="M244 55c62.667 0 104.168 15.168 124.501 45.501s30.5 80.666 30.5 150.999s-8.16699 119.833 -24.5 148.5s-45.833 43 -88.5 43c-38.667 0 -78.667 -7.33301 -120 -22l-19 -7v-353c43.333 -4 75.666 -6 96.999 -6zM293.001 510.001
c67.333 0 114.667 -19.168 142 -57.501s41 -105.166 41 -200.499s-16.5 -162.833 -49.5 -202.5s-92.5 -59.5 -178.5 -59.5l-101 7v-219h-75v940h75v-243c50 23.333 98.667 35 146 35z" />
    <glyph glyph-name="ydieresis" unicode="&#xff;" horiz-adv-x="483" 
d="M25 500h75l125 -435h33l126 435h75l-208 -722h-75l65 222h-74zM104 621v90h72v-90h-72zM304 621v90h73v-90h-73z" />
    <glyph glyph-name="Amacron" unicode="&#x100;" horiz-adv-x="596" 
d="M24 0l190 692h168l190 -692h-76l-50 178h-296l-50 -178h-76zM272 626l-105 -379h262l-105 379h-52zM141 812v58h311v-58h-311z" />
    <glyph glyph-name="amacron" unicode="&#x101;" horiz-adv-x="501" 
d="M425 349l-0.00195312 -255.999c2 -24.667 21.333 -39.334 58 -44.001l-3 -59c-52.667 0 -92.334 13.333 -119.001 40c-60 -26.667 -120 -40 -180 -40c-46 0 -81 13 -105 39s-36 63.333 -36 112s12.333 84.5 37 107.5s63.334 37.167 116.001 42.5l157 15v43
c0 34 -7.33301 58.333 -22 73s-34.667 22 -60 22c-53.333 0 -108.666 -3.33301 -165.999 -10l-31 -3l-3 57c73.333 14.667 138.333 22 195 22s97.834 -13 123.501 -39s38.5 -66.667 38.5 -122zM116.998 145.001c0 -61.333 25.333 -91.999 76 -91.999
c45.333 0 90 7.66699 134 23l23 8v165l-148 -14c-30 -2.66699 -51.667 -11.334 -65 -26.001s-20 -36 -20 -64zM111.998 624.002v59h275v-59h-275z" />
    <glyph glyph-name="Abreve" unicode="&#x102;" horiz-adv-x="596" 
d="M24 0l190 692h168l190 -692h-76l-50 178h-296l-50 -178h-76zM272 626l-105 -379h262l-105 379h-52zM234.5 864c17 -14 37.666 -21 61.999 -21s44.833 7 61.5 21s25.334 32 26.001 54h70c-2 -39.333 -17.333 -71 -46 -95s-66 -36 -112 -36s-83.167 12 -111.5 36
s-43.5 55.667 -45.5 95h69c0.666992 -22 9.5 -40 26.5 -54z" />
    <glyph glyph-name="abreve" unicode="&#x103;" horiz-adv-x="503" 
d="M425 347l0.00292969 -246c0.666992 -26 19.667 -41.333 57 -46l-2 -65c-54.667 0 -94.334 12.667 -119.001 38l-25 -10c-16.667 -6 -40.334 -12.167 -71.001 -18.5s-60.334 -9.5 -89.001 -9.5c-43.333 0 -76.833 13.333 -100.5 40s-35.5 64 -35.5 112
s12.333 83.667 37 107s63.334 37.333 116.001 42l157 15v41c0 60.667 -29 91 -87 91c-48.667 0 -112.334 -4.33301 -191.001 -13l-3 65l32 5c64 10 119.333 15 166 15c53.333 0 93 -13.167 119 -39.5s39 -67.5 39 -123.5zM188.003 55c50 0 104 10 162 30v160l-148 -12
c-56.667 -5.33301 -85 -34.666 -85 -87.999c0 -28.667 6.16699 -50.834 18.5 -66.501s29.833 -23.5 52.5 -23.5zM192.503 678.5c14.333 -13.667 34.3301 -20.5 59.9971 -20.5s45.834 6.83301 60.501 20.5s22.334 31.834 23.001 54.501h77
c-2 -42 -17.167 -76.167 -45.5 -102.5s-66.666 -39.5 -114.999 -39.5s-86.666 13.167 -114.999 39.5s-43.5 60.5 -45.5 102.5h77c1.33301 -22.667 9.16602 -40.834 23.499 -54.501z" />
    <glyph glyph-name="Aogonek" unicode="&#x104;" horiz-adv-x="596" 
d="M494 -102c0 -12.667 3.83203 -23.001 11.499 -31.001s17.5 -12 29.5 -12l50 6l7 -58c-30 -6 -57.333 -9 -82 -9s-45.667 7.83301 -63 23.5s-26 35.334 -26 59.001s8.33301 46.667 25 69s33.334 40.833 50.001 55.5l-50 177h-296l-50 -178h-76l190 692h168l190 -692h-8
c-46.667 -46.667 -70 -80.667 -70 -102zM271.999 625.999l-105 -379h262l-105 379h-52z" />
    <glyph glyph-name="aogonek" unicode="&#x105;" horiz-adv-x="500" 
d="M425 349l-0.00195312 -256c2 -24.667 21.333 -39.334 58 -44.001l-3 -59c-8 0 -19.333 0.666992 -34 2c-40.667 -42.667 -61 -74 -61 -94c0 -12.667 3.83301 -23 11.5 -31s17.5 -12 29.5 -12l50 6l7 -58c-30 -6 -57.333 -9 -82 -9s-45.667 7.83301 -63 23.5
s-26 34.167 -26 55.5s6.33301 42 19 62c18 28.667 38.667 52.334 62 71.001c-10.667 5.33301 -21.334 13.333 -32.001 24c-60 -26.667 -120 -40 -180 -40c-46 0 -81 13 -105 39s-36 63.333 -36 112s12.333 84.5 37 107.5s63.334 37.167 116.001 42.5l157 15v43
c0 34 -7.33301 58.333 -22 73s-34.667 22 -60 22c-53.333 0 -108.666 -3.33301 -165.999 -10l-31 -3l-3 57c73.333 14.667 138.333 22 195 22s97.834 -13 123.501 -39s38.5 -66.667 38.5 -122zM116.998 145c0 -61.333 25.333 -91.999 76 -91.999c45.333 0 90 7.66699 134 23
l23 8v165l-148 -14c-30 -2.66699 -51.667 -11.334 -65 -26.001s-20 -36 -20 -64z" />
    <glyph glyph-name="Cacute" unicode="&#x106;" horiz-adv-x="544" 
d="M503 11c-68.667 -14 -130.33 -21 -184.997 -21s-98.834 7.5 -132.501 22.5s-59.667 38.333 -78 70s-31 68 -38 109s-10.5 92.167 -10.5 153.5s3.5 112.833 10.5 154.5s19.667 78.5 38 110.5s44.166 55.333 77.499 70s76.666 22 129.999 22s116 -7.33301 188 -22l-3 -65
c-67.333 12 -127.333 18 -180 18c-73.333 0 -121.833 -21.833 -145.5 -65.5s-35.5 -118.167 -35.5 -223.5c0 -52.667 2.16699 -95 6.5 -127s12.833 -60.833 25.5 -86.5s31.167 -44 55.5 -55s60 -16.5 107 -16.5s102.5 6 166.5 18zM181.004 831l216 100l26 -66l-219 -87z" />
    <glyph glyph-name="cacute" unicode="&#x107;" horiz-adv-x="436" 
d="M259 510c22 0 59.332 -4 111.999 -12l24 -3l-3 -61c-53.333 6 -92.666 9 -117.999 9c-56.667 0 -95.167 -13.5 -115.5 -40.5s-30.5 -77 -30.5 -150s9.5 -123.833 28.5 -152.5s58.5 -43 118.5 -43l118 9l3 -62c-62 -9.33301 -108.333 -14 -139 -14
c-78 0 -131.833 20 -161.5 60s-44.5 107.5 -44.5 202.5s16 161.667 48 200s85.333 57.5 160 57.5zM125.999 642l216 98l26 -64l-221 -85z" />
    <glyph glyph-name="Ccircumflex" unicode="&#x108;" horiz-adv-x="544" 
d="M503 11c-68.667 -14 -130.33 -21 -184.997 -21s-98.834 7.5 -132.501 22.5s-59.667 38.333 -78 70s-31 68 -38 109s-10.5 92.167 -10.5 153.5s3.5 112.833 10.5 154.5s19.667 78.5 38 110.5s44.166 55.333 77.499 70s76.666 22 129.999 22s116 -7.33301 188 -22l-3 -65
c-67.333 12 -127.333 18 -180 18c-73.333 0 -121.833 -21.833 -145.5 -65.5s-35.5 -118.167 -35.5 -223.5c0 -52.667 2.16699 -95 6.5 -127s12.833 -60.833 25.5 -86.5s31.167 -44 55.5 -55s60 -16.5 107 -16.5s102.5 6 166.5 18zM144.004 791l134 135h65l134 -135h-84
l-82 80l-83 -80h-84z" />
    <glyph glyph-name="ccircumflex" unicode="&#x109;" horiz-adv-x="436" 
d="M259 510c22 0 59.332 -4 111.999 -12l24 -3l-3 -61c-53.333 6 -92.666 9 -117.999 9c-56.667 0 -95.167 -13.5 -115.5 -40.5s-30.5 -77 -30.5 -150s9.5 -123.833 28.5 -152.5s58.5 -43 118.5 -43l118 9l3 -62c-62 -9.33301 -108.333 -14 -139 -14
c-78 0 -131.833 20 -161.5 60s-44.5 107.5 -44.5 202.5s16 161.667 48 200s85.333 57.5 160 57.5zM82.999 592l123 140h51l124 -140h-75l-73 87l-75 -87h-75z" />
    <glyph glyph-name="Cdotaccent" unicode="&#x10a;" horiz-adv-x="544" 
d="M503 11c-68.667 -14 -130.33 -21 -184.997 -21s-98.834 7.5 -132.501 22.5s-59.667 38.333 -78 70s-31 68 -38 109s-10.5 92.167 -10.5 153.5s3.5 112.833 10.5 154.5s19.667 78.5 38 110.5s44.166 55.333 77.499 70s76.666 22 129.999 22s116 -7.33301 188 -22l-3 -65
c-67.333 12 -127.333 18 -180 18c-73.333 0 -121.833 -21.833 -145.5 -65.5s-35.5 -118.167 -35.5 -223.5c0 -52.667 2.16699 -95 6.5 -127s12.833 -60.833 25.5 -86.5s31.167 -44 55.5 -55s60 -16.5 107 -16.5s102.5 6 166.5 18zM255.004 798v87h74v-87h-74z" />
    <glyph glyph-name="cdotaccent" unicode="&#x10b;" horiz-adv-x="436" 
d="M259 510c22 0 59.332 -4 111.999 -12l24 -3l-3 -61c-53.333 6 -92.666 9 -117.999 9c-56.667 0 -95.167 -13.5 -115.5 -40.5s-30.5 -77 -30.5 -150s9.5 -123.833 28.5 -152.5s58.5 -43 118.5 -43l118 9l3 -62c-62 -9.33301 -108.333 -14 -139 -14
c-78 0 -131.833 20 -161.5 60s-44.5 107.5 -44.5 202.5s16 161.667 48 200s85.333 57.5 160 57.5zM213.999 609v87h74v-87h-74z" />
    <glyph glyph-name="Ccaron" unicode="&#x10c;" horiz-adv-x="544" 
d="M503 11c-68.667 -14 -130.33 -21 -184.997 -21s-98.834 7.5 -132.501 22.5s-59.667 38.333 -78 70s-31 68 -38 109s-10.5 92.167 -10.5 153.5s3.5 112.833 10.5 154.5s19.667 78.5 38 110.5s44.166 55.333 77.499 70s76.666 22 129.999 22s116 -7.33301 188 -22l-3 -65
c-67.333 12 -127.333 18 -180 18c-73.333 0 -121.833 -21.833 -145.5 -65.5s-35.5 -118.167 -35.5 -223.5c0 -52.667 2.16699 -95 6.5 -127s12.833 -60.833 25.5 -86.5s31.167 -44 55.5 -55s60 -16.5 107 -16.5s102.5 6 166.5 18zM271.004 791l-134 135h84l83 -80l82 80h84
l-134 -135h-65z" />
    <glyph glyph-name="ccaron" unicode="&#x10d;" horiz-adv-x="436" 
d="M259 510c22 0 59.332 -4 111.999 -12l24 -3l-3 -61c-53.333 6 -92.666 9 -117.999 9c-56.667 0 -95.167 -13.5 -115.5 -40.5s-30.5 -77 -30.5 -150s9.5 -123.833 28.5 -152.5s58.5 -43 118.5 -43l118 9l3 -62c-62 -9.33301 -108.333 -14 -139 -14
c-78 0 -131.833 20 -161.5 60s-44.5 107.5 -44.5 202.5s16 161.667 48 200s85.333 57.5 160 57.5zM213.999 592l-123 140h74l75 -87l74 87h75l-125 -140h-50z" />
    <glyph glyph-name="Dcaron" unicode="&#x10e;" horiz-adv-x="645" 
d="M332 0l-247.001 -0.000976562v692h247c112.667 0 187.334 -44.667 224.001 -134c21.333 -51.333 32 -118.666 32 -201.999c0 -174 -43.333 -283.667 -130 -329c-34.667 -18 -76.667 -27 -126 -27zM508.999 355.999c0 132.667 -29.667 215.333 -89 248
c-24 13.333 -53.333 20 -88 20h-170v-556h170c118 0 177 96 177 288zM261.999 790.998l-134 135h84l83 -80l82 80h84l-134 -135h-65z" />
    <glyph glyph-name="dcaron" unicode="&#x10f;" horiz-adv-x="575" 
d="M558 683h74l-49 -207h-65zM456 718v-718h-74v34c-51.333 -29.333 -102 -44 -152 -44c-26.667 0 -50 3.33301 -70 10s-38.667 18.667 -56 36c-36 36 -54 102.5 -54 199.5s16.167 167 48.5 210s85.833 64.5 160.5 64.5c38.667 0 79.667 -4.33301 123 -13v221h74zM196 64
c12 -4.66699 27.501 -6.99902 46.501 -6.99902s40.333 3.16699 64 9.5s42.167 12.5 55.5 18.5l20 9v339c-42.667 8 -82.334 12 -119.001 12c-50.667 0 -86 -16.167 -106 -48.5s-30 -82.5 -30 -150.5c0 -77.333 11.667 -129.333 35 -156
c10.667 -12.667 22 -21.334 34 -26.001z" />
    <glyph glyph-name="Dcroat" unicode="&#x110;" horiz-adv-x="647" 
d="M20 311v73h68v312h247c94 0 160.167 -29.333 198.5 -88s57.5 -141.667 57.5 -249c0 -174.667 -43.667 -285 -131 -331c-34 -18.667 -75.667 -28 -125 -28h-247v311h-68zM511 359c0 129.333 -29.667 210.667 -89 244c-23.333 13.333 -52.333 20 -87 20h-171v-239h158v-73
h-158v-238h171c117.333 0 176 95.333 176 286z" />
    <glyph glyph-name="dcroat" unicode="&#x111;" horiz-adv-x="529" 
d="M456 718v-30h23v-66h-23v-622h-74v34c-51.333 -29.333 -102 -44 -152 -44c-26.667 0 -50 3.33301 -70 10s-38.667 18.667 -56 36c-36 36 -54 102.5 -54 199.5s16.167 167 48.5 210s85.833 64.5 160.5 64.5c38.667 0 79.667 -4.33301 123 -13v125h-194v66h194v30h74z
M196 64c12 -4.66699 27.501 -6.99902 46.501 -6.99902s40.333 3.16699 64 9.5s42.167 12.5 55.5 18.5l20 9v339c-42.667 8 -82.334 12 -119.001 12c-50.667 0 -86 -16.167 -106 -48.5s-30 -82.5 -30 -150.5c0 -77.333 11.667 -129.333 35 -156
c10.667 -12.667 22 -21.334 34 -26.001z" />
    <glyph glyph-name="Emacron" unicode="&#x112;" horiz-adv-x="553" 
d="M85 0v692h421v-68h-344v-239h284v-67h-284v-250h344v-68h-421zM138 812v58h311v-58h-311z" />
    <glyph glyph-name="emacron" unicode="&#x113;" horiz-adv-x="505" 
d="M412 62l29.001 3.00098l2 -59c-76 -10.667 -141 -16 -195 -16c-72 0 -123 20.833 -153 62.5s-45 106.5 -45 194.5c0 175.333 69.667 263 209 263c67.333 0 117.666 -18.833 150.999 -56.5s50 -96.834 50 -177.501l-4 -57h-330c0 -55.333 10 -96.333 30 -123
s54.833 -40 104.5 -40s100.167 2 151.5 6zM385.001 279.001c0 61.333 -9.83398 104.668 -29.501 130.001s-51.667 38 -96 38s-77.666 -13.333 -99.999 -40s-33.833 -69.334 -34.5 -128.001h260zM123 624.003v59h275v-59h-275z" />
    <glyph glyph-name="Ebreve" unicode="&#x114;" horiz-adv-x="553" 
d="M85 0v692h421v-68h-344v-239h284v-67h-284v-250h344v-68h-421zM242.5 864c17 -14 37.666 -21 61.999 -21s44.833 7 61.5 21s25.334 32 26.001 54h70c-2 -39.333 -17.333 -71 -46 -95s-66 -36 -112 -36s-83.167 12 -111.5 36s-43.5 55.667 -45.5 95h69
c0.666992 -22 9.5 -40 26.5 -54z" />
    <glyph glyph-name="ebreve" unicode="&#x115;" horiz-adv-x="505" 
d="M412 62l29.001 3.00098l2 -59c-76 -10.667 -141 -16 -195 -16c-72 0 -123 20.833 -153 62.5s-45 106.5 -45 194.5c0 175.333 69.667 263 209 263c67.333 0 117.666 -18.833 150.999 -56.5s50 -96.834 50 -177.501l-4 -57h-330c0 -55.333 10 -96.333 30 -123
s54.833 -40 104.5 -40s100.167 2 151.5 6zM385.001 279.001c0 61.333 -9.83398 104.668 -29.501 130.001s-51.667 38 -96 38s-77.666 -13.333 -99.999 -40s-33.833 -69.334 -34.5 -128.001h260zM194 665.003c15.333 -15.333 36.1709 -23 62.5039 -23
s47.166 7.66699 62.499 23s23.333 35.666 24 60.999h62c-2 -40 -16.333 -73.333 -43 -100s-61.834 -40 -105.501 -40s-78.834 13.333 -105.501 40s-41 60 -43 100h61c1.33301 -25.333 9.66602 -45.666 24.999 -60.999z" />
    <glyph glyph-name="Edotaccent" unicode="&#x116;" horiz-adv-x="553" 
d="M85 0v692h421v-68h-344v-239h284v-67h-284v-250h344v-68h-421zM260 801v87h74v-87h-74z" />
    <glyph glyph-name="edotaccent" unicode="&#x117;" horiz-adv-x="505" 
d="M412 62l29.001 3.00098l2 -59c-76 -10.667 -141 -16 -195 -16c-72 0 -123 20.833 -153 62.5s-45 106.5 -45 194.5c0 175.333 69.667 263 209 263c67.333 0 117.666 -18.833 150.999 -56.5s50 -96.834 50 -177.501l-4 -57h-330c0 -55.333 10 -96.333 30 -123
s54.833 -40 104.5 -40s100.167 2 151.5 6zM385.001 279.001c0 61.333 -9.83398 104.668 -29.501 130.001s-51.667 38 -96 38s-77.666 -13.333 -99.999 -40s-33.833 -69.334 -34.5 -128.001h260zM217 609.003v87h74v-87h-74z" />
    <glyph glyph-name="Eogonek" unicode="&#x118;" horiz-adv-x="553" 
d="M85 0v691.999h421v-68h-344v-239h284v-67h-284v-250h344v-68h-29c-46.667 -46.667 -70 -80.667 -70 -102c0 -12.667 3.83301 -23 11.5 -31s17.5 -12 29.5 -12l50 6l7 -58c-30 -6 -57.333 -9 -82 -9s-45.667 7.83301 -63 23.5s-26 35.334 -26 59.001
s8.16699 46.5 24.5 68.5s32.833 40.333 49.5 55h-323z" />
    <glyph glyph-name="eogonek" unicode="&#x119;" horiz-adv-x="506" 
d="M343 -102c0 -12.667 3.83496 -23 11.502 -31s17.5 -12 29.5 -12l50 6l7 -58c-30 -6 -57.333 -9 -82 -9s-45.667 7.83301 -63 23.5s-26 38.334 -26 68.001s22.667 66.167 68 109.5c-34.667 -3.33301 -64.667 -5 -90 -5c-72 0 -123 20.833 -153 62.5s-45 106.5 -45 194.5
c0 175.333 69.667 263 209 263c67.333 0 117.666 -18.833 150.999 -56.5s50 -96.834 50 -177.501l-4 -57h-330c0 -55.333 10 -96.333 30 -123s53.667 -40 101 -40c52 0 103.667 2 155 6l29 3l2 -59c-10.667 -1.33301 -22.334 -3 -35.001 -5h6
c-47.333 -46.667 -71 -81 -71 -103zM385.002 279c0 61.333 -9.83398 104.668 -29.501 130.001s-51.667 38 -96 38s-77.666 -13.333 -99.999 -40s-33.833 -69.334 -34.5 -128.001h260z" />
    <glyph glyph-name="Ecaron" unicode="&#x11a;" horiz-adv-x="553" 
d="M85 0v692h421v-68h-344v-239h284v-67h-284v-250h344v-68h-421zM258 791l-134 135h84l83 -80l82 80h84l-134 -135h-65z" />
    <glyph glyph-name="ecaron" unicode="&#x11b;" horiz-adv-x="505" 
d="M412 62l29.001 3.00098l2 -59c-76 -10.667 -141 -16 -195 -16c-72 0 -123 20.833 -153 62.5s-45 106.5 -45 194.5c0 175.333 69.667 263 209 263c67.333 0 117.666 -18.833 150.999 -56.5s50 -96.834 50 -177.501l-4 -57h-330c0 -55.333 10 -96.333 30 -123
s54.833 -40 104.5 -40s100.167 2 151.5 6zM385.001 279.001c0 61.333 -9.83398 104.668 -29.501 130.001s-51.667 38 -96 38s-77.666 -13.333 -99.999 -40s-33.833 -69.334 -34.5 -128.001h260zM227 592.003l-123 140h74l75 -87l74 87h75l-125 -140h-50z" />
    <glyph glyph-name="Gcircumflex" unicode="&#x11c;" horiz-adv-x="616" 
d="M359 287l0.000976562 69h191v-340c-84 -16 -159 -24 -225 -24c-100.667 0 -170.5 29 -209.5 87s-58.5 147.5 -58.5 268.5s19.5 210.667 58.5 269s108.167 87.5 207.5 87.5c62 0 126.333 -6.66699 193 -20l34 -6l-3 -64c-82.667 14 -154.334 21 -215.001 21
c-76.667 0 -128.334 -22.167 -155.001 -66.5s-40 -118 -40 -221s13.333 -176.667 40 -221s78 -66.5 154 -66.5c46.667 0 94.334 4.66699 143.001 14v213h-115zM156.001 788l134 135h65l134 -135h-84l-82 80l-83 -80h-84z" />
    <glyph glyph-name="gcircumflex" unicode="&#x11d;" horiz-adv-x="514" 
d="M265 -235c-80 0 -135.833 10.833 -167.5 32.5s-47.5 61.167 -47.5 118.5c0 27.333 6 49.5 18 66.5s32.333 36.167 61 57.5c-18.667 12.667 -28 35.667 -28 69c0 11.333 8.33301 32.333 25 63l9 16c-52.667 24 -79 74.333 -79 151c0 114 62.333 171 187 171
c32 0 61.667 -3.33301 89 -10l15 -3l148 4v-64l-95 2c22 -22 33 -55.333 33 -100c0 -62.667 -15.5 -106.5 -46.5 -131.5s-79.833 -37.5 -146.5 -37.5c-18 0 -34.333 1.33301 -49 4c-12 -29.333 -18 -48.333 -18 -57c0 -20.667 6.33301 -33.5 19 -38.5s51 -7.5 115 -7.5
s110 -10 138 -30s42 -59 42 -117c0 -106 -74 -159 -222 -159zM124 -78c0 -35.333 9.83398 -59.833 29.501 -73.5s56 -20.5 109 -20.5s91 7.33301 114 22s34.5 39.167 34.5 73.5s-8.33301 56.5 -25 66.5s-49.334 15 -98.001 15l-108 5c-22 -16 -36.833 -30 -44.5 -42
s-11.5 -27.333 -11.5 -46zM157.501 255c17.667 -16.667 46.834 -25.002 87.501 -25.002s69.667 8.33301 87 25s26 44.834 26 84.501s-8.66699 67.834 -26 84.501s-46.333 25 -87 25s-69.834 -8.5 -87.501 -25.5s-26.5 -45.167 -26.5 -84.5s8.83301 -67.333 26.5 -84z
M113.001 591.998l123 140h51l124 -140h-75l-73 87l-75 -87h-75z" />
    <glyph glyph-name="Gbreve" unicode="&#x11e;" horiz-adv-x="616" 
d="M359 285l0.000976562 69h191v-340c-84 -16 -159 -24 -225 -24c-100.667 0 -170.5 29 -209.5 87s-58.5 147.5 -58.5 268.5s19.5 210.667 58.5 269s108.167 87.5 207.5 87.5c62 0 126.333 -6.66699 193 -20l34 -6l-3 -64c-82.667 14 -154.334 21 -215.001 21
c-76.667 0 -128.334 -22.167 -155.001 -66.5s-40 -118 -40 -221s13.333 -176.667 40 -221s78 -66.5 154 -66.5c46.667 0 94.334 4.66699 143.001 14v213h-115zM266.501 864c17 -14 37.666 -21 61.999 -21s44.833 7 61.5 21s25.334 32 26.001 54h70
c-2 -39.333 -17.333 -71 -46 -95s-66 -36 -112 -36s-83.167 12 -111.5 36s-43.5 55.667 -45.5 95h69c0.666992 -22 9.5 -40 26.5 -54z" />
    <glyph glyph-name="gbreve" unicode="&#x11f;" horiz-adv-x="514" 
d="M265 -235c-80 0 -135.833 10.833 -167.5 32.5s-47.5 61.167 -47.5 118.5c0 27.333 6 49.5 18 66.5s32.333 36.167 61 57.5c-18.667 12.667 -28 35.667 -28 69c0 11.333 8.33301 32.333 25 63l9 16c-52.667 24 -79 74.333 -79 151c0 114 62.333 171 187 171
c32 0 61.667 -3.33301 89 -10l15 -3l148 4v-64l-95 2c22 -22 33 -55.333 33 -100c0 -62.667 -15.5 -106.5 -46.5 -131.5s-79.833 -37.5 -146.5 -37.5c-18 0 -34.333 1.33301 -49 4c-12 -29.333 -18 -48.333 -18 -57c0 -20.667 6.33301 -33.5 19 -38.5s51 -7.5 115 -7.5
s110 -10 138 -30s42 -59 42 -117c0 -106 -74 -159 -222 -159zM124 -78c0 -35.333 9.83398 -59.833 29.501 -73.5s56 -20.5 109 -20.5s91 7.33301 114 22s34.5 39.167 34.5 73.5s-8.33301 56.5 -25 66.5s-49.334 15 -98.001 15l-108 5c-22 -16 -36.833 -30 -44.5 -42
s-11.5 -27.333 -11.5 -46zM157.501 255c17.667 -16.667 46.834 -25.002 87.501 -25.002s69.667 8.33301 87 25s26 44.834 26 84.501s-8.66699 67.834 -26 84.501s-46.333 25 -87 25s-69.834 -8.5 -87.501 -25.5s-26.5 -45.167 -26.5 -84.5s8.83301 -67.333 26.5 -84z
M199.001 664.998c15.333 -15.333 36.1709 -23 62.5039 -23s47.166 7.66699 62.499 23s23.333 35.666 24 60.999h62c-2 -40 -16.333 -73.333 -43 -100s-61.834 -40 -105.501 -40s-78.834 13.333 -105.501 40s-41 60 -43 100h61
c1.33301 -25.333 9.66602 -45.666 24.999 -60.999z" />
    <glyph glyph-name="Gdotaccent" unicode="&#x120;" horiz-adv-x="616" 
d="M359 285l0.000976562 69h191v-340c-84 -16 -159 -24 -225 -24c-100.667 0 -170.5 29 -209.5 87s-58.5 147.5 -58.5 268.5s19.5 210.667 58.5 269s108.167 87.5 207.5 87.5c62 0 126.333 -6.66699 193 -20l34 -6l-3 -64c-82.667 14 -154.334 21 -215.001 21
c-76.667 0 -128.334 -22.167 -155.001 -66.5s-40 -118 -40 -221s13.333 -176.667 40 -221s78 -66.5 154 -66.5c46.667 0 94.334 4.66699 143.001 14v213h-115zM276.001 801v87h74v-87h-74z" />
    <glyph glyph-name="gdotaccent" unicode="&#x121;" horiz-adv-x="514" 
d="M265 -235c-80 0 -135.833 10.833 -167.5 32.5s-47.5 61.167 -47.5 118.5c0 27.333 6 49.5 18 66.5s32.333 36.167 61 57.5c-18.667 12.667 -28 35.667 -28 69c0 11.333 8.33301 32.333 25 63l9 16c-52.667 24 -79 74.333 -79 151c0 114 62.333 171 187 171
c32 0 61.667 -3.33301 89 -10l15 -3l148 4v-64l-95 2c22 -22 33 -55.333 33 -100c0 -62.667 -15.5 -106.5 -46.5 -131.5s-79.833 -37.5 -146.5 -37.5c-18 0 -34.333 1.33301 -49 4c-12 -29.333 -18 -48.333 -18 -57c0 -20.667 6.33301 -33.5 19 -38.5s51 -7.5 115 -7.5
s110 -10 138 -30s42 -59 42 -117c0 -106 -74 -159 -222 -159zM124 -78c0 -35.333 9.83398 -59.833 29.501 -73.5s56 -20.5 109 -20.5s91 7.33301 114 22s34.5 39.167 34.5 73.5s-8.33301 56.5 -25 66.5s-49.334 15 -98.001 15l-108 5c-22 -16 -36.833 -30 -44.5 -42
s-11.5 -27.333 -11.5 -46zM157.501 255c17.667 -16.667 46.834 -25.002 87.501 -25.002s69.667 8.33301 87 25s26 44.834 26 84.501s-8.66699 67.834 -26 84.501s-46.333 25 -87 25s-69.834 -8.5 -87.501 -25.5s-26.5 -45.167 -26.5 -84.5s8.83301 -67.333 26.5 -84z
M224.001 608.998v87h74v-87h-74z" />
    <glyph glyph-name="Gcommaaccent" unicode="&#x122;" horiz-adv-x="616" 
d="M359 285l0.000976562 69h191v-340c-84 -16 -159 -24 -225 -24c-100.667 0 -170.5 29 -209.5 87s-58.5 147.5 -58.5 268.5s19.5 210.667 58.5 269s108.167 87.5 207.5 87.5c62 0 126.333 -6.66699 193 -20l34 -6l-3 -64c-82.667 14 -154.334 21 -215.001 21
c-76.667 0 -128.334 -22.167 -155.001 -66.5s-40 -118 -40 -221s13.333 -176.667 40 -221s78 -66.5 154 -66.5c46.667 0 94.334 4.66699 143.001 14v213h-115zM301.001 -78h74l-50 -207h-65z" />
    <glyph glyph-name="gcommaaccent" unicode="&#x123;" horiz-adv-x="514" 
d="M307 796l-41 -207h-74l50 207h65zM265 -235c-80 0 -135.833 10.833 -167.5 32.5s-47.5 61.167 -47.5 118.5c0 27.333 6 49.5 18 66.5s32.333 36.167 61 57.5c-18.667 12.667 -28 35.667 -28 69c0 11.333 8.33301 32.333 25 63l9 16c-52.667 24 -79 74.333 -79 151
c0 114 62.333 171 187 171c32 0 61.667 -3.33301 89 -10l15 -3l148 4v-64l-95 2c22 -22 33 -55.333 33 -100c0 -62.667 -15.5 -106.5 -46.5 -131.5s-79.833 -37.5 -146.5 -37.5c-18 0 -34.333 1.33301 -49 4c-12 -29.333 -18 -48.333 -18 -57
c0 -20.667 6.33301 -33.5 19 -38.5s51 -7.5 115 -7.5s110 -10 138 -30s42 -59 42 -117c0 -106 -74 -159 -222 -159zM124 -78c0 -35.333 9.83398 -59.833 29.501 -73.5s56 -20.5 109 -20.5s91 7.33301 114 22s34.5 39.167 34.5 73.5s-8.33301 56.5 -25 66.5
s-49.334 15 -98.001 15l-108 5c-22 -16 -36.833 -30 -44.5 -42s-11.5 -27.333 -11.5 -46zM157.501 255c17.667 -16.667 46.834 -25.002 87.501 -25.002s69.667 8.33301 87 25s26 44.834 26 84.501s-8.66699 67.834 -26 84.501s-46.333 25 -87 25s-69.834 -8.5 -87.501 -25.5
s-26.5 -45.167 -26.5 -84.5s8.83301 -67.333 26.5 -84z" />
    <glyph glyph-name="Hcircumflex" unicode="&#x124;" horiz-adv-x="675" 
d="M514 0v313h-352v-313h-77v692h77v-310h352v310h76v-692h-76zM172 791l134 135h65l134 -135h-84l-82 80l-83 -80h-84z" />
    <glyph glyph-name="hcircumflex" unicode="&#x125;" horiz-adv-x="537" 
d="M147 0h-74.999v718h75v-246c53.333 25.333 104.666 38 153.999 38c66.667 0 111.5 -18 134.5 -54s34.5 -100 34.5 -192v-264h-75v262c0 69.333 -6.83301 116.833 -20.5 142.5s-42.5 38.5 -86.5 38.5c-42 0 -82.667 -7.66699 -122 -23l-19 -7v-413zM118.001 774l123 140
h51l124 -140h-75l-73 87l-75 -87h-75z" />
    <glyph glyph-name="Hbar" unicode="&#x126;" horiz-adv-x="686" 
d="M15 508v65h74v119h77v-119h352v119h76v-119h83v-65h-83v-508h-76v313h-352v-313h-77v508h-74zM166 382h352v126h-352v-126z" />
    <glyph glyph-name="hbar" unicode="&#x127;" horiz-adv-x="537" 
d="M10 580l0.000976562 66h62v72h75v-72h154v-66h-154v-108c53.333 25.333 104.666 38 153.999 38c66.667 0 111.5 -18 134.5 -54s34.5 -100 34.5 -192v-264h-75v262c0 69.333 -6.83301 116.833 -20.5 142.5s-42.5 38.5 -86.5 38.5c-42 0 -82.667 -7.66699 -122 -23l-19 -7
v-413h-75v580h-62z" />
    <glyph glyph-name="Itilde" unicode="&#x128;" horiz-adv-x="246" 
d="M85 0v692h77v-692h-77zM200 803c-14.667 0 -42.668 9 -84.001 27s-66 27 -74 27c-15.333 0 -36 -12 -62 -36l-13 -12l-17 56c12.667 14.667 27.667 28 45 40s33.5 18 48.5 18s43 -9 84 -27s65.167 -27 72.5 -27c12.667 0 31.334 11.667 56.001 35l13 11l18 -56
c-31.333 -37.333 -60.333 -56 -87 -56z" />
    <glyph glyph-name="itilde" unicode="&#x129;" horiz-adv-x="219" 
d="M72 500h75v-500h-75v500zM183 612c-14 0 -38.165 7.83301 -72.498 23.5s-55.833 23.5 -64.5 23.5c-15.333 0 -36 -10 -62 -30l-13 -10l-18 48c33.333 34.667 63.666 52 90.999 52c14 0 38.333 -7.66699 73 -23s55.667 -23 63 -23c14.667 0 34.667 9.66699 60 29l12 9
l17 -48c-30.667 -34 -59.334 -51 -86.001 -51z" />
    <glyph glyph-name="Imacron" unicode="&#x12a;" horiz-adv-x="246" 
d="M85 0v692h77v-692h-77zM-30 812v58h311v-58h-311z" />
    <glyph glyph-name="imacron" unicode="&#x12b;" horiz-adv-x="219" 
d="M72 500h75v-500h-75v500zM-28 624v59h275v-59h-275z" />
    <glyph glyph-name="Ibreve" unicode="&#x12c;" horiz-adv-x="246" 
d="M85 0v692h77v-692h-77zM131 843c24.667 0 45.3301 7 61.9971 21s25.334 32 26.001 54h70c-2 -39.333 -17.333 -71 -46 -95s-66 -36 -112 -36s-83.167 12 -111.5 36s-43.5 55.667 -45.5 95h69c0.666992 -22 9.33398 -40 26.001 -54s37.334 -21 62.001 -21z" />
    <glyph glyph-name="ibreve" unicode="&#x12d;" horiz-adv-x="219" 
d="M72 500h75v-500h-75v500zM47 665c15.333 -15.333 36.1709 -23 62.5039 -23s47.166 7.66699 62.499 23s23.333 35.666 24 60.999h62c-2 -40 -16.333 -73.333 -43 -100s-61.834 -40 -105.501 -40s-78.834 13.333 -105.501 40s-41 60 -43 100h61
c1.33301 -25.333 9.66602 -45.666 24.999 -60.999z" />
    <glyph glyph-name="Iogonek" unicode="&#x12e;" horiz-adv-x="246" 
d="M85 0v691.999h77v-692c-50.667 -46 -76 -80 -76 -102c0 -12.667 3.83301 -23 11.5 -31s17.5 -12 29.5 -12l51 6l7 -58c-30 -6 -57.333 -9 -82 -9s-45.667 7.83301 -63 23.5s-26 35.334 -26 59.001s8.16699 46.5 24.5 68.5s32.833 40.333 49.5 55h-3z" />
    <glyph glyph-name="iogonek" unicode="&#x12f;" horiz-adv-x="219" 
d="M72 0v499.999h75v-500c-50.667 -45.333 -76 -79.333 -76 -102c0 -12.667 3.83301 -23 11.5 -31s17.5 -12 29.5 -12l51 6l7 -58c-30 -6 -57.333 -9 -82 -9s-45.667 7.83301 -63 23.5s-26 36.834 -26 63.501c0 35.333 25.667 75 77 119h-4zM72 612.999v87h75v-87h-75z" />
    <glyph glyph-name="Idotaccent" unicode="&#x130;" horiz-adv-x="246" 
d="M85 0v692h77v-692h-77zM86 801v87h74v-87h-74z" />
    <glyph glyph-name="dotlessi" unicode="&#x131;" horiz-adv-x="219" 
d="M72 0v500h75v-500h-75z" />
    <glyph glyph-name="Jcircumflex" unicode="&#x134;" horiz-adv-x="289" 
d="M18 -72l-0.000976562 69c48 0 78.833 5.83301 92.5 17.5s20.5 42.167 20.5 91.5v586h76l1 -597c0 -56 -9.33301 -97 -28 -123c-15.333 -22 -45.666 -35.667 -90.999 -41c-18 -2 -41.667 -3 -71 -3zM1.99902 788l134 135h65l134 -135h-84l-82 80l-83 -80h-84z" />
    <glyph glyph-name="jcircumflex" unicode="&#x135;" horiz-adv-x="219" 
d="M73 13v487h74v-488c0 -61.333 -11 -107.333 -33 -138s-66.333 -63 -133 -97l-30 58c51.333 30 84.5 55.667 99.5 77s22.5 55 22.5 101zM-41 592l123 140h51l124 -140h-75l-73 87l-75 -87h-75z" />
    <glyph glyph-name="Kcommaaccent" unicode="&#x136;" horiz-adv-x="568" 
d="M162 0h-77v696h77v-321l113 4l177 317h89l-198 -348l209 -348h-91l-184 306l-115 -4v-302zM264 -78h74l-49 -207h-65z" />
    <glyph glyph-name="kcommaaccent" unicode="&#x137;" horiz-adv-x="479" 
d="M100 -285l40 207h75l-50 -207h-65zM147 0h-75v718h75v-424l78 4l143 202h85l-163 -230l170 -270h-85l-149 232l-79 -3v-229z" />
    <glyph glyph-name="Lacute" unicode="&#x139;" horiz-adv-x="479" 
d="M466 0h-381v696h77v-622h304v-74zM134 831l216 100l26 -66l-219 -87z" />
    <glyph glyph-name="lacute" unicode="&#x13a;" horiz-adv-x="231" 
d="M78 0v718h75v-718h-75zM52 846l216 98l26 -64l-221 -85z" />
    <glyph glyph-name="Lcommaaccent" unicode="&#x13b;" horiz-adv-x="479" 
d="M241 -78h74l-50 -207h-65zM466 0h-381v692h77v-623h304v-69z" />
    <glyph glyph-name="lcommaaccent" unicode="&#x13c;" horiz-adv-x="231" 
d="M78 0v718h75v-718h-75zM74 -78h74l-50 -207h-65z" />
    <glyph glyph-name="Lcaron" unicode="&#x13d;" horiz-adv-x="494" 
d="M439 696v-234h-73v234h73zM466 0h-381v692h77v-623h304v-69z" />
    <glyph glyph-name="lcaron" unicode="&#x13e;" horiz-adv-x="270" 
d="M255 683h74l-49 -207h-66zM78 0v718h75v-718h-75z" />
    <glyph glyph-name="Lslash" unicode="&#x141;" horiz-adv-x="483" 
d="M471 0h-381v272l-57 -40l-37 52l94 66v342h77v-288l142 99l37 -51l-179 -126v-257h304v-69z" />
    <glyph glyph-name="lslash" unicode="&#x142;" horiz-adv-x="310" 
d="M114 0v279l-67 -47l-37 52l104 73v361h75v-309l74 52l37 -52l-111 -78v-331h-75z" />
    <glyph glyph-name="Nacute" unicode="&#x143;" horiz-adv-x="676" 
d="M85 0v692h144l265 -624h21v624h76v-692h-141l-269 624h-19v-624h-77zM220 831l216 100l26 -66l-219 -87z" />
    <glyph glyph-name="nacute" unicode="&#x144;" horiz-adv-x="537" 
d="M72 0v500h74v-35l22 11c15.333 8 35.833 15.667 61.5 23s49.5 11 71.5 11c66.667 0 111.5 -18 134.5 -54s34.5 -100 34.5 -192v-264h-74v262c0 69.333 -6.83301 116.833 -20.5 142.5s-43.667 38.5 -90 38.5s-92.5 -12.333 -138.5 -37v-406h-75zM160 642l216 98l26 -64
l-221 -85z" />
    <glyph glyph-name="Ncommaaccent" unicode="&#x145;" horiz-adv-x="676" 
d="M324 -78h74l-50 -207h-65zM85 0v692h144l265 -624h21v624h76v-692h-141l-269 624h-19v-624h-77z" />
    <glyph glyph-name="ncommaaccent" unicode="&#x146;" horiz-adv-x="537" 
d="M127 -285l41 207h74l-49 -207h-66zM147 0h-74.998v500h74v-35c54 30 105.667 45 155 45c66.667 0 111.5 -18 134.5 -54s34.5 -100 34.5 -192v-264h-74v262c0 69.333 -6.83301 116.833 -20.5 142.5s-42.834 38.5 -87.501 38.5c-21.333 0 -43.833 -3.16699 -67.5 -9.5
s-41.834 -12.5 -54.501 -18.5l-19 -9v-406z" />
    <glyph glyph-name="Ncaron" unicode="&#x147;" horiz-adv-x="676" 
d="M85 0v692h144l265 -624h21v624h76v-692h-141l-269 624h-19v-624h-77zM306 788l-134 135h84l83 -80l82 80h84l-134 -135h-65z" />
    <glyph glyph-name="ncaron" unicode="&#x148;" horiz-adv-x="537" 
d="M147 0h-74.998v500h74v-35c54 30 105.667 45 155 45c66.667 0 111.5 -18 134.5 -54s34.5 -100 34.5 -192v-264h-74v262c0 69.333 -6.83301 116.833 -20.5 142.5s-42.834 38.5 -87.501 38.5c-21.333 0 -43.833 -3.16699 -67.5 -9.5s-41.834 -12.5 -54.501 -18.5l-19 -9
v-406zM242.002 592l-123 140h74l75 -87l74 87h75l-125 -140h-50z" />
    <glyph glyph-name="Eng" unicode="&#x14a;" horiz-adv-x="676" 
d="M85 0l-0.000976562 691.999h144l265 -624h21v624h76v-117l1 -597c0 -56 -9.33301 -97.333 -28 -124c-15.333 -21.333 -45.666 -34.666 -90.999 -39.999c-18 -2 -41.667 -3 -71 -3v69c48 0 78.833 5.83301 92.5 17.5s20.5 42.167 20.5 91.5v11h-65l-269 624h-19v-624h-77z
" />
    <glyph glyph-name="eng" unicode="&#x14b;" horiz-adv-x="538" 
d="M146 0l-74.001 -0.00195312v500h74v-33c58 28.667 110.667 43 158 43c64 0 107.833 -19.167 131.5 -57.5s35.5 -102.5 35.5 -192.5v-262c0 -62 -10.333 -108 -31 -138s-64 -62.333 -130 -97l-32 63c50 28.667 82.167 53.334 96.5 74.001s21.5 52.667 21.5 96v263
c0 66.667 -6.83301 113.834 -20.5 141.501s-41.5 41.5 -83.5 41.5c-19.333 0 -41.166 -3 -65.499 -9s-43.833 -12.333 -58.5 -19l-22 -9v-405z" />
    <glyph glyph-name="Omacron" unicode="&#x14c;" horiz-adv-x="660" 
d="M176 124.5c26.667 -44.333 78.168 -66.502 154.501 -66.502s127.666 21.667 153.999 65s39.5 116 39.5 218s-13.667 176.333 -41 223s-78.5 70 -153.5 70s-126 -23.167 -153 -69.5s-40.5 -120.166 -40.5 -221.499s13.333 -174.166 40 -218.499zM545.001 72.998
c-39.333 -55.333 -110.833 -83.002 -214.5 -83.002s-175.167 28.333 -214.5 85s-59 145.834 -59 267.501s20 212 60 271s111 88.5 213 88.5s173.167 -29.333 213.5 -88s60.5 -149.667 60.5 -273s-19.667 -212.666 -59 -267.999zM174.001 811.996v58h311v-58h-311z" />
    <glyph glyph-name="omacron" unicode="&#x14d;" horiz-adv-x="528" 
d="M429.5 449c32.333 -40.667 48.499 -106.667 48.499 -198s-15.333 -157.666 -46 -198.999s-86.667 -62 -168 -62s-137.333 20.667 -168 62s-46 107.666 -46 198.999s16.333 157.333 49 198s87.834 61 165.501 61s132.667 -20.333 165 -61zM374.999 98.5
c17.333 29 26 80.167 26 153.5s-9.66699 123.833 -29 151.5s-55.166 41.5 -107.499 41.5s-88.333 -13.833 -108 -41.5s-29.5 -78 -29.5 -151s8.83301 -124.167 26.5 -153.5s54.667 -44 111 -44s93.166 14.5 110.499 43.5zM127.999 636v59h275v-59h-275z" />
    <glyph glyph-name="Obreve" unicode="&#x14e;" horiz-adv-x="660" 
d="M176 124.5c26.667 -44.333 78.168 -66.502 154.501 -66.502s127.666 21.667 153.999 65s39.5 116 39.5 218s-13.667 176.333 -41 223s-78.5 70 -153.5 70s-126 -23.167 -153 -69.5s-40.5 -120.166 -40.5 -221.499s13.333 -174.166 40 -218.499zM545.001 72.998
c-39.333 -55.333 -110.833 -83.002 -214.5 -83.002s-175.167 28.333 -214.5 85s-59 145.834 -59 267.501s20 212 60 271s111 88.5 213 88.5s173.167 -29.333 213.5 -88s60.5 -149.667 60.5 -273s-19.667 -212.666 -59 -267.999zM331.001 842.996
c24.667 0 45.3301 7 61.9971 21s25.334 32 26.001 54h70c-2 -39.333 -17.333 -71 -46 -95s-66 -36 -112 -36s-83.167 12 -111.5 36s-43.5 55.667 -45.5 95h69c0.666992 -22 9.33398 -40 26.001 -54s37.334 -21 62.001 -21z" />
    <glyph glyph-name="obreve" unicode="&#x14f;" horiz-adv-x="528" 
d="M429.5 449c32.333 -40.667 48.499 -106.667 48.499 -198s-15.333 -157.666 -46 -198.999s-86.667 -62 -168 -62s-137.333 20.667 -168 62s-46 107.666 -46 198.999s16.333 157.333 49 198s87.834 61 165.501 61s132.667 -20.333 165 -61zM374.999 98.5
c17.333 29 26 80.167 26 153.5s-9.66699 123.833 -29 151.5s-55.166 41.5 -107.499 41.5s-88.333 -13.833 -108 -41.5s-29.5 -78 -29.5 -151s8.83301 -124.167 26.5 -153.5s54.667 -44 111 -44s93.166 14.5 110.499 43.5zM203.999 665
c15.333 -15.333 36.1709 -23 62.5039 -23s47.166 7.66699 62.499 23s23.333 35.666 24 60.999h62c-2 -40 -16.333 -73.333 -43 -100s-61.834 -40 -105.501 -40s-78.834 13.333 -105.501 40s-41 60 -43 100h61c1.33301 -25.333 9.66602 -45.666 24.999 -60.999z" />
    <glyph glyph-name="Ohungarumlaut" unicode="&#x150;" horiz-adv-x="660" 
d="M176 124.5c26.667 -44.333 78.168 -66.502 154.501 -66.502s127.666 21.667 153.999 65s39.5 116 39.5 218s-13.667 176.333 -41 223s-78.5 70 -153.5 70s-126 -23.167 -153 -69.5s-40.5 -120.166 -40.5 -221.499s13.333 -174.166 40 -218.499zM545.001 72.998
c-39.333 -55.333 -110.833 -83.002 -214.5 -83.002s-175.167 28.333 -214.5 85s-59 145.834 -59 267.501s20 212 60 271s111 88.5 213 88.5s173.167 -29.333 213.5 -88s60.5 -149.667 60.5 -273s-19.667 -212.666 -59 -267.999zM348.001 784.996l142 131l55 -35l-146 -129z
M151.001 784.996l142 132l54 -35l-145 -129z" />
    <glyph glyph-name="ohungarumlaut" unicode="&#x151;" horiz-adv-x="528" 
d="M429.5 449c32.333 -40.667 48.499 -106.667 48.499 -198s-15.333 -157.666 -46 -198.999s-86.667 -62 -168 -62s-137.333 20.667 -168 62s-46 107.666 -46 198.999s16.333 157.333 49 198s87.834 61 165.501 61s132.667 -20.333 165 -61zM374.999 98.5
c17.333 29 26 80.167 26 153.5s-9.66699 123.833 -29 151.5s-55.166 41.5 -107.499 41.5s-88.333 -13.833 -108 -41.5s-29.5 -78 -29.5 -151s8.83301 -124.167 26.5 -153.5s54.667 -44 111 -44s93.166 14.5 110.499 43.5zM285.999 624l145 139l54 -43l-148 -138zM92.999 624
l145 138l54 -42l-147 -138z" />
    <glyph glyph-name="OE" unicode="&#x152;" horiz-adv-x="925" 
d="M878 -1h-413c-61.333 -6 -109 -9 -143 -9c-102 0 -171.667 28.167 -209 84.5s-56 147 -56 272s19.333 216.167 58 273.5s107.667 86 207 86c52.667 0 99.667 -3.33301 141 -10h415v-74h-339v-229h279v-74h-279v-245h339v-75zM332 65c34.667 0 78.333 2.33301 131 7v550
c-70 6 -114.333 9 -133 9c-75.333 0 -126.333 -21.667 -153 -65s-40 -116.5 -40 -219.5s13 -175.667 39 -218s78 -63.5 156 -63.5z" />
    <glyph glyph-name="oe" unicode="&#x153;" horiz-adv-x="857" 
d="M763 65l29.0039 2l2 -61c-75.333 -10.667 -140 -16 -194 -16c-79.333 0 -133.333 30.333 -162 91c-14.667 -32 -35.667 -55.167 -63 -69.5s-64 -21.5 -110 -21.5c-82 0 -138.333 20.667 -169 62s-46 107.833 -46 199.5s16.5 157.667 49.5 198s88.167 60.5 165.5 60.5
c45.333 0 82.166 -8.16699 110.499 -24.5s50.166 -43.166 65.499 -80.499c30 70 86.667 105 170 105c67.333 0 117.666 -18.833 150.999 -56.5s50 -96.834 50 -177.501l-4 -58h-330c0 -54.667 10 -95 30 -121s50.667 -39 92 -39s95.666 2.33301 162.999 7zM154.004 101.5
c18 -29.667 54.833 -44.499 110.5 -44.499s92.334 15 110.001 45s26.5 79.667 26.5 149s-10.5 118.5 -31.5 147.5s-56.833 43.5 -107.5 43.5s-85.834 -13.5 -105.501 -40.5s-29.5 -76.333 -29.5 -148s9 -122.334 27 -152.001zM477.004 279.001h260.001
c0 59.333 -9.83301 101.5 -29.5 126.5s-51.834 37.5 -96.501 37.5c-89.333 0 -134 -54.667 -134 -164z" />
    <glyph glyph-name="Racute" unicode="&#x154;" horiz-adv-x="616" 
d="M162 265v-265h-77v692h256c73.333 0 128.5 -17 165.5 -51s55.5 -87 55.5 -159c0 -106.667 -42.333 -173.667 -127 -201l133 -281h-85l-125 265h-196zM341 624h-179v-291h180c94 0 141 48.5 141 145.5s-47.333 145.5 -142 145.5zM187 831l216 100l26 -66l-219 -87z" />
    <glyph glyph-name="racute" unicode="&#x155;" horiz-adv-x="346" 
d="M72 0v499.999h74v-68c58 40 119 66.333 183 79v-76c-28 -5.33301 -57.167 -13.666 -87.5 -24.999s-53.5 -21.333 -69.5 -30l-25 -13v-367h-75zM67 641.999l216 98l26 -64l-221 -85z" />
    <glyph glyph-name="Rcommaaccent" unicode="&#x156;" horiz-adv-x="616" 
d="M245 -285l41 207h74l-50 -207h-65zM162 265v-265h-77v692h256c73.333 0 128.5 -17 165.5 -51s55.5 -87 55.5 -159c0 -106.667 -42.333 -173.667 -127 -201l133 -281h-85l-125 265h-196zM342 333c94 0 141 48.5 141 145.5s-47.333 145.5 -142 145.5h-179v-291h180z" />
    <glyph glyph-name="rcommaaccent" unicode="&#x157;" horiz-adv-x="346" 
d="M72 -78h74l-49 -207h-65zM72 0v499.999h74v-68c58 40 119 66.333 183 79v-76c-28 -5.33301 -57.167 -13.666 -87.5 -24.999s-53.5 -21.333 -69.5 -30l-25 -13v-367h-75z" />
    <glyph glyph-name="Rcaron" unicode="&#x158;" horiz-adv-x="616" 
d="M162 265v-265h-77v692h256c73.333 0 128.5 -17 165.5 -51s55.5 -87 55.5 -159c0 -106.667 -42.333 -173.667 -127 -201l133 -281h-85l-125 265h-196zM342 333c94 0 141 48.5 141 145.5s-47.333 145.5 -142 145.5h-179v-291h180zM268 791l-134 135h84l83 -80l82 80h84
l-134 -135h-65z" />
    <glyph glyph-name="rcaron" unicode="&#x159;" horiz-adv-x="346" 
d="M72 0v499.999h74v-68c58 40 119 66.333 183 79v-76c-28 -5.33301 -57.167 -13.666 -87.5 -24.999s-53.5 -21.333 -69.5 -30l-25 -13v-367h-75zM149 591.999l-123 140h74l75 -87l74 87h75l-125 -140h-50z" />
    <glyph glyph-name="Sacute" unicode="&#x15a;" horiz-adv-x="542" 
d="M276 635c-100 0 -149.998 -37.6641 -149.998 -112.997c0 -42 11.5 -70.833 34.5 -86.5s69.667 -31.334 140 -47.001s120.166 -36 149.499 -61s44 -66.167 44 -123.5c0 -142 -73.667 -213 -221 -213c-48.667 0 -109.667 5.66699 -183 17l-36 5l8 64
c90.667 -12 159.667 -18 207 -18c98.667 0 148 46.333 148 139c0 37.333 -10.833 64.166 -32.5 80.499s-62.167 30.166 -121.5 41.499c-78 16.667 -133.333 38.167 -166 64.5s-49 70.5 -49 132.5c0 124 74.333 186 223 186c48.667 0 107 -5 175 -15l34 -5l-7 -65
c-92.667 11.333 -158.334 17 -197.001 17zM163.002 831.003l216 100l26 -66l-219 -87z" />
    <glyph glyph-name="sacute" unicode="&#x15b;" horiz-adv-x="465" 
d="M229 443c-72.667 0 -108.998 -25.332 -108.998 -75.999c0 -23.333 8.33301 -39.833 25 -49.5s54.667 -19.667 114 -30s101.333 -24.833 126 -43.5s37 -53.667 37 -105s-16.5 -89 -49.5 -113s-81.167 -36 -144.5 -36c-41.333 0 -90 4.66699 -146 14l-30 5l4 65
c76 -11.333 133.333 -17 172 -17s68.167 6.16699 88.5 18.5s30.5 33 30.5 62s-8.66699 48.667 -26 59s-55.333 20.166 -114 29.499s-100.334 23 -125.001 41s-37 51.333 -37 100s17.167 84.667 51.5 108s77.166 35 128.499 35c40.667 0 91.667 -4.66699 153 -14l28 -5
l-2 -64c-74 10.667 -132.333 16 -175 16zM114.002 642.001l216 98l26 -64l-221 -85z" />
    <glyph glyph-name="Scircumflex" unicode="&#x15c;" horiz-adv-x="542" 
d="M276 635c-100 0 -149.998 -37.6641 -149.998 -112.997c0 -42 11.5 -70.833 34.5 -86.5s69.667 -31.334 140 -47.001s120.166 -36 149.499 -61s44 -66.167 44 -123.5c0 -142 -73.667 -213 -221 -213c-48.667 0 -109.667 5.66699 -183 17l-36 5l8 64
c90.667 -12 159.667 -18 207 -18c98.667 0 148 46.333 148 139c0 37.333 -10.833 64.166 -32.5 80.499s-62.167 30.166 -121.5 41.499c-78 16.667 -133.333 38.167 -166 64.5s-49 70.5 -49 132.5c0 124 74.333 186 223 186c48.667 0 107 -5 175 -15l34 -5l-7 -65
c-92.667 11.333 -158.334 17 -197.001 17zM108.002 788.003l134 135h65l134 -135h-84l-82 80l-83 -80h-84z" />
    <glyph glyph-name="scircumflex" unicode="&#x15d;" horiz-adv-x="465" 
d="M229 443c-72.667 0 -108.998 -25.332 -108.998 -75.999c0 -23.333 8.33301 -39.833 25 -49.5s54.667 -19.667 114 -30s101.333 -24.833 126 -43.5s37 -53.667 37 -105s-16.5 -89 -49.5 -113s-81.167 -36 -144.5 -36c-41.333 0 -90 4.66699 -146 14l-30 5l4 65
c76 -11.333 133.333 -17 172 -17s68.167 6.16699 88.5 18.5s30.5 33 30.5 62s-8.66699 48.667 -26 59s-55.333 20.166 -114 29.499s-100.334 23 -125.001 41s-37 51.333 -37 100s17.167 84.667 51.5 108s77.166 35 128.499 35c40.667 0 91.667 -4.66699 153 -14l28 -5
l-2 -64c-74 10.667 -132.333 16 -175 16zM85.002 592.001l123 140h51l124 -140h-75l-73 87l-75 -87h-75z" />
    <glyph glyph-name="Scedilla" unicode="&#x15e;" horiz-adv-x="542" 
d="M410 -127c0 -60 -30.998 -89.9951 -92.998 -89.9951c-30.667 0 -55.667 1.66699 -75 5l-11 2l3 48c26 -2 48 -3 66 -3c29.333 0 44 12.667 44 38c0 22.667 -14.667 34 -44 34h-42v84c-49.333 1.33301 -106.666 7 -171.999 17l-32 5l8 64c90.667 -12 159.667 -18 207 -18
c98.667 0 148 46.333 148 139c0 37.333 -10.833 64.166 -32.5 80.499s-62.167 30.166 -121.5 41.499c-78 16.667 -133.333 38.167 -166 64.5s-49 70.5 -49 132.5c0 124 74.333 186 223 186c48.667 0 107 -5 175 -15l34 -5l-7 -65c-92.667 11.333 -158.334 17 -197.001 17
c-100 0 -150 -37.667 -150 -113c0 -42 11.5 -70.833 34.5 -86.5s69.667 -31.334 140 -47.001s120.166 -36 149.499 -61s44 -66.167 44 -123.5c0 -132.667 -65 -203.334 -195 -212.001v-41c39.333 0 67.666 -5.33301 84.999 -16s26 -31.334 26 -62.001z" />
    <glyph glyph-name="scedilla" unicode="&#x15f;" horiz-adv-x="465" 
d="M356 -127c0 -60 -30.9961 -89.998 -92.9961 -89.998c-30.667 0 -55.667 1.66699 -75 5l-11 2l3 48c26 -2 48 -3 66 -3c29.333 0 44 12.667 44 38c0 22.667 -14.667 34 -44 34h-42v84c-38.667 1.33301 -81.334 6 -128.001 14l-24 4l4 65c76 -11.333 133.333 -17 172 -17
s68.167 6.16699 88.5 18.5s30.5 33 30.5 62s-8.66699 48.667 -26 59s-55.333 20.166 -114 29.499s-100.334 23 -125.001 41s-37 51.333 -37 100s17.167 84.667 51.5 108s77.166 35 128.499 35c40.667 0 91.667 -4.66699 153 -14l28 -5l-2 -64
c-74 10.667 -132.333 16 -175 16c-72.667 0 -109 -25.333 -109 -76c0 -23.333 8.33301 -39.833 25 -49.5s54.667 -19.667 114 -30s101.333 -24.833 126 -43.5s37 -53.167 37 -103.5s-15 -87.5 -45 -111.5s-74 -37 -132 -39v-39c39.333 0 67.666 -5.33301 84.999 -16
s26 -31.334 26 -62.001z" />
    <glyph glyph-name="Scaron" unicode="&#x160;" horiz-adv-x="542" 
d="M276 635c-100 0 -149.998 -37.6641 -149.998 -112.997c0 -42 11.5 -70.833 34.5 -86.5s69.667 -31.334 140 -47.001s120.166 -36 149.499 -61s44 -66.167 44 -123.5c0 -142 -73.667 -213 -221 -213c-48.667 0 -109.667 5.66699 -183 17l-36 5l8 64
c90.667 -12 159.667 -18 207 -18c98.667 0 148 46.333 148 139c0 37.333 -10.833 64.166 -32.5 80.499s-62.167 30.166 -121.5 41.499c-78 16.667 -133.333 38.167 -166 64.5s-49 70.5 -49 132.5c0 124 74.333 186 223 186c48.667 0 107 -5 175 -15l34 -5l-7 -65
c-92.667 11.333 -158.334 17 -197.001 17zM250.002 791.003l-134 135h84l83 -80l82 80h84l-134 -135h-65z" />
    <glyph glyph-name="scaron" unicode="&#x161;" horiz-adv-x="465" 
d="M229 443c-72.667 0 -108.998 -25.332 -108.998 -75.999c0 -23.333 8.33301 -39.833 25 -49.5s54.667 -19.667 114 -30s101.333 -24.833 126 -43.5s37 -53.667 37 -105s-16.5 -89 -49.5 -113s-81.167 -36 -144.5 -36c-41.333 0 -90 4.66699 -146 14l-30 5l4 65
c76 -11.333 133.333 -17 172 -17s68.167 6.16699 88.5 18.5s30.5 33 30.5 62s-8.66699 48.667 -26 59s-55.333 20.166 -114 29.499s-100.334 23 -125.001 41s-37 51.333 -37 100s17.167 84.667 51.5 108s77.166 35 128.499 35c40.667 0 91.667 -4.66699 153 -14l28 -5
l-2 -64c-74 10.667 -132.333 16 -175 16zM216.002 592.001l-123 140h74l75 -87l74 87h75l-125 -140h-50z" />
    <glyph glyph-name="Tcedilla" unicode="&#x162;" horiz-adv-x="0" 
 />
    <glyph glyph-name="tcedilla" unicode="&#x163;" horiz-adv-x="351" 
d="M331 435l-158.999 0.000976562v-239c0 -57.333 4.16699 -95 12.5 -113s28.166 -27 59.499 -27l89 6l5 -62c-44.667 -7.33301 -78.667 -11 -102 -11c-52 0 -88 12.667 -108 38s-30 73.666 -30 144.999v263h-71v65h71v153h74v-153h159v-65zM264.001 -126.999
c0 -60 -30.999 -89.999 -92.999 -89.999c-30.667 0 -55.667 1.66699 -75 5l-11 2l3 48c26 -2 48 -3 66 -3c29.333 0 44 12.667 44 38c0 22.667 -14.667 34 -44 34h-42v94h41v-50c39.333 0 67.666 -5.33301 84.999 -16s26 -31.334 26 -62.001z" />
    <glyph glyph-name="Tcaron" unicode="&#x164;" horiz-adv-x="526" 
d="M13 623v69h500v-69h-211v-623h-76v623h-213zM231 791l-134 135h84l83 -80l82 80h84l-134 -135h-65z" />
    <glyph glyph-name="tcaron" unicode="&#x165;" horiz-adv-x="432" 
d="M331 432l-158 -0.000976562v-233c0 -57.333 4 -94.833 12 -112.5s28 -26.5 60 -26.5l89 5l4 -65c-44 -7.33301 -77.667 -11 -101 -11c-52.667 0 -89 12.833 -109 38.5s-30 73.834 -30 144.501v260h-71v68h71v153h75v-153h158v-68zM442 695.999v-234h-72v234h72z" />
    <glyph glyph-name="Tbar" unicode="&#x166;" horiz-adv-x="529" 
d="M15 623v69h500v-69h-211v-257h164v-66h-164v-300h-76v300h-163v66h163v257h-213z" />
    <glyph glyph-name="tbar" unicode="&#x167;" horiz-adv-x="354" 
d="M333 432l-158 -0.000976562v-120h134v-59h-134v-54c0 -57.333 4 -94.833 12 -112.5s28 -26.5 60 -26.5l89 5l4 -65c-44 -7.33301 -77.667 -11 -101 -11c-52.667 0 -89 12.833 -109 38.5s-30 73.834 -30 144.501v81h-55v59h55v120h-71v68h71v153h75v-153h158v-68z" />
    <glyph glyph-name="Utilde" unicode="&#x168;" horiz-adv-x="644" 
d="M157 208c0 -100 54 -150.001 162 -150.001c56 0 98.167 11.833 126.5 35.5s42.5 61.834 42.5 114.501v484h76v-482c0 -77.333 -20.5 -133.333 -61.5 -168s-101.5 -52 -181.5 -52s-140.167 17.333 -180.5 52s-60.5 90.667 -60.5 168v482h77v-484zM402 802.999
c-14 0 -41.667 9 -83 27s-66.333 27 -75 27c-14.667 0 -35 -12 -61 -36l-13 -12l-17 56c12.667 14.667 27.667 28 45 40s33.666 18 48.999 18s43.333 -9 84 -27s64.334 -27 71.001 -27c13.333 0 32.666 11.667 57.999 35l12 11l18 -56
c-31.333 -37.333 -60.666 -56 -87.999 -56z" />
    <glyph glyph-name="utilde" unicode="&#x169;" horiz-adv-x="531" 
d="M459 500v-499.998h-75v35l-21 -11c-14 -8 -33.333 -15.667 -58 -23s-47.667 -11 -69 -11c-68 0 -113.167 17.667 -135.5 53s-33.5 100.666 -33.5 195.999v261h75v-260c0 -72.667 6.33301 -121.334 19 -146.001s42.5 -37 89.5 -37s91.5 12.333 133.5 37v406h75z
M335 612.002c-14 0 -38.165 7.83301 -72.498 23.5s-55.833 23.5 -64.5 23.5c-15.333 0 -36 -10 -62 -30l-13 -10l-18 48c33.333 34.667 63.666 52 90.999 52c14 0 38.333 -7.66699 73 -23s55.667 -23 63 -23c14.667 0 34.667 9.66699 60 29l12 9l17 -48
c-30.667 -34 -59.334 -51 -86.001 -51z" />
    <glyph glyph-name="Umacron" unicode="&#x16a;" horiz-adv-x="644" 
d="M157 208c0 -100 54 -150.001 162 -150.001c56 0 98.167 11.833 126.5 35.5s42.5 61.834 42.5 114.501v484h76v-482c0 -77.333 -20.5 -133.333 -61.5 -168s-101.5 -52 -181.5 -52s-140.167 17.333 -180.5 52s-60.5 90.667 -60.5 168v482h77v-484zM168 811.999v58h311v-58
h-311z" />
    <glyph glyph-name="umacron" unicode="&#x16b;" horiz-adv-x="531" 
d="M459 500v-499.998h-75v35l-21 -11c-14 -8 -33.333 -15.667 -58 -23s-47.667 -11 -69 -11c-68 0 -113.167 17.667 -135.5 53s-33.5 100.666 -33.5 195.999v261h75v-260c0 -72.667 6.33301 -121.334 19 -146.001s42.5 -37 89.5 -37s91.5 12.333 133.5 37v406h75z
M126 624.002v59h275v-59h-275z" />
    <glyph glyph-name="Ubreve" unicode="&#x16c;" horiz-adv-x="644" 
d="M157 208c0 -100 54 -150.001 162 -150.001c56 0 98.167 11.833 126.5 35.5s42.5 61.834 42.5 114.501v484h76v-482c0 -77.333 -20.5 -133.333 -61.5 -168s-101.5 -52 -181.5 -52s-140.167 17.333 -180.5 52s-60.5 90.667 -60.5 168v482h77v-484zM262.5 863.999
c17 -14 37.666 -21 61.999 -21s44.833 7 61.5 21s25.334 32 26.001 54h70c-2 -39.333 -17.333 -71 -46 -95s-66 -36 -112 -36s-83.167 12 -111.5 36s-43.5 55.667 -45.5 95h69c0.666992 -22 9.5 -40 26.5 -54z" />
    <glyph glyph-name="ubreve" unicode="&#x16d;" horiz-adv-x="531" 
d="M459 500v-499.998h-75v35l-21 -11c-14 -8 -33.333 -15.667 -58 -23s-47.667 -11 -69 -11c-68 0 -113.167 17.667 -135.5 53s-33.5 100.666 -33.5 195.999v261h75v-260c0 -72.667 6.33301 -121.334 19 -146.001s42.5 -37 89.5 -37s91.5 12.333 133.5 37v406h75z
M197 665.002c15.333 -15.333 36.1709 -23 62.5039 -23s47.166 7.66699 62.499 23s23.333 35.666 24 60.999h62c-2 -40 -16.333 -73.333 -43 -100s-61.834 -40 -105.501 -40s-78.834 13.333 -105.501 40s-41 60 -43 100h61c1.33301 -25.333 9.66602 -45.666 24.999 -60.999z
" />
    <glyph glyph-name="Uring" unicode="&#x16e;" horiz-adv-x="644" 
d="M157 208c0 -100 54 -150.001 162 -150.001c56 0 98.167 11.833 126.5 35.5s42.5 61.834 42.5 114.501v484h76v-482c0 -77.333 -20.5 -133.333 -61.5 -168s-101.5 -52 -181.5 -52s-140.167 17.333 -180.5 52s-60.5 90.667 -60.5 168v482h77v-484zM409 922.999
c22 -18.667 33 -44.5 33 -77.5s-11 -58.833 -33 -77.5s-50.5 -28 -85.5 -28s-63.5 9.33301 -85.5 28s-33 44.5 -33 77.5s11.167 58.833 33.5 77.5s50.833 28 85.5 28s63 -9.33301 85 -28zM262 845.999c0 -16.667 5.5 -29.834 16.5 -39.501s26.167 -14.5 45.5 -14.5
s34.5 4.83301 45.5 14.5s16.5 22.834 16.5 39.501s-5.5 29.667 -16.5 39s-26.167 14 -45.5 14c-41.333 0 -62 -17.667 -62 -53z" />
    <glyph glyph-name="uring" unicode="&#x16f;" horiz-adv-x="531" 
d="M459 500v-499.998h-75v35l-21 -11c-14 -8 -33.333 -15.667 -58 -23s-47.667 -11 -69 -11c-68 0 -113.167 17.667 -135.5 53s-33.5 100.666 -33.5 195.999v261h75v-260c0 -72.667 6.33301 -121.334 19 -146.001s42.5 -37 89.5 -37s91.5 12.333 133.5 37v406h75z
M161 645.002c0 29.333 10 54 30 74s44.5 30 73.5 30s53.5 -10 73.5 -30s30 -44.667 30 -74s-9.83301 -54 -29.5 -74s-44.167 -30 -73.5 -30s-54 10 -74 30s-30 44.667 -30 74zM226 684.502c-10.667 -11 -16 -24.333 -16 -40s5.33301 -29 16 -40s23.667 -16.5 39 -16.5
s28.333 5.5 39 16.5s16 24.333 16 40s-5.33301 29 -16 40s-23.667 16.5 -39 16.5s-28.333 -5.5 -39 -16.5z" />
    <glyph glyph-name="Uhungarumlaut" unicode="&#x170;" horiz-adv-x="644" 
d="M157 208c0 -100 54 -150.001 162 -150.001c56 0 98.167 11.833 126.5 35.5s42.5 61.834 42.5 114.501v484h76v-482c0 -77.333 -20.5 -133.333 -61.5 -168s-101.5 -52 -181.5 -52s-140.167 17.333 -180.5 52s-60.5 90.667 -60.5 168v482h77v-484zM352 784.999l142 131
l55 -35l-146 -129zM155 784.999l142 132l54 -35l-145 -129z" />
    <glyph glyph-name="uhungarumlaut" unicode="&#x171;" horiz-adv-x="531" 
d="M459 500v-499.998h-75v35l-21 -11c-14 -8 -33.333 -15.667 -58 -23s-47.667 -11 -69 -11c-68 0 -113.167 17.667 -135.5 53s-33.5 100.666 -33.5 195.999v261h75v-260c0 -72.667 6.33301 -121.334 19 -146.001s42.5 -37 89.5 -37s91.5 12.333 133.5 37v406h75z
M301 624.002l145 139l54 -43l-148 -138zM108 624.002l145 138l54 -42l-147 -138z" />
    <glyph glyph-name="Uogonek" unicode="&#x172;" horiz-adv-x="645" 
d="M157 208c0 -100 54 -150.002 162 -150.002c56 0 98.167 11.833 126.5 35.5s42.5 61.834 42.5 114.501v484h76v-482c0 -117.333 -50.333 -187.333 -151 -210l-9 -9c-40 -42.667 -60 -73.667 -60 -93c0 -12.667 3.83301 -23 11.5 -31s17.5 -12 29.5 -12l50 6l7 -58
c-30 -6 -57.333 -9 -82 -9s-45.667 7.83301 -63 23.5s-26 37.834 -26 66.501s21 64 63 106h-15c-78.667 0 -138.167 17.333 -178.5 52s-60.5 90.667 -60.5 168v482h77v-484z" />
    <glyph glyph-name="uogonek" unicode="&#x173;" horiz-adv-x="531" 
d="M384 500l74.998 0.000976562v-500c-16.667 -12.667 -33.667 -30.167 -51 -52.5s-26 -39.333 -26 -51s3.83301 -21.5 11.5 -29.5s17.5 -12 29.5 -12l51 6l7 -58c-30 -6 -57.333 -9 -82 -9s-45.667 7.83301 -63 23.5s-26 35.334 -26 59.001s8.5 46.5 25.5 68.5
s34.5 40.333 52.5 55h-4v32c-52 -28 -101.333 -42 -148 -42c-68 0 -113.167 17.667 -135.5 53s-33.5 100.666 -33.5 195.999v261h75v-260c0 -72.667 6.33301 -121.334 19 -146.001s41.334 -37 86.001 -37c20 0 41.333 3.16699 64 9.5s40.334 12.5 53.001 18.5l20 9v406z" />
    <glyph glyph-name="Wcircumflex" unicode="&#x174;" horiz-adv-x="886" 
d="M30 692h80l118 -624h29l141 618h90l141 -618h29l118 624h79l-140 -692h-141l-131 591l-131 -591h-141zM277 788l134 135h65l134 -135h-84l-82 80l-83 -80h-84z" />
    <glyph glyph-name="wcircumflex" unicode="&#x175;" horiz-adv-x="762" 
d="M31 500h75l101 -435h16l119 425h78l119 -425h17l100 435h75l-119 -500h-125l-106 391l-106 -391h-125zM233 592l123 140h51l124 -140h-75l-73 87l-75 -87h-75z" />
    <glyph glyph-name="Ycircumflex" unicode="&#x176;" horiz-adv-x="538" 
d="M308 0h-77v291l-221 401h87l172 -324l172 324h87l-220 -401v-291zM104 791l134 135h65l134 -135h-84l-82 80l-83 -80h-84z" />
    <glyph glyph-name="ycircumflex" unicode="&#x177;" horiz-adv-x="483" 
d="M25 500h75l125 -435h33l126 435h75l-208 -722h-75l65 222h-74zM95 592l123 140h51l124 -140h-75l-73 87l-75 -87h-75z" />
    <glyph glyph-name="Ydieresis" unicode="&#x178;" horiz-adv-x="538" 
d="M308 0h-77v291l-221 401h87l172 -324l172 324h87l-220 -401v-291zM130 808v90h73v-90h-73zM334 808v90h72v-90h-72z" />
    <glyph glyph-name="Zacute" unicode="&#x179;" horiz-adv-x="536" 
d="M43 624v68h450v-90l-362 -514v-20h362v-69h-450v89l361 514v22h-361zM153 831l216 100l26 -66l-219 -87z" />
    <glyph glyph-name="zacute" unicode="&#x17a;" horiz-adv-x="455" 
d="M42 500h371v-67l-280 -366h280v-67h-371v67l280 366h-280v67zM113 642l216 98l26 -64l-221 -85z" />
    <glyph glyph-name="Zdotaccent" unicode="&#x17b;" horiz-adv-x="536" 
d="M43 624v68h450v-90l-362 -514v-20h362v-69h-450v89l361 514v22h-361zM230 801v87h74v-87h-74z" />
    <glyph glyph-name="zdotaccent" unicode="&#x17c;" horiz-adv-x="455" 
d="M42 500h371v-67l-280 -366h280v-67h-371v67l280 366h-280v67zM190 609v87h74v-87h-74z" />
    <glyph glyph-name="Zcaron" unicode="&#x17d;" horiz-adv-x="536" 
d="M43 624v68h450v-90l-362 -514v-20h362v-69h-450v89l361 514v22h-361zM243 791l-134 135h84l83 -80l82 80h84l-134 -135h-65z" />
    <glyph glyph-name="zcaron" unicode="&#x17e;" horiz-adv-x="455" 
d="M42 433v67h371v-67l-280 -366h280v-67h-371v67l280 366h-280zM205 592l-123 140h74l75 -87l74 87h75l-125 -140h-50z" />
    <glyph glyph-name="florin" unicode="&#x192;" 
d="M281 -55c0 -67.333 -11.167 -114.167 -33.5 -140.5s-59.166 -39.5 -110.499 -39.5c-25.333 0 -53 2 -83 6l-15 2l1 64c40 -3.33301 71.667 -5 95 -5s41 8.5 53 25.5s18 46.5 18 88.5v420h-63v64h63v54c0 65.333 9.16699 115.833 27.5 151.5s54.166 53.5 107.499 53.5
c18.667 0 46.667 -2.33301 84 -7l16 -2l-1 -63c-30 2.66699 -58.333 4 -85 4c-49.333 0 -74 -38.333 -74 -115v-76h145v-64h-145v-421z" />
    <glyph glyph-name="Aringacute" unicode="&#x1fa;" horiz-adv-x="596" 
d="M383 823c22 -18.667 33 -43.6689 33 -75.002s-9.66699 -56.666 -29 -75.999l185 -672h-76l-50 178h-296l-50 -178h-76l184 671c-19.333 19.333 -29 44.833 -29 76.5s11.167 56.834 33.5 75.501s50.833 28 85.5 28s63 -9.33301 85 -28zM272 625.998l-105 -379h262
l-105 379h-52zM170 923.998l216 100l26 -66l-219 -87zM236 745.998c0 -16.667 5.5 -29.834 16.5 -39.501s26.167 -14.5 45.5 -14.5s34.5 4.83301 45.5 14.5s16.5 22.834 16.5 39.501s-5.5 29.667 -16.5 39s-26.167 14 -45.5 14c-41.333 0 -62 -17.667 -62 -53z" />
    <glyph glyph-name="aringacute" unicode="&#x1fb;" horiz-adv-x="501" 
d="M425 349l-0.00195312 -255.999c2 -24.667 21.333 -39.334 58 -44.001l-3 -59c-52.667 0 -92.334 13.333 -119.001 40c-60 -26.667 -120 -40 -180 -40c-46 0 -81 13 -105 39s-36 63.333 -36 112s12.333 84.5 37 107.5s63.334 37.167 116.001 42.5l157 15v43
c0 34 -7.33301 58.333 -22 73s-34.667 22 -60 22c-53.333 0 -108.666 -3.33301 -165.999 -10l-31 -3l-3 57c73.333 14.667 138.333 22 195 22s97.834 -13 123.501 -39s38.5 -66.667 38.5 -122zM116.998 145.001c0 -61.333 25.333 -91.999 76 -91.999
c45.333 0 90 7.66699 134 23l23 8v165l-148 -14c-30 -2.66699 -51.667 -11.334 -65 -26.001s-20 -36 -20 -64zM141.998 645.002c0 29.333 10 54 30 74s44.5 30 73.5 30s53.5 -10 73.5 -30s30 -44.667 30 -74s-9.83301 -54 -29.5 -74s-44.167 -30 -73.5 -30s-54 10 -74 30
s-30 44.667 -30 74zM206.998 684.502c-10.667 -11 -16 -24.333 -16 -40s5.33301 -29 16 -40s23.667 -16.5 39 -16.5s28.333 5.5 39 16.5s16 24.333 16 40s-5.33301 29 -16 40s-23.667 16.5 -39 16.5s-28.333 -5.5 -39 -16.5zM131.998 824.002l216 98l26 -64l-221 -85z" />
    <glyph glyph-name="AEacute" unicode="&#x1fc;" horiz-adv-x="876" 
d="M408 0v175h-251l-58 -175h-79l224 696h585v-73h-345v-230h285v-73h-285v-247h345v-73h-421zM300 623l-122 -374h230l1 374h-109zM413 831l216 100l26 -66l-219 -87z" />
    <glyph glyph-name="aeacute" unicode="&#x1fd;" horiz-adv-x="804" 
d="M710 65l29 2.00293l2 -61c-75.333 -10.667 -143 -16 -203 -16s-106 18 -138 54l-32 -14c-58 -26.667 -122 -40 -192 -40c-44.667 0 -78.5 13.167 -101.5 39.5s-34.5 65.166 -34.5 116.499s13.667 87.166 41 107.499s74 33.833 140 40.5l129 12v41c0 60.667 -29 91 -87 91
c-44 0 -97 -2.66699 -159 -8l-31 -2l-3 67c79.333 10 145 15 197 15c68 0 113 -24.333 135 -73c32 48.667 82.833 73 152.5 73s121.167 -18.833 154.5 -56.5s50 -96.834 50 -177.501l-4 -58h-330c0 -54.667 10 -95 30 -121s50.5 -39 91.5 -39s95.5 2.33301 163.5 7z
M188 55.0029c30.667 0 65.667 4.83301 105 14.5s64 17.167 74 22.5c-12.667 34 -19 85 -19 153l-146 -12c-29.333 -2.66699 -50.833 -11 -64.5 -25s-20.5 -35 -20.5 -63c0 -60 23.667 -90 71 -90zM425 279.003h258.999c0 59.333 -9.83301 101.5 -29.5 126.5
s-51.667 37.5 -96 37.5s-77.666 -13 -99.999 -39s-33.5 -67.667 -33.5 -125zM289.999 642.003l216 98l26 -64l-221 -85z" />
    <glyph glyph-name="Oslashacute" unicode="&#x1fe;" horiz-adv-x="662" 
d="M331 -10c-46 0 -86 5.66699 -120 17l-57 -123l-57 26l59 126c-35.333 26.667 -60.5 65 -75.5 115s-22.5 114 -22.5 192c0 121.333 20 211.5 60 270.5s111 88.5 213 88.5c50 0 92 -7 126 -21l56 118l58 -24l-59 -127c62 -52 93 -153.667 93 -305
c0 -124.667 -19.667 -214.667 -59 -270s-111 -83 -215 -83zM177.5 564.5c-27 -46.333 -40.5 -124.332 -40.5 -233.999s17.333 -183.834 52 -222.501l238 507c-25.333 12.667 -57.333 19 -96 19c-75.333 0 -126.5 -23.167 -153.5 -69.5zM331 58.001
c76.667 0 128.166 21.668 154.499 65.001s39.5 118.666 39.5 225.999s-16 182.333 -48 225l-235 -502c22.667 -9.33301 52.334 -14 89.001 -14zM208.999 831.002l216 100l26 -66l-219 -87z" />
    <glyph glyph-name="oslashacute" unicode="&#x1ff;" horiz-adv-x="528" 
d="M264 510c26 0 50.666 -2.66699 73.999 -8l43 104l50 -19l-43 -104c60 -33.333 90 -109 90 -227c0 -94.667 -15.333 -162.667 -46 -204s-86.667 -62 -168 -62c-27.333 0 -52.666 2.66699 -75.999 8l-43 -110l-50 18l44 109c-32.667 18 -55.667 46.333 -69 85
s-20 90.667 -20 156c0 88 16.333 152.333 49 193s87.667 61 165 61zM263.999 445c-52 0 -87.834 -13.832 -107.501 -41.499s-29.5 -71.334 -29.5 -131.001s2.83301 -103.167 8.5 -130.5s16.834 -48 33.501 -62l145 359c-14 4 -30.667 6 -50 6zM263.998 55.001
c56.667 0 93.667 14.5 111 43.5s26 83 26 162s-14 131.167 -42 156.5l-146 -357c12 -3.33301 29 -5 51 -5zM143.998 642.001l216 98l26 -64l-221 -85z" />
    <glyph glyph-name="Scommaaccent" unicode="&#x218;" horiz-adv-x="542" 
d="M249 -78h74l-49 -207h-65zM276 635c-100 0 -149.998 -37.6641 -149.998 -112.997c0 -42 11.5 -70.833 34.5 -86.5s69.667 -31.334 140 -47.001s120.166 -36 149.499 -61s44 -66.167 44 -123.5c0 -142 -73.667 -213 -221 -213c-48.667 0 -109.667 5.66699 -183 17l-36 5
l8 64c90.667 -12 159.667 -18 207 -18c98.667 0 148 46.333 148 139c0 37.333 -10.833 64.166 -32.5 80.499s-62.167 30.166 -121.5 41.499c-78 16.667 -133.333 38.167 -166 64.5s-49 70.5 -49 132.5c0 124 74.333 186 223 186c48.667 0 107 -5 175 -15l34 -5l-7 -65
c-92.667 11.333 -158.334 17 -197.001 17z" />
    <glyph glyph-name="scommaaccent" unicode="&#x219;" horiz-adv-x="465" 
d="M151 -78h75l-50 -207h-65zM229 443c-72.667 0 -108.998 -25.332 -108.998 -75.999c0 -23.333 8.33301 -39.833 25 -49.5s54.667 -19.667 114 -30s101.333 -24.833 126 -43.5s37 -53.667 37 -105s-16.5 -89 -49.5 -113s-81.167 -36 -144.5 -36
c-41.333 0 -90 4.66699 -146 14l-30 5l4 65c76 -11.333 133.333 -17 172 -17s68.167 6.16699 88.5 18.5s30.5 33 30.5 62s-8.66699 48.667 -26 59s-55.333 20.166 -114 29.499s-100.334 23 -125.001 41s-37 51.333 -37 100s17.167 84.667 51.5 108s77.166 35 128.499 35
c40.667 0 91.667 -4.66699 153 -14l28 -5l-2 -64c-74 10.667 -132.333 16 -175 16z" />
    <glyph glyph-name="Tcommaaccent" unicode="&#x21a;" horiz-adv-x="526" 
d="M246 -78h75l-50 -207h-65zM13 623v69h500v-69h-211v-623h-76v623h-213z" />
    <glyph glyph-name="tcommaaccent" unicode="&#x21b;" horiz-adv-x="351" 
d="M141 -78h75l-50 -207h-65zM331 435l-158.999 0.000976562v-239c0 -57.333 4.16699 -95 12.5 -113s28.166 -27 59.499 -27l89 6l5 -62c-44.667 -7.33301 -78.667 -11 -102 -11c-52 0 -88 12.667 -108 38s-30 73.666 -30 144.999v263h-71v65h71v153h74v-153h159v-65z" />
    <glyph glyph-name="circumflex" unicode="&#x2c6;" horiz-adv-x="236" 
d="M-19 592l123 140h51l124 -140h-75l-73 87l-75 -87h-75z" />
    <glyph glyph-name="caron" unicode="&#x2c7;" horiz-adv-x="236" 
d="M106 592l-123 140h74l75 -87l74 87h75l-125 -140h-50z" />
    <glyph glyph-name="breve" unicode="&#x2d8;" horiz-adv-x="236" 
d="M69 665c15.333 -15.333 36.1709 -23 62.5039 -23s47.166 7.66699 62.499 23s23.333 35.666 24 60.999h62c-2 -40 -16.333 -73.333 -43 -100s-61.834 -40 -105.501 -40s-78.834 13.333 -105.501 40s-41 60 -43 100h61c1.33301 -25.333 9.66602 -45.666 24.999 -60.999z
" />
    <glyph glyph-name="dotaccent" unicode="&#x2d9;" horiz-adv-x="236" 
d="M81 609v87h74v-87h-74z" />
    <glyph glyph-name="ring" unicode="&#x2da;" horiz-adv-x="236" 
d="M18 645c0 29.333 10 54 30 74s44.5 30 73.5 30s53.5 -10 73.5 -30s30 -44.667 30 -74s-9.83301 -54 -29.5 -74s-44.167 -30 -73.5 -30s-54 10 -74 30s-30 44.667 -30 74zM83 684.5c-10.667 -11 -16 -24.333 -16 -40s5.33301 -29 16 -40s23.667 -16.5 39 -16.5
s28.333 5.5 39 16.5s16 24.333 16 40s-5.33301 29 -16 40s-23.667 16.5 -39 16.5s-28.333 -5.5 -39 -16.5z" />
    <glyph glyph-name="ogonek" unicode="&#x2db;" horiz-adv-x="450" 
d="M261 -102c0 -12.667 3.83301 -23 11.5 -31s17.5 -12 29.5 -12l50 6l7 -58c-30 -6 -57.333 -9 -82 -9s-45.667 7.83301 -63 23.5s-26 34.5 -26 56.5s7 43.667 21 65s27.667 38.333 41 51l21 18l61 -7c-47.333 -46.667 -71 -81 -71 -103z" />
    <glyph glyph-name="tilde" unicode="&#x2dc;" horiz-adv-x="236" 
d="M200 612c-14 0 -38.165 7.83301 -72.498 23.5s-55.833 23.5 -64.5 23.5c-15.333 0 -36 -10 -62 -30l-13 -10l-18 48c33.333 34.667 63.666 52 90.999 52c14 0 38.333 -7.66699 73 -23s56 -23 64 -23c14 0 33.333 9.66699 58 29l13 9l17 -48
c-30.667 -34 -59.334 -51 -86.001 -51z" />
    <glyph glyph-name="hungarumlaut" unicode="&#x2dd;" horiz-adv-x="236" 
d="M142 624l145 139l54 -43l-148 -138zM-51 624l145 138l54 -42l-147 -138z" />
    <glyph glyph-name="pi" unicode="&#x3c0;" 
d="M359 154l0.00292969 280.999h-156l-28 -435h-76l31 435c-36 0 -68 -3.33301 -96 -10l-12 -3v63c39.333 10 86.666 15 141.999 15h235c43.333 0 81.666 3.33301 114.999 10l16 4v-63c-18.667 -8 -50.667 -12.667 -96 -14v-283c0 -37.333 5.66699 -62.166 17 -74.499
s34.666 -18.5 69.999 -18.5v-65c-66 0 -109.5 10.333 -130.5 31s-31.5 63 -31.5 127z" />
    <glyph glyph-name="Wgrave" unicode="&#x1e80;" horiz-adv-x="886" 
d="M30 692h80l118 -624h29l141 618h90l141 -618h29l118 624h79l-140 -692h-141l-131 591l-131 -591h-141zM346 931l216 -100l-23 -53l-219 87z" />
    <glyph glyph-name="wgrave" unicode="&#x1e81;" horiz-adv-x="762" 
d="M31 500h75l101 -435h16l119 425h78l119 -425h17l100 435h75l-119 -500h-125l-106 391l-106 -391h-125zM265 740l216 -98l-21 -51l-221 85z" />
    <glyph glyph-name="Wacute" unicode="&#x1e82;" horiz-adv-x="886" 
d="M30 692h80l118 -624h29l141 618h90l141 -618h29l118 624h79l-140 -692h-141l-131 591l-131 -591h-141zM332 831l216 100l26 -66l-219 -87z" />
    <glyph glyph-name="wacute" unicode="&#x1e83;" horiz-adv-x="762" 
d="M31 500h75l101 -435h16l119 425h78l119 -425h17l100 435h75l-119 -500h-125l-106 391l-106 -391h-125zM277 642l216 98l26 -64l-221 -85z" />
    <glyph glyph-name="Wdieresis" unicode="&#x1e84;" horiz-adv-x="886" 
d="M30 692h80l118 -624h29l141 618h90l141 -618h29l118 624h79l-140 -692h-141l-131 591l-131 -591h-141zM304 808v90h73v-90h-73zM508 808v90h72v-90h-72z" />
    <glyph glyph-name="wdieresis" unicode="&#x1e85;" horiz-adv-x="762" 
d="M31 500h75l101 -435h16l119 425h78l119 -425h17l100 435h75l-119 -500h-125l-106 391l-106 -391h-125zM246 621v90h72v-90h-72zM446 621v90h73v-90h-73z" />
    <glyph glyph-name="uni1EAB" unicode="&#x1eab;" horiz-adv-x="501" 
d="M425 349l-0.00195312 -255.999c2 -24.667 21.333 -39.334 58 -44.001l-3 -59c-52.667 0 -92.334 13.333 -119.001 40c-60 -26.667 -120 -40 -180 -40c-46 0 -81 13 -105 39s-36 63.333 -36 112s12.333 84.5 37 107.5s63.334 37.167 116.001 42.5l157 15v43
c0 34 -7.33301 58.333 -22 73s-34.667 22 -60 22c-53.333 0 -108.666 -3.33301 -165.999 -10l-31 -3l-3 57c73.333 14.667 138.333 22 195 22s97.834 -13 123.501 -39s38.5 -66.667 38.5 -122zM116.998 145.001c0 -61.333 25.333 -91.999 76 -91.999
c45.333 0 90 7.66699 134 23l23 8v165l-148 -14c-30 -2.66699 -51.667 -11.334 -65 -26.001s-20 -36 -20 -64zM86.998 562.002l123 140h51l124 -140h-75l-73 87l-75 -87h-75zM298.998 736.002c-14 0 -38.165 7.83301 -72.498 23.5s-55.833 23.5 -64.5 23.5
c-15.333 0 -36 -10 -62 -30l-13 -10l-18 48c33.333 34.667 63.666 52 90.999 52c14 0 38.333 -7.66699 73 -23s55.667 -23 63 -23c14.667 0 34.667 9.66699 60 29l12 9l17 -48c-30.667 -34 -59.334 -51 -86.001 -51z" />
    <glyph glyph-name="uni1EB0" unicode="&#x1eb0;" horiz-adv-x="594" 
d="M24 0l190 696h168l188 -695h-77l-52 174h-290l-51 -175h-76zM272 625l-103 -376h255l-102 376h-50zM234.5 830c17 -14 37.666 -21 61.999 -21s44.833 7 61.5 21s25.334 32 26.001 54h70c-2 -39.333 -17.333 -71 -46 -95s-66 -36 -112 -36s-83.167 12 -111.5 36
s-43.5 55.667 -45.5 95h69c0.666992 -22 9.5 -40 26.5 -54zM145.999 1082l216 -98l-21 -51l-221 85z" />
    <glyph glyph-name="uni1EC5" unicode="&#x1ec5;" horiz-adv-x="506" 
d="M257 58c34 0 85.668 2.33398 155.001 7.00098l29 2l2 -61c-76 -10.667 -141 -16 -195 -16c-72 0 -123 20.833 -153 62.5s-45 106.5 -45 194.5c0 175.333 69.667 263 209 263c67.333 0 117.666 -18.833 150.999 -56.5s50 -96.834 50 -177.501l-4 -58h-330
c0 -54.667 10 -95 30 -121s53.667 -39 101 -39zM385.001 279.001c0 59.333 -9.83105 101.5 -29.498 126.5s-51.834 37.5 -96.501 37.5c-88.667 0 -133.334 -54.667 -134.001 -164h260zM108.003 562.001l123 140h51l124 -140h-75l-73 87l-75 -87h-75zM323.003 736.001
c-14 0 -38.165 7.83301 -72.498 23.5s-55.833 23.5 -64.5 23.5c-15.333 0 -36 -10 -62 -30l-13 -10l-18 48c33.333 34.667 63.666 52 90.999 52c14 0 38.333 -7.66699 73 -23s55.667 -23 63 -23c14.667 0 34.667 9.66699 60 29l12 9l17 -48
c-30.667 -34 -59.334 -51 -86.001 -51z" />
    <glyph glyph-name="uni1ED7" unicode="&#x1ed7;" horiz-adv-x="528" 
d="M429.5 449c32.333 -40.667 48.499 -106.667 48.499 -198s-15.333 -157.666 -46 -198.999s-86.667 -62 -168 -62s-137.333 20.667 -168 62s-46 107.666 -46 198.999s16.333 157.333 49 198s87.834 61 165.501 61s132.667 -20.333 165 -61zM374.999 98.5
c17.333 29 26 80.167 26 153.5s-9.66699 123.833 -29 151.5s-55.166 41.5 -107.499 41.5s-88.333 -13.833 -108 -41.5s-29.5 -78 -29.5 -151s8.83301 -124.167 26.5 -153.5s54.667 -44 111 -44s93.166 14.5 110.499 43.5zM109.999 562l123 140h51l124 -140h-75l-73 87
l-75 -87h-75zM317.999 736c-14 0 -38.165 7.83301 -72.498 23.5s-55.833 23.5 -64.5 23.5c-15.333 0 -36 -10 -62 -30l-13 -10l-18 48c33.333 34.667 63.666 52 90.999 52c14 0 38.333 -7.66699 73 -23s56 -23 64 -23c14 0 33.333 9.66699 58 29l13 9l17 -48
c-30.667 -34 -59.334 -51 -86.001 -51z" />
    <glyph glyph-name="Ygrave" unicode="&#x1ef2;" horiz-adv-x="538" 
d="M308 0h-77v291l-221 401h87l172 -324l172 324h87l-220 -401v-291zM166 931l216 -100l-23 -53l-219 87z" />
    <glyph glyph-name="ygrave" unicode="&#x1ef3;" horiz-adv-x="483" 
d="M25 500h75l125 -435h33l126 435h75l-208 -722h-75l65 222h-74zM130 740l216 -98l-21 -51l-221 85z" />
    <glyph glyph-name="uni1EF8" unicode="&#x1ef8;" horiz-adv-x="531" 
d="M305 0h-77v299l-220 397h86l172 -312l170 312h87l-218 -398v-298zM333 808c-14 0 -38.165 7.83301 -72.498 23.5s-55.833 23.5 -64.5 23.5c-15.333 0 -36 -10 -62 -30l-13 -10l-18 48c33.333 34.667 63.666 52 90.999 52c14 0 38.333 -7.66699 73 -23s55.667 -23 63 -23
c14.667 0 34.667 9.66699 60 29l12 9l17 -48c-30.667 -34 -59.334 -51 -86.001 -51z" />
    <glyph glyph-name="uni1EF9" unicode="&#x1ef9;" horiz-adv-x="483" 
d="M25 500h75l125 -428h33l126 428h75l-208 -722h-75l64 222h-73zM308 612c-14 0 -38.165 7.83301 -72.498 23.5s-55.833 23.5 -64.5 23.5c-15.333 0 -36 -10 -62 -30l-13 -10l-18 48c33.333 34.667 63.666 52 90.999 52c14 0 38.333 -7.66699 73 -23s56 -23 64 -23
c14 0 33.333 9.66699 58 29l13 9l17 -48c-30.667 -34 -59.334 -51 -86.001 -51z" />
    <glyph glyph-name="endash" unicode="&#x2013;" horiz-adv-x="631" 
d="M66 301h500v-66h-500v66z" />
    <glyph glyph-name="emdash" unicode="&#x2014;" horiz-adv-x="1131" 
d="M66 301h1000v-66h-1000v66z" />
    <glyph glyph-name="quoteleft" unicode="&#x2018;" horiz-adv-x="219" 
d="M174 708l-44 -219h-79l64 219h59z" />
    <glyph glyph-name="quoteright" unicode="&#x2019;" horiz-adv-x="216" 
d="M53 489l44 219h79l-64 -219h-59z" />
    <glyph glyph-name="quotesinglbase" unicode="&#x201a;" horiz-adv-x="218" 
d="M93 22l-9 -43h-16l13 43h12z" />
    <glyph glyph-name="quotedblleft" unicode="&#x201c;" horiz-adv-x="373" 
d="M327 708l-44 -219h-79l64 219h59zM174 708l-44 -219h-79l64 219h59z" />
    <glyph glyph-name="quotedblright" unicode="&#x201d;" horiz-adv-x="377" 
d="M53 490l44 219h79l-64 -219h-59zM213 490l44 219h79l-64 -219h-59z" />
    <glyph glyph-name="quotedblbase" unicode="&#x201e;" horiz-adv-x="359" 
d="M145 112l-44 -219h-79l64 219h59zM297 112l-44 -219h-79l64 219h59z" />
    <glyph glyph-name="dagger" unicode="&#x2020;" horiz-adv-x="478" 
d="M34 434v66h168v192h74v-192h168v-66h-168l-4 -510h-66l-4 510h-168z" />
    <glyph glyph-name="daggerdbl" unicode="&#x2021;" horiz-adv-x="521" 
d="M223 -76v192h-168v65h168v253h-168v66h168v192h75v-192h167v-66h-167v-253h168v-65h-168v-192h-75z" />
    <glyph glyph-name="bullet" unicode="&#x2022;" horiz-adv-x="473" 
d="M111 106v286h250v-286h-250z" />
    <glyph glyph-name="ellipsis" unicode="&#x2026;" horiz-adv-x="725" 
d="M67 0v114h82v-114h-82zM322 0v114h81v-114h-81zM576 0v114h82v-114h-82z" />
    <glyph glyph-name="perthousand" unicode="&#x2030;" horiz-adv-x="835" 
d="M148 619c-18 0 -30.833 -7.00195 -38.5 -21.002s-11.5 -36 -11.5 -66c0 -60 16.667 -90 50 -90c18 0 30.667 7.33301 38 22s11 37.334 11 68.001s-3.66699 52.834 -11 66.501s-20 20.5 -38 20.5zM165 -4.00195l205 685l48 -16l-206 -683zM148 669.998
c73.333 0 110 -46.001 110 -138.001c0 -47.333 -9.66699 -82.666 -29 -105.999s-46.333 -35 -81 -35c-73.333 0 -110 46.5 -110 139.5s36.667 139.5 110 139.5zM322 131.997c0 91.333 36.667 137.001 110 137.001s110 -46 110 -138c0 -46.667 -9.66699 -81.834 -29 -105.501
s-46.333 -35.5 -81 -35.5s-61.667 11.833 -81 35.5s-29 59.167 -29 106.5zM382 131.998c0 -60.667 16.667 -91 50 -91s50 30 50 90c0 30 -3.83301 52 -11.5 66s-20.5 21 -38.5 21s-30.833 -6.83301 -38.5 -20.5s-11.5 -35.5 -11.5 -65.5zM580 131.998
c0 91.333 36.498 137.001 109.498 137.001s109.5 -46 109.5 -138c0 -46.667 -9.66699 -81.834 -29 -105.501s-46.166 -35.5 -80.499 -35.5s-61.166 11.833 -80.499 35.5s-29 59.167 -29 106.5zM639.998 131.999c0 -60.667 16.667 -91.002 50 -91.002
c18 0 30.667 7.33301 38 22s11 37.334 11 68.001s-3.66699 52.834 -11 66.501s-20 20.5 -38 20.5s-30.833 -6.83301 -38.5 -20.5s-11.5 -35.5 -11.5 -65.5z" />
    <glyph glyph-name="guilsinglleft" unicode="&#x2039;" horiz-adv-x="301" 
d="M234 344l-124 -94l124 -105v-78l-189 151v60l189 143v-77z" />
    <glyph glyph-name="guilsinglright" unicode="&#x203a;" horiz-adv-x="301" 
d="M191 254l-124 94v77l189 -143v-60l-189 -151v78z" />
    <glyph glyph-name="fraction" unicode="&#x2044;" horiz-adv-x="0" 
d="M-224 28l392 632l40 -26l-393 -631z" />
    <glyph glyph-name="zerosuperior" unicode="&#x2070;" horiz-adv-x="280" 
d="M51 762c20 25.333 49.667 37.999 89 37.999s68.833 -12.667 88.5 -38s29.5 -68.166 29.5 -128.499s-9.83301 -103 -29.5 -128s-49.167 -37.5 -88.5 -37.5s-69 12.667 -89 38s-30 68 -30 128s10 102.667 30 128zM180.5 717.499c-8.33301 16.333 -21.832 24.5 -40.499 24.5
s-32.334 -8.16699 -41.001 -24.5s-13 -44.5 -13 -84.5s4.5 -67.833 13.5 -83.5s22.5 -23.5 40.5 -23.5s31.333 7.83301 40 23.5s13 43.5 13 83.5s-4.16699 68.167 -12.5 84.5z" />
    <glyph glyph-name="foursuperior" unicode="&#x2074;" horiz-adv-x="280" 
d="M165 478v48h-141v54l69 210h70l-73 -206h75l5 89h58v-89h27v-58h-27v-48h-63z" />
    <glyph glyph-name="fivesuperior" unicode="&#x2075;" horiz-adv-x="280" 
d="M146 621c-17.333 0 -34.667 -5 -52 -15l-50 6l10 178h187v-56h-136l-5 -73c20 10 39.333 15 58 15c62 0 93 -32.667 93 -98c0 -72 -35.333 -108 -106 -108c-30.667 0 -61 3.33301 -91 10l-16 3l5 52c36.667 -6 68.667 -9 96 -9c31.333 0 47 15.833 47 47.5
s-13.333 47.5 -40 47.5z" />
    <glyph glyph-name="sixsuperior" unicode="&#x2076;" horiz-adv-x="280" 
d="M93 669c28 9.33301 48 14.001 60 14.001c68 0 102 -34.333 102 -103c0 -34.667 -9.83301 -62 -29.5 -82s-46.5 -30 -80.5 -30c-77.333 0 -116 53.667 -116 161c0 59.333 9.83301 102.666 29.5 129.999s50.834 41 93.501 41c21.333 0 46.666 -2.66699 75.999 -8l14 -2
l-4 -54c-33.333 4.66699 -61.333 7 -84 7c-40 0 -60.333 -24.667 -61 -74zM93 612.001c2 -58 18.833 -87 50.5 -87s47.5 17.333 47.5 52s-13.333 52 -40 52c-20 0 -34.667 -2.66699 -44 -8s-14 -8.33301 -14 -9z" />
    <glyph glyph-name="sevensuperior" unicode="&#x2077;" horiz-adv-x="280" 
d="M30 728v62h206v-77l-105 -244l-69 13l102 225v21h-134z" />
    <glyph glyph-name="eightsuperior" unicode="&#x2078;" horiz-adv-x="280" 
d="M140 800c75.333 0 113 -28.333 113 -85c0 -40 -14.333 -64.333 -43 -73c32 -9.33301 48 -34.333 48 -75c0 -66 -39.333 -99 -118 -99s-118 31.667 -118 95c0 39.333 16 66 48 80c-28.667 10.667 -43 34.667 -43 72c0 56.667 37.667 85 113 85zM140 522
c35.333 0 53 15 53 45c0 24.667 -13 41 -39 49h-28c-26 -8 -39 -25 -39 -51c0 -28.667 17.667 -43 53 -43zM140 746c-33.333 0 -50 -12.332 -50 -36.999c0 -20.667 12 -35.334 36 -44.001h28c24 8 36 22.333 36 43c0 25.333 -16.667 38 -50 38z" />
    <glyph glyph-name="ninesuperior" unicode="&#x2079;" horiz-adv-x="280" 
d="M188 598c-28.667 -8 -48.999 -11.999 -60.999 -11.999c-32.667 0 -57.667 9 -75 27s-26 44 -26 78s10 60.667 30 80s46.667 29 80 29c78.667 0 118 -55.667 118 -167c0 -56.667 -9.83301 -98.334 -29.5 -125.001s-51.167 -40 -94.5 -40c-24 0 -50 3 -78 9l-14 3l4 53
c30 -4.66699 57.333 -7 82 -7c41.333 0 62.666 24 63.999 72zM102.501 653.001c8.33301 -10 19.332 -15 32.999 -15s31.834 4.66699 54.501 14c-0.666992 60.667 -18 91 -52 91c-32 0 -48 -17.333 -48 -52c0 -15.333 4.16699 -28 12.5 -38z" />
    <glyph glyph-name="zeroinferior" unicode="&#x2080;" horiz-adv-x="280" 
d="M51 184c20 25.333 49.667 37.999 89 37.999s68.833 -12.667 88.5 -38s29.5 -68.166 29.5 -128.499s-9.83301 -103 -29.5 -128s-49.167 -37.5 -88.5 -37.5s-69 12.667 -89 38s-30 68 -30 128s10 102.667 30 128zM180.5 139.499c-8.33301 16.333 -21.832 24.5 -40.499 24.5
s-32.334 -8.16699 -41.001 -24.5s-13 -44.5 -13 -84.5s4.5 -67.833 13.5 -83.5s22.5 -23.5 40.5 -23.5s31.333 7.83301 40 23.5s13 43.5 13 83.5s-4.16699 68.167 -12.5 84.5z" />
    <glyph glyph-name="oneinferior" unicode="&#x2081;" horiz-adv-x="280" 
d="M207 212v-312h-64v242l-68 -47l-29 47l101 70h60z" />
    <glyph glyph-name="twoinferior" unicode="&#x2082;" horiz-adv-x="280" 
d="M248 -100l-208.999 -0.000976562v55l88 87c34 32.667 51 60.334 51 83.001c0 24.667 -16.333 37 -49 37l-85 -9l-2 57c39.333 8 74.666 12 105.999 12c64 0 96 -30.333 96 -91c0 -22 -4.66699 -41.167 -14 -57.5s-25 -34.5 -47 -54.5l-63 -61h128v-58z" />
    <glyph glyph-name="threeinferior" unicode="&#x2083;" horiz-adv-x="280" 
d="M136 222c70 0 105.001 -28 105.001 -84c0 -34 -13 -58.333 -39 -73c16 -5.33301 27.833 -13.5 35.5 -24.5s11.5 -28.833 11.5 -53.5c0 -64.667 -35.333 -97 -106 -97c-28.667 0 -60.334 2.66699 -95.001 8l-18 2l4 56c38 -5.33301 72.5 -8 103.5 -8
s46.5 14.167 46.5 42.5s-15.667 42.5 -47 42.5h-65v53h65c9.33301 0 18 4.33301 26 13s12 19 12 31c0 22.667 -15 34 -45 34l-92 -7l-4 55c39.333 6.66699 73.333 10 102 10z" />
    <glyph glyph-name="fourinferior" unicode="&#x2084;" horiz-adv-x="280" 
d="M172 -100v48h-141v54l69 210h70l-73 -206h75l5 89h58v-89h27v-58h-27v-48h-63z" />
    <glyph glyph-name="fiveinferior" unicode="&#x2085;" horiz-adv-x="280" 
d="M138 43c-17.333 0 -34.667 -5 -52 -15l-50 6l10 178h187v-56h-136l-5 -73c20 10 39.333 15 58 15c62 0 93 -32.667 93 -98c0 -72 -35.333 -108 -106 -108c-30.667 0 -61 3.33301 -91 10l-16 3l5 52c36.667 -6 68.667 -9 96 -9c31.333 0 47 15.833 47 47.5
s-13.333 47.5 -40 47.5z" />
    <glyph glyph-name="sixinferior" unicode="&#x2086;" horiz-adv-x="280" 
d="M90 91c28 9.33301 47.999 14.001 59.999 14.001c68 0 102 -34.333 102 -103c0 -34.667 -9.83301 -62 -29.5 -82s-46.5 -30 -80.5 -30c-77.333 0 -116 53.667 -116 161c0 59.333 9.83301 102.666 29.5 129.999s50.834 41 93.501 41c21.333 0 46.333 -2.66699 75 -8l15 -2
l-4 -54c-33.333 4.66699 -61.333 7 -84 7c-40 0 -60.333 -24.667 -61 -74zM89.999 34.001c2 -58 18.833 -87 50.5 -87s47.5 17.333 47.5 52s-13.333 52 -40 52c-20 0 -34.667 -2.66699 -44 -8s-14 -8.33301 -14 -9z" />
    <glyph glyph-name="seveninferior" unicode="&#x2087;" horiz-adv-x="280" 
d="M38 150v62h206v-77l-105 -244l-69 13l102 225v21h-134z" />
    <glyph glyph-name="eightinferior" unicode="&#x2088;" horiz-adv-x="280" 
d="M139 222c75.333 0 113 -28.333 113 -85c0 -40 -14.333 -64.333 -43 -73c32 -9.33301 48 -34.333 48 -75c0 -66 -39.333 -99 -118 -99s-118 31.667 -118 95c0 39.333 16 66 48 80c-28.667 10.667 -43 34.667 -43 72c0 56.667 37.667 85 113 85zM139 -56
c35.333 0 53 15 53 45c0 24.667 -13 41 -39 49h-28c-26 -8 -39 -25 -39 -51c0 -28.667 17.667 -43 53 -43zM139 168c-33.333 0 -50 -12.332 -50 -36.999c0 -20.667 12 -35.334 36 -44.001h28c24 8 36 22.333 36 43c0 25.333 -16.667 38 -50 38z" />
    <glyph glyph-name="nineinferior" unicode="&#x2089;" horiz-adv-x="280" 
d="M186 20c-28.667 -8 -48.999 -11.999 -60.999 -11.999c-32.667 0 -57.667 9 -75 27s-26 44 -26 78s10 60.667 30 80s46.667 29 80 29c78.667 0 118 -55.667 118 -167c0 -56.667 -9.83301 -98.334 -29.5 -125.001s-51.167 -40 -94.5 -40c-24 0 -50 3 -78 9l-14 3l4 53
c30 -4.66699 57.333 -7 82 -7c41.333 0 62.666 24 63.999 72zM100.501 75.001c8.33301 -10 19.332 -15 32.999 -15s31.834 4.66699 54.501 14c-0.666992 60.667 -18 91 -52 91c-32 0 -48 -17.333 -48 -52c0 -15.333 4.16699 -28 12.5 -38z" />
    <glyph glyph-name="Euro" unicode="&#x20ac;" 
d="M30 378l0.00195312 61.001h64c8 79.333 29.833 137.666 65.5 174.999s92.834 56 171.501 56c56 0 116.667 -7 182 -21l-3 -62c-60.667 11.333 -118.334 17 -173.001 17s-94.5 -13 -119.5 -39s-40.5 -68 -46.5 -126h286v-61h-290c-0.666992 -10.667 -1 -27.334 -1 -50.001
v-45h291v-61h-287c6 -58 21.5 -100.167 46.5 -126.5s65.167 -39.5 120.5 -39.5s113 6 173 18l3 -63c-66 -14 -126.667 -21 -182 -21c-78.667 0 -135.834 19 -171.501 57s-57.834 96.333 -66.501 175h-63v61h60c-0.666992 9.33301 -1 24.833 -1 46.5
s0.333008 37.834 1 48.501h-60z" />
    <glyph glyph-name="trademark" unicode="&#x2122;" horiz-adv-x="677" 
d="M91 580v50h200v-50h-66v-248h-55v248h-79zM322 331v299h72l66 -208l71 208h70v-299h-52v224l-66 -209h-43l-66 209v-224h-52z" />
    <glyph glyph-name="Omega" unicode="&#x2126;" 
d="M168 57c-72.667 127.333 -109 233.668 -109 319.001c0 102.667 16 177.5 48 224.5s89.667 70.5 173 70.5s141 -23.5 173 -70.5s48 -121.833 48 -224.5c0 -43.333 -9.16699 -91.5 -27.5 -144.5s-36.833 -95.5 -55.5 -127.5l-27 -47h124v-66h-197v57
c25.333 46.667 49 101.167 71 163.5s33 110.5 33 144.5c0 90 -9.16699 153.5 -27.5 190.5s-56.666 55.5 -114.999 55.5s-96.5 -18.333 -114.5 -55s-27 -100.334 -27 -191.001c0 -34 8.66699 -76.667 26 -128s34.666 -94 51.999 -128l26 -52v-57h-197v66h123z" />
    <glyph glyph-name="partialdiff" unicode="&#x2202;" 
d="M266 728c80.667 0 139.834 -29.001 177.501 -87.001s56.5 -150.667 56.5 -278s-18.333 -221.166 -55 -281.499s-93 -90.5 -169 -90.5s-133.333 19.167 -172 57.5s-58 92.333 -58 162s18.667 123.667 56 162s88.666 57.5 153.999 57.5c48 0 95 -7.33301 141 -22l23 -8
c-2.66699 94 -16.334 161.167 -41.001 201.5s-66.667 60.5 -126 60.5c-21.333 0 -45.166 -3.66699 -71.499 -11s-47.5 -15 -63.5 -23l-23 -11l-4 61c20 12 47.5 23.333 82.5 34s65.833 16 92.5 16zM421 333.999c-53.333 20 -104 30 -152 30s-84 -13.667 -108 -41
s-36 -65 -36 -113s12.167 -85.5 36.5 -112.5s61.5 -40.5 111.5 -40.5s87 22.5 111 67.5s36.333 114.833 37 209.5z" />
    <glyph glyph-name="Delta" unicode="&#x2206;" 
d="M506 0h-453v57l159 603h135l159 -604v-56zM292 595h-26l-136 -529h298z" />
    <glyph glyph-name="product" unicode="&#x220f;" 
d="M382 -163v849h-206v-849h-76v849h-70v68h500v-68h-71v-849h-77z" />
    <glyph glyph-name="summation" unicode="&#x2211;" 
d="M44 753h470v-68h-390v-22l257 -329v-55l-257 -348v-25h390v-69h-470v101l267 370l-267 346v99z" />
    <glyph glyph-name="minus" unicode="&#x2212;" 
d="M66 217v68h428v-68h-428z" />
    <glyph glyph-name="radical" unicode="&#x221a;" 
d="M4 378v68h122l128 -517h10l227 848h76l-248 -913h-122l-134 514h-59z" />
    <glyph glyph-name="infinity" unicode="&#x221e;" 
d="M155 121c-83.333 0 -125.003 57 -125.003 171c0 55.333 10.333 97.666 31 126.999s51.334 44 92.001 44c30 0 54.833 -8.66699 74.5 -26s37.167 -44 52.5 -80c15.333 36 32.666 62.667 51.999 80s44.333 26 75 26c40.667 0 71.334 -14.667 92.001 -44
s31 -71.666 31 -126.999c0 -114 -41.667 -171 -125 -171c-29.333 0 -53.666 8.5 -72.999 25.5s-36.666 43.167 -51.999 78.5c-15.333 -39.333 -32 -66.5 -50 -81.5s-43 -22.5 -75 -22.5zM161.997 396c-40 0 -60.001 -34.668 -60.001 -104.001s20 -104 60 -104
c22.667 0 39.167 6.66699 49.5 20s19.333 29.333 27 48s11.5 28.667 11.5 30l3 6c-16.667 40.667 -30.334 67.334 -41.001 80.001c-11.333 12 -20.666 19 -27.999 21s-14.666 3 -21.999 3zM397.996 187.999c40 0 59.999 34.668 59.999 104.001s-20 104 -60 104
c-15.333 0 -26.666 -3.16699 -33.999 -9.5s-12.666 -11.333 -15.999 -15s-7.33301 -9.66699 -12 -18s-8 -14.5 -10 -18.5c-6 -12 -12.333 -26.333 -19 -43c16.667 -40.667 30.334 -67.334 41.001 -80.001c11.333 -12 20.666 -19 27.999 -21s14.666 -3 21.999 -3z" />
    <glyph glyph-name="integral" unicode="&#x222b;" 
d="M316 -6c0 -66.667 -11.167 -113.5 -33.5 -140.5s-56.5 -40.5 -102.5 -40.5l-88 8l3 64c26 -2.66699 51 -4 75 -4s41.667 8.33301 53 25s17 46.334 17 89.001v581c0 75.333 10.833 128.166 32.5 158.499s56.167 45.5 103.5 45.5c28.667 0 54.667 -2 78 -6l14 -3l-3 -64
c-25.333 3.33301 -50.5 5 -75.5 5s-43.5 -10.167 -55.5 -30.5s-18 -55.833 -18 -106.5v-581z" />
    <glyph glyph-name="approxequal" unicode="&#x2248;" 
d="M379 270c-18 0 -52.3311 10.333 -102.998 31s-82.334 31 -95.001 31c-24 0 -53.333 -12 -88 -36l-17 -11l-12 62c42 35.333 81 53 117 53c20 0 55 -10.167 105 -30.5s81.333 -30.5 94 -30.5c23.333 0 52.666 11.667 87.999 35l17 11l10 -61c-42 -36 -80.667 -54 -116 -54
zM379.002 85c-18 0 -52.332 10.333 -102.999 31s-82.334 31 -95.001 31s-27.667 -3.83301 -45 -11.5s-31.666 -15.5 -42.999 -23.5l-17 -12l-12 62c42 35.333 81 53 117 53c20 0 55 -10.167 105 -30.5s81.333 -30.5 94 -30.5c23.333 0 52.666 11.333 87.999 34l17 12l10 -61
c-42 -36 -80.667 -54 -116 -54z" />
    <glyph glyph-name="notequal" unicode="&#x2260;" 
d="M64 309v69h240l68 155l60 -24l-58 -131h122v-69h-152l-50 -116h202v-69h-232l-66 -152l-61 24l56 128h-129v69h159l51 116h-210z" />
    <glyph glyph-name="lessequal" unicode="&#x2264;" 
d="M488 422l-335 -102l335 -110v-76l-423 150v68l423 145v-75zM65 22v68h423v-68h-423z" />
    <glyph glyph-name="greaterequal" unicode="&#x2265;" 
d="M406 320l-335 102v75l423 -145v-68l-423 -150v76zM494 90v-68h-423v68h423z" />
    <glyph glyph-name="lozenge" unicode="&#x25ca;" 
d="M428 329l-100 67h10l168 -67l-168 -65h-9zM54 329l168 67h9l-99 -67l98 -65h-8zM291 239h-23l-38 25h99zM231 396l37 25h23l37 -25h-97z" />
    <glyph glyph-name="dotlessj" unicode="&#xf6be;" horiz-adv-x="219" 
d="M73 13v487h74v-488c0 -61.333 -11 -107.333 -33 -138s-66.333 -63 -133 -97l-30 58c51.333 30 84.5 55.667 99.5 77s22.5 55 22.5 101z" />
    <glyph glyph-name="commaaccent" unicode="&#xf6c3;" horiz-adv-x="170" 
d="M23 -285l41 207h74l-50 -207h-65z" />
    <glyph glyph-name=".null" horiz-adv-x="0" 
 />
    <glyph glyph-name="nonmarkingreturn" horiz-adv-x="333" 
 />
    <glyph glyph-name="CR" horiz-adv-x="235" 
 />
    <glyph glyph-name="DLE" horiz-adv-x="0" 
 />
    <glyph glyph-name="zero.pnum" horiz-adv-x="532" 
d="M108 448c36.667 40.667 89.667 61 159 61s121.833 -19.667 157.5 -59s53.5 -107 53.5 -203s-18.167 -162.667 -54.5 -200s-88.5 -56 -156.5 -56s-120.667 18.833 -158 56.5s-56 103.667 -56 198s18.333 161.833 55 202.5zM266 444c-46.667 0 -82 -14.167 -106 -42.5
s-36 -79.333 -36 -153s12 -124.167 36 -151.5s59.667 -41 107 -41s82.5 13.333 105.5 40s34.5 71.167 34.5 133.5s-5.83301 108.5 -17.5 138.5s-27.167 50.167 -46.5 60.5s-45 15.5 -77 15.5z" />
    <glyph glyph-name="one.pnum" horiz-adv-x="354" 
d="M278 500v-500h-71v419l-152 -90l-29 57l189 114h63z" />
    <glyph glyph-name="two.pnum" horiz-adv-x="473" 
d="M423 0l-370.999 0.000976562v63l172 141c41.333 32.667 70.333 60 87 82s25 47.333 25 76s-9.33301 49.167 -28 61.5s-50 18.5 -94 18.5c-22.667 0 -54.5 -2.83301 -95.5 -8.5s-61.5 -8.83398 -61.5 -9.50098l-5 64c71.333 14 131.666 21 180.999 21
c118.667 0 178 -47.667 178 -143c0 -38.667 -8.83301 -70.667 -26.5 -96s-46.167 -53.333 -85.5 -84l-150 -121h274v-65z" />
    <glyph glyph-name="three.pnum" horiz-adv-x="483" 
d="M57 492c69.333 12 131.334 18 186.001 18s97.167 -9.66699 127.5 -29s45.5 -51.333 45.5 -96c0 -34.667 -12.333 -64.334 -37 -89.001c-7.33301 -7.33301 -14.666 -12.833 -21.999 -16.5l-17.5 -9c-4.33301 -2.33301 -6.83301 -3.5 -7.5 -3.5
c29.333 -9.33301 53.166 -23.333 71.499 -42s27.5 -46.667 27.5 -84c0 -50 -16.667 -87.5 -50 -112.5s-79 -37.5 -137 -37.5c-49.333 0 -104 5 -164 15l-30 5l9 64c69.333 -10 131 -15 185 -15c77.333 0.666992 116 29 116 85c0 30.667 -10.333 51.834 -31 63.501
s-48.334 18.5 -83.001 20.5h-126v63h125c28 1.33301 51.667 8.16602 71 20.499s29 31.833 29 58.5s-8.83301 45.334 -26.5 56.001s-41.5 16 -71.5 16c-58 0 -110.333 -3.66699 -157 -11l-26 -4z" />
    <glyph glyph-name="four.pnum" horiz-adv-x="473" 
d="M314 -20v113h-278v55l156 352h74l-152 -339h200v133h71v-133h53v-68h-53v-113h-71z" />
    <glyph glyph-name="five.pnum" horiz-adv-x="490" 
d="M423 502l0.000976562 -72h-279l-14 -144c45.333 20.667 88.666 31 129.999 31c122 0 183 -51 183 -153c0 -55.333 -16.5 -98 -49.5 -128s-79.167 -45 -138.5 -45c-47.333 0 -103.666 6 -168.999 18l-32 6l9 64c79.333 -13.333 142.666 -20 189.999 -20
c75.333 0 113 33.667 113 101c0 60.667 -37.667 91 -113 91c-17.333 0 -37.5 -2.83301 -60.5 -8.5s-41.833 -11.5 -56.5 -17.5l-21 -9l-54 12l18 274h344z" />
    <glyph glyph-name="six.pnum" horiz-adv-x="493" 
d="M415 434c-58.667 8 -109.834 12 -153.501 12s-77.667 -12.667 -102 -38s-36.5 -68 -36.5 -128c53.333 24.667 102 37 146 37c119.333 0 179 -53.333 179 -160c0 -53.333 -17.667 -94.5 -53 -123.5s-84.666 -43.5 -147.999 -43.5c-129.333 0 -194 86.5 -194 259.5
s70 259.5 210 259.5c48.667 0 93.667 -3.66699 135 -11l22 -4zM144 228l-21 -8c2 -111.333 44.833 -167 128.5 -167s125.5 34.667 125.5 104c0 33.333 -9.5 57.333 -28.5 72s-47.833 22 -86.5 22s-78 -7.66699 -118 -23z" />
    <glyph glyph-name="seven.pnum" horiz-adv-x="411" 
d="M35 437v64h343v-85l-213 -425l-62 18l207 408v20h-275z" />
    <glyph glyph-name="eight.pnum" horiz-adv-x="508" 
d="M63 378c0 87.333 63.833 130.999 191.5 130.999s191.5 -44 191.5 -132c0 -54.667 -29.667 -93 -89 -115c32 -12.667 56.333 -28 73 -46s25 -45.333 25 -82c0 -96 -67 -144 -201 -144s-201 46.667 -201 140c0 36.667 7.83301 64.167 23.5 82.5s39.167 34.833 70.5 49.5
c-56 22.667 -84 61.334 -84 116.001zM157.5 70.499c22.333 -12.333 54.667 -18.502 97 -18.502s74.5 6.33301 96.5 19s33 34.334 33 65.001s-7.33301 52 -22 64s-38 22 -70 30h-83c-28.667 -7.33301 -50 -18.166 -64 -32.499s-21 -36 -21 -65s11.167 -49.667 33.5 -62z
M253.001 446.997c-40 0 -69.834 -5.83398 -89.501 -17.501s-29.5 -30 -29.5 -55s5.83301 -43.667 17.5 -56s30.834 -22.5 57.501 -30.5h83c28 6.66699 48.833 16.334 62.5 29.001s20.5 31 20.5 55c0 50 -40.667 75 -122 75z" />
    <glyph glyph-name="nine.pnum" horiz-adv-x="486" 
d="M223 55c91.333 0 137 55.668 137 167.001c-46 -22.667 -94.833 -34 -146.5 -34s-92.5 13.333 -122.5 40s-45 65.667 -45 117s17 91.666 51 120.999s80 44 138 44c132 0 198 -86.5 198 -259.5s-70 -259.5 -210 -259.5c-46 0 -91 4.33301 -135 13l-22 5l6 60
c54 -9.33301 104.333 -14 151 -14zM229 251.001c36 0 72.999 8.33301 110.999 25l19 8c-1.33301 54.667 -12.166 95.5 -32.499 122.5s-51.5 40.5 -93.5 40.5c-77.333 0 -116 -34.333 -116 -103c0 -62 37.333 -93 112 -93z" />
    <glyph glyph-name="questiondown.cap" horiz-adv-x="438" 
d="M36 151c0 43.333 5.83203 76.166 17.499 98.499s35.334 48.333 71.001 78s60.167 53.334 73.5 71.001s20 37.167 20 58.5v35h63c8.66699 -18 13 -38.333 13 -61s-7.66699 -43.834 -23 -63.501s-40 -44.167 -74 -73.5s-56.667 -52.666 -68 -69.999s-17 -41.5 -17 -72.5
s10.667 -54.167 32 -69.5s55 -23 101 -23c35.333 0 78.333 5.66699 129 17l26 6l5 -61c-67.333 -20 -123 -30 -167 -30c-68.667 0 -119.5 12.5 -152.5 37.5s-49.5 65.833 -49.5 122.5zM291.999 692v-112h-82v112h82z" />
    <glyph glyph-name="endash.cap" horiz-adv-x="633" 
d="M67 331h500v-66h-500v66z" />
    <glyph glyph-name="emdash.cap" horiz-adv-x="1133" 
d="M67 331h1000v-66h-1000v66z" />
    <glyph glyph-name="periodcentered.cap" horiz-adv-x="216" 
d="M67 278v114h82v-114h-82z" />
    <glyph glyph-name="exclamdown.cap" horiz-adv-x="247" 
d="M164 692v-112h-82v112h82zM158 464l5 -464h-79l5 464h69z" />
    <glyph glyph-name="parenleft.cap" horiz-adv-x="264" 
d="M155 -95c-69.333 156 -103.999 297.999 -103.999 425.999c0 64 8.66699 133.5 26 208.5s34.666 133.833 51.999 176.5l26 64h72c-23.333 -61.333 -45 -137.166 -65 -227.499s-30 -164 -30 -221s8 -121 24 -192s32 -127.833 48 -170.5l23 -64h-72z" />
    <glyph glyph-name="parenright.cap" horiz-adv-x="264" 
d="M109 785c69.333 -156 103.999 -297.999 103.999 -425.999c0 -64 -8.66699 -133.5 -26 -208.5s-34.666 -133.833 -51.999 -176.5l-26 -64h-72c23.333 61.333 45 137.166 65 227.499s30 164 30 221s-7.83301 121 -23.5 192s-31.5 127.833 -47.5 170.5l-24 64h72z" />
    <glyph glyph-name="bracketleft.cap" horiz-adv-x="329" 
d="M289 779v-67h-134v-738h134v-67h-210v872h210z" />
    <glyph glyph-name="bracketright.cap" horiz-adv-x="329" 
d="M40 712v67h210v-872h-210v67h134v738h-134z" />
    <glyph glyph-name="braceleft.cap" horiz-adv-x="352" 
d="M198 605l6.99707 -123.006c0 -42.667 -7.16699 -73.667 -21.5 -93s-42.166 -35 -83.499 -47c40.667 -12 68.334 -28.167 83.001 -48.5s22 -51.5 22 -93.5l-7 -116c0 -37.333 8.16699 -65.5 24.5 -84.5s46.5 -29.833 90.5 -32.5l-2 -65
c-67.333 2.66699 -115.166 17.5 -143.499 44.5s-42.5 70.5 -42.5 130.5l7 122c0 28.667 -8.33301 51.834 -25 69.501s-44 31.834 -82 42.501v61c38 8.66699 65.333 21.834 82 39.501s25 40.834 25 69.501l-7 128c0 61.333 14.167 105.333 42.5 132s76.5 41.334 144.5 44.001
l1 -65c-44 -2.66699 -74.167 -13.167 -90.5 -31.5s-24.5 -46.166 -24.5 -83.499z" />
    <glyph glyph-name="braceright.cap" horiz-adv-x="352" 
d="M154 80l-6.99707 123.006c0 42.667 7.16699 73.667 21.5 93s42.166 35 83.499 47c-40.667 12 -68.334 28.167 -83.001 48.5s-22 51.5 -22 93.5l7 116c0 37.333 -8.16699 65.5 -24.5 84.5s-46.5 29.833 -90.5 32.5l2 65c67.333 -2.66699 115.166 -17.5 143.499 -44.5
s42.5 -70.5 42.5 -130.5l-7 -122c0 -28.667 8.33301 -51.834 25 -69.501s44 -31.834 82 -42.501v-61c-38 -8.66699 -65.333 -21.834 -82 -39.501s-25 -40.834 -25 -69.501l7 -128c0 -61.333 -14.167 -105.333 -42.5 -132s-76.5 -41.334 -144.5 -44.001l-1 65
c44 2.66699 74.167 13.167 90.5 31.5s24.5 46.166 24.5 83.499z" />
    <glyph glyph-name="grave.cap" horiz-adv-x="236" 
d="M36 931l216 -100l-23 -53l-219 87z" />
    <glyph glyph-name="acute.cap" horiz-adv-x="236" 
d="M12 831l216 100l26 -66l-219 -87z" />
    <glyph glyph-name="circumflex.cap" horiz-adv-x="462" 
d="M54 791l134 135h65l134 -135h-84l-82 80l-83 -80h-84z" />
    <glyph glyph-name="caron.cap" horiz-adv-x="236" 
d="M99 791l-134 135h84l83 -80l82 80h84l-134 -135h-65z" />
    <glyph glyph-name="tilde.cap" horiz-adv-x="236" 
d="M220 803c-14 0 -41.667 9 -83 27s-66.333 27 -75 27c-14.667 0 -35 -12 -61 -36l-13 -12l-17 56c12.667 14.667 27.667 28 45 40s33.666 18 48.999 18s43.333 -9 84 -27s64.334 -27 71.001 -27c13.333 0 32.666 11.667 57.999 35l12 11l18 -56
c-31.333 -37.333 -60.666 -56 -87.999 -56z" />
    <glyph glyph-name="dieresis.cap" horiz-adv-x="236" 
d="M-22 808v90h73v-90h-73zM182 808v90h72v-90h-72z" />
    <glyph glyph-name="macron.cap" horiz-adv-x="236" 
d="M-22 812v58h311v-58h-311z" />
    <glyph glyph-name="breve.cap" horiz-adv-x="236" 
d="M74.5 864c17 -14 37.666 -21 61.999 -21s44.833 7 61.5 21s25.334 32 26.001 54h70c-2 -39.333 -17.333 -71 -46 -95s-66 -36 -112 -36s-83.167 12 -111.5 36s-43.5 55.667 -45.5 95h69c0.666992 -22 9.5 -40 26.5 -54z" />
    <glyph glyph-name="ring.cap" horiz-adv-x="236" 
d="M217 859c22 -18.667 33 -44.5 33 -77.5s-11 -58.833 -33 -77.5s-50.5 -28 -85.5 -28s-63.5 9.33301 -85.5 28s-33 44.5 -33 77.5s11.167 58.833 33.5 77.5s50.833 28 85.5 28s63 -9.33301 85 -28zM70 782c0 -16.667 5.5 -29.834 16.5 -39.501s26.167 -14.5 45.5 -14.5
s34.5 4.83301 45.5 14.5s16.5 22.834 16.5 39.501s-5.5 29.667 -16.5 39s-26.167 14 -45.5 14c-41.333 0 -62 -17.667 -62 -53z" />
    <glyph glyph-name="hungarumlaut.cap" horiz-adv-x="236" 
d="M157 785l142 131l55 -35l-146 -129zM-40 785l142 132l54 -35l-145 -129z" />
    <glyph glyph-name="dotaccent.cap" horiz-adv-x="236" 
d="M81 801v87h74v-87h-74z" />
    <glyph glyph-name="zero.numr" horiz-adv-x="280" 
d="M51 662c20 25.333 49.667 37.999 89 37.999s68.833 -12.667 88.5 -38s29.5 -68.166 29.5 -128.499s-9.83301 -103 -29.5 -128s-49.167 -37.5 -88.5 -37.5s-69 12.667 -89 38s-30 68 -30 128s10 102.667 30 128zM180.5 617.499c-8.33301 16.333 -21.832 24.5 -40.499 24.5
s-32.334 -8.16699 -41.001 -24.5s-13 -44.5 -13 -84.5s4.5 -67.833 13.5 -83.5s22.5 -23.5 40.5 -23.5s31.333 7.83301 40 23.5s13 43.5 13 83.5s-4.16699 68.167 -12.5 84.5z" />
    <glyph glyph-name="one.numr" horiz-adv-x="280" 
d="M202 690v-312h-64v242l-68 -47l-29 47l101 70h60z" />
    <glyph glyph-name="two.numr" horiz-adv-x="280" 
d="M243 378l-209 -0.000976562v55l88 87c34 32.667 51 60.334 51 83.001c0 24.667 -16.333 37 -49 37l-85 -9l-2 57c39.333 8 75 12 107 12c63.333 0 95 -30.333 95 -91c0 -22 -4.66699 -41.167 -14 -57.5s-25 -34.5 -47 -54.5l-63 -61h128v-58z" />
    <glyph glyph-name="three.numr" horiz-adv-x="280" 
d="M139 700c70 0 105 -28 105 -84c0 -34 -13 -58.333 -39 -73c16 -5.33301 27.833 -13.5 35.5 -24.5s11.5 -28.833 11.5 -53.5c0 -64.667 -35.333 -97 -106 -97c-28.667 0 -60.667 2.66699 -96 8l-17 2l4 56c38 -5.33301 72.5 -8 103.5 -8s46.5 14.167 46.5 42.5
s-15.667 42.5 -47 42.5h-65v53h65c9.33301 0 18 4.33301 26 13s12 19 12 31c0 22.667 -15 34 -45 34l-92 -7l-4 55c39.333 6.66699 73.333 10 102 10z" />
    <glyph glyph-name="four.numr" horiz-adv-x="280" 
d="M165 378v48h-141v54l69 210h70l-73 -206h75l5 89h58v-89h27v-58h-27v-48h-63z" />
    <glyph glyph-name="five.numr" horiz-adv-x="280" 
d="M145 521c-17.333 0 -34.667 -5 -52 -15l-50 6l10 178h187v-56h-136l-5 -73c20 10 39.333 15 58 15c62 0 93 -32.667 93 -98c0 -72 -35.333 -108 -106 -108c-30.667 0 -60.667 3.33301 -90 10l-17 3l5 52c36.667 -6 68.667 -9 96 -9c31.333 0 47 15.833 47 47.5
s-13.333 47.5 -40 47.5z" />
    <glyph glyph-name="six.numr" horiz-adv-x="280" 
d="M92 569c28 9.33301 47.999 14.001 59.999 14.001c68 0 102 -34.333 102 -103c0 -34.667 -9.83301 -62 -29.5 -82s-46.5 -30 -80.5 -30c-77.333 0 -116 53.667 -116 161c0 59.333 9.83301 102.666 29.5 129.999s50.834 41 93.501 41c21.333 0 46.333 -2.66699 75 -8l15 -2
l-4 -54c-33.333 4.66699 -61.333 7 -84 7c-40 0 -60.333 -24.667 -61 -74zM91.999 512.001c2 -58 18.833 -87 50.5 -87s47.5 17.333 47.5 52s-13.333 52 -40 52c-20 0 -34.667 -2.66699 -44 -8s-14 -8.33301 -14 -9z" />
    <glyph glyph-name="seven.numr" horiz-adv-x="280" 
d="M40 628v62h206v-77l-105 -244l-69 13l102 225v21h-134z" />
    <glyph glyph-name="eight.numr" horiz-adv-x="280" 
d="M140 700c75.333 0 113 -28.333 113 -85c0 -40 -14.333 -64.333 -43 -73c32 -9.33301 48 -34.333 48 -75c0 -66 -39.333 -99 -118 -99s-118 31.667 -118 95c0 39.333 16 66 48 80c-28.667 10.667 -43 34.667 -43 72c0 56.667 37.667 85 113 85zM140 422
c35.333 0 53 15 53 45c0 24.667 -13 41 -39 49h-28c-26 -8 -39 -25 -39 -51c0 -28.667 17.667 -43 53 -43zM140 646c-33.333 0 -50 -12.332 -50 -36.999c0 -20.667 12 -35.334 36 -44.001h28c24 8 36 22.333 36 43c0 25.333 -16.667 38 -50 38z" />
    <glyph glyph-name="nine.numr" horiz-adv-x="280" 
d="M190 498c-28.667 -8 -48.999 -11.999 -60.999 -11.999c-32.667 0 -57.667 9 -75 27s-26 44 -26 78s10 60.667 30 80s46.667 29 80 29c78.667 0 118 -55.667 118 -167c0 -56.667 -9.83301 -98.334 -29.5 -125.001s-51.167 -40 -94.5 -40c-24 0 -50 3 -78 9l-14 3l4 53
c30 -4.66699 57.333 -7 82 -7c41.333 0 62.666 24 63.999 72zM104.501 553.001c8.33301 -10 19.332 -15 32.999 -15s31.834 4.66699 54.501 14c-0.666992 60.667 -18 91 -52 91c-32 0 -48 -17.333 -48 -52c0 -15.333 4.16699 -28 12.5 -38z" />
    <glyph glyph-name="zero.slash" 
d="M253 280v96h62v-96h-62zM279 671c54.667 0 98.999 -10.3311 132.999 -30.998c72 -42.667 108 -149.334 108 -320.001c0 -120.667 -20 -205.834 -60 -255.501s-100 -74.5 -180 -74.5s-140.167 24.5 -180.5 73.5s-60.5 136.333 -60.5 262s19.833 214.667 59.5 267
s99.834 78.5 180.501 78.5zM279.999 602.002c-38 0 -68 -7.99902 -90 -23.999c-47.333 -32.667 -71 -119 -71 -259c0 -98.667 13 -166.834 39 -204.501s66.667 -56.5 122 -56.5s96 19 122 57s39 108.5 39 211.5s-12.5 174.667 -37.5 215s-66.167 60.5 -123.5 60.5z" />
    <glyph glyph-name="at.cap" horiz-adv-x="972" 
d="M931 360l0.000976562 -13.0029c0 -141.333 -22.333 -230.333 -67 -267c-16 -12.667 -32.167 -21 -48.5 -25s-35 -6 -56 -6s-39 2 -54 6s-26.5 9 -34.5 15c-16 12 -27 25 -33 39c-65.333 -39.333 -123.333 -59 -174 -59c-24.667 0 -46.167 3 -64.5 9s-36.833 17 -55.5 33
c-37.333 34 -56 99.333 -56 196s15 166.167 45 208.5s82.667 63.5 158 63.5c28.667 0 61 -6.66699 97 -20l18 -6v16h75v-191c0 -116.667 3.66699 -186 11 -208c3.33301 -8.66699 8.16602 -16.667 14.499 -24s13.166 -11.666 20.499 -12.999s20 -2 38 -2
s33.167 4.33301 45.5 13s22.833 30.667 31.5 66s13 87.333 13 156v14c0 123.333 -27.333 212.666 -82 267.999s-145.5 83 -272.5 83s-221.333 -31.5 -283 -94.5s-92.5 -165.333 -92.5 -307s29.333 -242.5 88 -302.5s155 -90 289 -90l143 10l3 -67
c-62.667 -6 -111.334 -9 -146.001 -9c-77.333 0 -142.833 7.33301 -196.5 22s-100.167 39.334 -139.5 74.001c-78 68.667 -117 191.334 -117 368.001c0 160.667 38.333 277.834 115 351.501s189.334 110.5 338.001 110.5s257.334 -34.167 326.001 -102.5
s103 -173.5 103 -315.5zM469.001 115.997c28.667 0 77.333 15.334 146 46.001c-6 36 -9 93.667 -9 173v139c-40 13.333 -74.333 20 -103 20c-54 0 -90.667 -15.333 -110 -46s-29 -80.334 -29 -149.001c0 -122 35 -183 105 -183z" />
    <glyph glyph-name="zero.dnom" horiz-adv-x="280" 
d="M51 284c20 25.333 49.667 37.999 89 37.999s68.833 -12.667 88.5 -38s29.5 -68.166 29.5 -128.499s-9.83301 -103 -29.5 -128s-49.167 -37.5 -88.5 -37.5s-69 12.667 -89 38s-30 68 -30 128s10 102.667 30 128zM180.5 239.499c-8.33301 16.333 -21.832 24.5 -40.499 24.5
s-32.334 -8.16699 -41.001 -24.5s-13 -44.5 -13 -84.5s4.5 -67.833 13.5 -83.5s22.5 -23.5 40.5 -23.5s31.333 7.83301 40 23.5s13 43.5 13 83.5s-4.16699 68.167 -12.5 84.5z" />
    <glyph glyph-name="one.dnom" horiz-adv-x="280" 
d="M204 312v-312h-64v242l-68 -47l-29 47l101 70h60z" />
    <glyph glyph-name="two.dnom" horiz-adv-x="280" 
d="M247 0l-209 -0.000976562v55l88 87c34 32.667 51 60.334 51 83.001c0 24.667 -16.333 37 -49 37l-85 -9l-2 57c39.333 8 75 12 107 12c63.333 0 95 -30.333 95 -91c0 -22 -4.66699 -41.167 -14 -57.5s-25 -34.5 -47 -54.5l-63 -61h128v-58z" />
    <glyph glyph-name="three.dnom" horiz-adv-x="280" 
d="M139 322c70 0 105 -28 105 -84c0 -34 -13 -58.333 -39 -73c16 -5.33301 27.833 -13.5 35.5 -24.5s11.5 -28.833 11.5 -53.5c0 -64.667 -35.333 -97 -106 -97c-28.667 0 -60.667 2.66699 -96 8l-17 2l4 56c38 -5.33301 72.5 -8 103.5 -8s46.5 14.167 46.5 42.5
s-15.667 42.5 -47 42.5h-65v53h65c9.33301 0 18 4.33301 26 13s12 19 12 31c0 22.667 -15 34 -45 34l-92 -7l-4 55c39.333 6.66699 73.333 10 102 10z" />
    <glyph glyph-name="four.dnom" horiz-adv-x="280" 
d="M166 0v48h-141v54l69 210h70l-73 -206h75l5 89h58v-89h27v-58h-27v-48h-63z" />
    <glyph glyph-name="five.dnom" horiz-adv-x="280" 
d="M141 143c-17.333 0 -34.667 -5 -52 -15l-50 6l10 178h187v-56h-136l-5 -73c20 10 39.333 15 58 15c62 0 93 -32.667 93 -98c0 -72 -35.333 -108 -106 -108c-30.667 0 -60.667 3.33301 -90 10l-17 3l5 52c36.667 -6 68.667 -9 96 -9c31.333 0 47 15.833 47 47.5
s-13.333 47.5 -40 47.5z" />
    <glyph glyph-name="six.dnom" horiz-adv-x="280" 
d="M88 191c28 9.33301 47.999 14.001 59.999 14.001c68 0 102 -34.333 102 -103c0 -34.667 -9.83301 -62 -29.5 -82s-46.5 -30 -80.5 -30c-77.333 0 -116 53.667 -116 161c0 59.333 9.83301 102.666 29.5 129.999s50.834 41 93.501 41c21.333 0 46.333 -2.66699 75 -8l15 -2
l-4 -54c-33.333 4.66699 -61.333 7 -84 7c-40 0 -60.333 -24.667 -61 -74zM87.999 134.001c2 -58 18.833 -87 50.5 -87s47.5 17.333 47.5 52s-13.333 52 -40 52c-20 0 -34.667 -2.66699 -44 -8s-14 -8.33301 -14 -9z" />
    <glyph glyph-name="seven.dnom" horiz-adv-x="280" 
d="M40 250v62h206v-77l-105 -244l-69 13l102 225v21h-134z" />
    <glyph glyph-name="eight.dnom" horiz-adv-x="280" 
d="M140 322c75.333 0 113 -28.333 113 -85c0 -40 -14.333 -64.333 -43 -73c32 -9.33301 48 -34.333 48 -75c0 -66 -39.333 -99 -118 -99s-118 31.667 -118 95c0 39.333 16 66 48 80c-28.667 10.667 -43 34.667 -43 72c0 56.667 37.667 85 113 85zM140 44
c35.333 0 53 15 53 45c0 24.667 -13 41 -39 49h-28c-26 -8 -39 -25 -39 -51c0 -28.667 17.667 -43 53 -43zM140 268c-33.333 0 -50 -12.332 -50 -36.999c0 -20.667 12 -35.334 36 -44.001h28c24 8 36 22.333 36 43c0 25.333 -16.667 38 -50 38z" />
    <glyph glyph-name="nine.dnom" horiz-adv-x="280" 
d="M187 120c-28.667 -8 -48.999 -11.999 -60.999 -11.999c-32.667 0 -57.667 9 -75 27s-26 44 -26 78s10 60.667 30 80s46.667 29 80 29c78.667 0 118 -55.667 118 -167c0 -56.667 -9.83301 -98.334 -29.5 -125.001s-51.167 -40 -94.5 -40c-24 0 -50 3 -78 9l-14 3l4 53
c30 -4.66699 57.333 -7 82 -7c41.333 0 62.666 24 63.999 72zM101.501 175.001c8.33301 -10 19.332 -15 32.999 -15s31.834 4.66699 54.501 14c-0.666992 60.667 -18 91 -52 91c-32 0 -48 -17.333 -48 -52c0 -15.333 4.16699 -28 12.5 -38z" />
    <glyph glyph-name="hyphen.cap" horiz-adv-x="438" 
d="M68 270v70h303v-70h-303z" />
    </font>
</defs>
</svg>
